<svg version="1.1" xmlns="http://www.w3.org/2000/svg" xmlns:xlink="http://www.w3.org/1999/xlink" width="1280" height="1280" viewBox="0,0,256,256"><g fill="#613c7f" fill-rule="nonzero" stroke="none" stroke-width="1" stroke-linecap="butt" stroke-linejoin="miter" stroke-miterlimit="10" stroke-dasharray="" stroke-dashoffset="0" font-family="none" font-weight="none" font-size="none" text-anchor="none" style="mix-blend-mode: normal"><g transform="translate(-0.17006,-0.08808) scale(0.18286,0.16)"><path transform="translate(752,88)" d="M0,0c6.44,5.64 12.6,11.5 18.7,17.6c1.22,1.21 1.22,1.21 2.46,2.45l13.9,13.9c4.71,4.7 9.41,9.4 14.1,14.1c3.83,3.83 7.65,7.65 11.5,11.5c0.82,0.82 0.82,0.82 1.65,1.66l3.33,3.33c10.4,10.4 20.8,20.8 31.2,31.2c8.89,8.9 17.8,17.8 26.7,26.7c10.4,10.3 20.7,20.7 31,31c1.1,1.11 2.21,2.21 3.31,3.32c0.55,0.54 1.09,1.09 1.65,1.65c3.82,3.82 7.64,7.63 11.5,11.4c4.65,4.65 9.31,9.31 14,14l7.12,7.12c2.58,2.57 5.15,5.15 7.73,7.73l2.25,2.25c3.92,3.93 7.65,7.97 11.3,12.2c3.13,3.54 6.49,6.85 9.84,10.2c0.79,0.78 1.57,1.57 2.38,2.38c2.62,2.61 5.23,5.22 7.85,7.83l5.64,5.64c4.04,4.03 8.09,8.07 12.1,12.1c5.86,5.84 11.7,11.7 17.6,17.5c9.5,9.5 19,19 28.5,28.5c0.57,0.56 1.14,1.13 1.73,1.72c4.03,4.02 8.07,8.05 12.1,12.1l13.8,13.8c0.56,0.57 1.13,1.14 1.72,1.72c9.47,9.47 19,18.9 28.4,28.4c5.84,5.83 11.7,11.7 17.5,17.5c4.01,3.99 8.01,7.99 12,12c2.3,2.31 4.61,4.61 6.91,6.91c2.51,2.5 5.01,5 7.52,7.5l2.18,2.18c3.92,3.92 7.64,7.96 11.3,12.2c2.41,2.73 4.95,5.3 7.54,7.86c0.55,0.55 1.1,1.1 1.67,1.66c1.82,1.82 3.64,3.63 5.46,5.43c1.31,1.31 2.63,2.62 3.94,3.93c2.82,2.81 5.64,5.62 8.47,8.43c4.47,4.45 8.94,8.9 13.4,13.4c12.7,12.7 25.4,25.3 38.1,38c7.03,7 14.1,14 21.1,21c4.43,4.42 8.87,8.84 13.3,13.2c2.77,2.76 5.54,5.53 8.3,8.29c1.27,1.27 2.55,2.54 3.83,3.8c10.2,10.1 19.6,20.7 26.8,33.3c0.62,1.06 0.62,1.06 1.25,2.15c3.91,6.92 6.87,14 9.5,21.5c0.23,0.62 0.45,1.24 0.68,1.88c12.3,34.3 9.78,73.2 -5.62,106c-3.22,6.63 -6.8,12.9 -11.1,18.9c-0.69,0.99 -1.38,1.98 -2.1,3c-10.4,14.2 -23,26.7 -37.9,36c-0.62,0.39 -1.24,0.77 -1.87,1.17c-30.4,18.8 -68.6,26.2 -104,18.2c-27.7,-6.93 -27.7,-6.93 -38.7,-15.1c-7.15,-4.78 -7.15,-4.78 -15.6,-4.77c-0.68,0.16 -1.37,0.32 -2.07,0.49c-0.74,0.15 -1.48,0.31 -2.24,0.46c-2.26,0.48 -4.52,0.99 -6.78,1.5c-1.32,0.28 -2.64,0.55 -3.96,0.82c-3.98,0.83 -7.95,1.71 -11.9,2.62c-0.73,0.17 -1.46,0.33 -2.21,0.51c-28.5,6.56 -56.5,14.8 -84.3,23.8c-0.93,0.3 -1.87,0.61 -2.84,0.92c-18.4,5.98 -36.4,12.8 -54.2,20.2c-0.6,0.25 -1.21,0.5 -1.83,0.76c-36.8,15.3 -72.9,32 -108,51.4c-1.44,0.8 -1.44,0.8 -2.91,1.62c-12.9,7.17 -25.6,14.6 -38.1,22.4c-0.79,0.49 -1.59,0.99 -2.41,1.5c-13.2,8.21 -26,16.7 -38.4,26.1c-2.14,1.43 -2.14,1.43 -4.14,1.43c4.28,4.99 8.67,9.86 13.1,14.7c0.51,0.54 1.01,1.09 1.53,1.65c2.35,2.55 4.72,5.02 7.22,7.43c2.13,2.23 2.13,2.23 2.13,4.23h2c1.79,1.98 3.43,3.96 5.06,6.06c0.49,0.63 0.98,1.26 1.49,1.92c12.5,16.4 21.7,35 26.4,55c0.16,0.68 0.33,1.35 0.5,2.05c4.6,19.9 4.41,42.2 -0.5,62c-0.2,0.8 -0.4,1.61 -0.6,2.43c-3.07,12 -7.41,22.8 -13.4,33.6c-0.58,1.08 -1.15,2.16 -1.75,3.27c-4.02,7.25 -8.81,13.5 -14.2,19.7c-0.66,0.76 -1.33,1.53 -2.01,2.31c-11.8,13.4 -24.3,26.2 -37,38.7c4.42,5.31 9.12,10.2 14.1,15c2.85,2.81 5.57,5.67 8.18,8.72c3.59,4.11 7.36,7.99 11.2,11.8c0.71,0.71 1.42,1.42 2.15,2.16c1.53,1.52 3.07,3.05 4.6,4.58l7.29,7.26c5.16,5.15 10.3,10.3 15.5,15.4c5.98,5.96 12,11.9 18,17.9c2.38,2.38 4.77,4.75 7.15,7.13c1.48,1.47 2.95,2.94 4.42,4.41c0.66,0.65 1.32,1.3 1.99,1.97c26.5,26.5 43.5,61 43.8,98.9c-0.01,1.31 -0.01,2.61 -0.02,3.95v2.06c-0.05,10.5 -0.62,20.5 -3.31,30.7c-0.17,0.65 -0.34,1.31 -0.52,1.98c-5.71,21.2 -15.7,40.1 -29.5,57c-0.56,0.7 -1.11,1.4 -1.69,2.12c-3.67,4.48 -7.87,8.18 -12.3,11.9c-0.85,0.72 -1.7,1.45 -2.57,2.2c-28.1,23.6 -63.9,34.9 -100,32.8c-11.6,-1.04 -22.9,-3.34 -34,-7c-1.1,-0.34 -2.2,-0.67 -3.34,-1.02c-6.99,-2.27 -13.3,-5.2 -19.8,-8.73c-1.06,-0.57 -1.06,-0.57 -2.14,-1.16c-14.5,-8.22 -25.8,-19.7 -37.4,-31.4c-2.5,-2.51 -5,-5.02 -7.51,-7.52c-4.9,-4.89 -9.78,-9.79 -14.7,-14.7c-5.7,-5.71 -11.4,-11.4 -17.1,-17.1c-10.2,-10.2 -20.4,-20.4 -30.5,-30.6c-9.86,-9.88 -19.7,-19.8 -29.6,-29.6c-0.61,-0.61 -1.21,-1.22 -1.84,-1.84l-3.68,-3.68c-0.9,-0.91 -0.9,-0.91 -1.83,-1.83c-0.6,-0.61 -1.21,-1.21 -1.83,-1.83c-9.42,-9.43 -18.8,-18.9 -28.3,-28.3c-3.4,-3.41 -6.81,-6.82 -10.2,-10.2c-5.4,-5.41 -10.8,-10.8 -16.2,-16.2c-2.47,-2.47 -4.93,-4.94 -7.4,-7.41c-2.68,-2.68 -5.35,-5.36 -8.03,-8.05l-2.34,-2.34c-4.06,-4.08 -7.95,-8.24 -11.7,-12.6c-2.58,-2.95 -5.36,-5.7 -8.14,-8.46c-0.59,-0.59 -1.18,-1.17 -1.79,-1.78c-1.85,-1.85 -3.7,-3.69 -5.56,-5.53c-1.27,-1.26 -2.54,-2.53 -3.8,-3.79c-3.09,-3.07 -6.17,-6.14 -9.26,-9.21c-3.16,1.4 -5.26,3.03 -7.68,5.48c-0.7,0.71 -1.41,1.42 -2.13,2.16c-0.76,0.77 -1.51,1.54 -2.29,2.33c-0.79,0.8 -1.58,1.6 -2.39,2.42c-3.37,3.4 -6.73,6.82 -10.1,10.2c-29.5,29.9 -62.1,50.2 -105,50.6c-42.4,-0.05 -77.3,-16.1 -107,-45.9c-1.24,-1.24 -2.48,-2.49 -3.72,-3.74l-4.02,-4.02c-3.61,-3.6 -7.22,-7.21 -10.8,-10.8c-3.78,-3.8 -7.57,-7.59 -11.4,-11.4c-6.36,-6.35 -12.7,-12.7 -19.1,-19.1c-7.33,-7.35 -14.7,-14.7 -22,-22c-7.84,-7.84 -15.7,-15.7 -23.5,-23.5c-2.25,-2.25 -4.5,-4.5 -6.74,-6.75c-3.54,-3.54 -7.08,-7.08 -10.6,-10.6c-1.3,-1.3 -2.59,-2.59 -3.88,-3.89c-31.8,-31.8 -51.5,-67.1 -51.5,-113c0.01,-10.5 0.63,-20.3 3.25,-30.5c0.26,-1.03 0.26,-1.03 0.52,-2.08c5.09,-20 13.8,-38.6 27.3,-54.4c2.72,-3.2 5.23,-6.56 7.73,-9.94c0.7,-0.78 0.7,-0.78 1.41,-1.58h2c0.26,-0.59 0.52,-1.17 0.79,-1.78c1.28,-2.34 2.62,-3.87 4.5,-5.75c0.68,-0.69 1.36,-1.37 2.07,-2.08c1.13,-1.12 1.13,-1.12 2.28,-2.26c0.79,-0.8 1.59,-1.6 2.41,-2.42c2.68,-2.68 5.37,-5.36 8.06,-8.03l5.76,-5.76c4.14,-4.13 8.28,-8.27 12.4,-12.4c6,-5.98 12,-12 18,-17.9c9.71,-9.7 19.4,-19.4 29.2,-29.1c0.58,-0.59 1.16,-1.17 1.76,-1.76c0.58,-0.58 1.17,-1.17 1.77,-1.76c8.26,-8.25 16.5,-16.5 24.8,-24.7c0.87,-0.87 0.87,-0.87 1.76,-1.75c9.69,-9.67 19.4,-19.3 29,-29c5.97,-5.97 12,-11.9 17.9,-17.9c4.1,-4.08 8.19,-8.16 12.3,-12.2c2.36,-2.36 4.72,-4.72 7.09,-7.08c2.56,-2.55 5.11,-5.1 7.67,-7.65c0.75,-0.75 1.51,-1.5 2.29,-2.28l3.85,-3.85c1.47,-1.46 1.47,-1.46 2.37,-3.49h2c0.33,-0.82 0.33,-0.82 0.67,-1.65c1.76,-3.11 4.15,-5.42 6.68,-7.91l1.65,-1.65c1.8,-1.79 3.61,-3.58 5.42,-5.37c1.26,-1.25 2.52,-2.5 3.77,-3.76c3.32,-3.3 6.64,-6.6 9.96,-9.89c5.3,-5.26 10.6,-10.5 15.9,-15.8c1.84,-1.83 3.68,-3.66 5.53,-5.49c5.18,-5.14 10.3,-10.3 15,-15.8c2.68,-3.14 5.57,-6.09 8.41,-9.09c4.57,-4.83 8.89,-9.7 12.8,-15.1c0.4,-0.47 0.81,-0.95 1.23,-1.44h2c0.22,-0.53 0.44,-1.06 0.67,-1.61c1.8,-3.24 4.2,-5.87 6.64,-8.64c10.6,-12.2 20.6,-24.8 30.2,-37.8c1.96,-2.64 3.94,-5.26 5.92,-7.88c2.03,-2.69 4.04,-5.39 6.05,-8.09c0.99,-1.32 1.97,-2.64 2.96,-3.96c23.9,-31.9 44.9,-66.3 63.2,-102c2.77,-5.33 5.61,-10.6 8.63,-15.8c4.26,-7.36 8.07,-14.9 11.8,-22.6c0.52,-1.08 1.04,-2.16 1.57,-3.27c15.5,-32.3 29.5,-65 41.4,-98.7c0.29,-0.81 0.58,-1.62 0.87,-2.45c11.3,-31.8 20.8,-63.8 29,-96.6c0.22,-0.91 0.45,-1.83 0.69,-2.77c2.38,-9.5 4.67,-19 6.75,-28.6c0.17,-0.76 0.34,-1.53 0.52,-2.32c1.71,-8.08 1.6,-13.5 -2.9,-20.6c-9.9,-16.6 -16,-35.5 -17.9,-54.7c-0.07,-0.67 -0.14,-1.34 -0.21,-2.03c-3.4,-35.5 6.75,-72.1 29.2,-100c2.38,-2.76 4.79,-5.46 7.29,-8.11c1.77,-1.79 1.77,-1.79 2.71,-3.89h2v-2c45,-49.3 132,-53.2 183,-12zM-117,78v2h-2c-5.12,5.93 -8.58,12.6 -11,20c-0.29,0.88 -0.29,0.88 -0.59,1.78c-2.41,12.9 -0.35,25.6 6.74,36.6c6.41,9.12 14.9,16.8 22.8,24.6c1.17,1.17 2.34,2.35 3.51,3.52c2.51,2.5 5.01,5 7.52,7.5c3.97,3.95 7.94,7.91 11.9,11.9c8.41,8.4 16.8,16.8 25.2,25.2c9.11,9.08 18.2,18.2 27.3,27.2l11.8,11.8c2.46,2.45 4.91,4.9 7.36,7.35c1.14,1.13 2.27,2.26 3.4,3.39c1.56,1.54 3.11,3.1 4.66,4.65c0.87,0.86 1.74,1.73 2.63,2.62c2.09,2.18 4.07,4.38 6.04,6.66c3.75,4.32 7.73,8.37 11.8,12.4c1.19,1.18 1.19,1.18 2.39,2.39c2.63,2.62 5.26,5.25 7.89,7.87l5.67,5.67c4.07,4.06 8.13,8.12 12.2,12.2c5.89,5.88 11.8,11.8 17.6,17.6c9.56,9.55 19.1,19.1 28.7,28.6l1.73,1.73c4.06,4.05 8.11,8.1 12.2,12.2c4.63,4.63 9.27,9.25 13.9,13.9c0.57,0.57 1.14,1.14 1.73,1.72c9.52,9.52 19,19 28.6,28.6l17.6,17.6c4.02,4.01 8.04,8.03 12.1,12c2.32,2.31 4.64,4.63 6.96,6.94c2.52,2.51 5.03,5.03 7.55,7.54c0.72,0.73 1.45,1.45 2.2,2.19c3.25,3.26 6.41,6.56 9.42,10c3.69,4.28 7.63,8.26 11.6,12.2l2.39,2.39c2.63,2.64 5.27,5.26 7.9,7.89c1.9,1.89 3.79,3.79 5.69,5.68c4.07,4.07 8.14,8.13 12.2,12.2c5.89,5.88 11.8,11.8 17.7,17.6c9.56,9.56 19.1,19.1 28.7,28.7c0.57,0.57 1.15,1.14 1.74,1.73c4.05,4.06 8.11,8.11 12.2,12.2c4.65,4.64 9.29,9.27 13.9,13.9l1.73,1.73c9.54,9.52 19.1,19 28.6,28.6c5.88,5.87 11.8,11.7 17.6,17.6c4.03,4.02 8.06,8.04 12.1,12.1c2.32,2.31 4.64,4.63 6.96,6.95c2.53,2.51 5.04,5.03 7.56,7.55c0.73,0.72 1.46,1.45 2.22,2.2c2.95,2.97 5.84,5.92 8.49,9.16c6.68,8.09 17.1,11.9 27.2,13.6c13.6,1.11 26.2,-2.55 36.7,-11.2c10.3,-9.67 15.2,-19.9 15.6,-33.9c0.2,-14 -3.14,-25.6 -13,-36c-1.38,-1.4 -2.78,-2.79 -4.18,-4.16c-0.77,-0.78 -1.54,-1.55 -2.34,-2.35c-2.57,-2.57 -5.15,-5.13 -7.73,-7.69l-5.55,-5.55c-3.98,-3.97 -7.96,-7.94 -12,-11.9c-5.78,-5.74 -11.5,-11.5 -17.3,-17.2c-9.36,-9.35 -18.7,-18.7 -28.1,-28c-9.08,-9.05 -18.2,-18.1 -27.2,-27.1c-0.56,-0.55 -1.12,-1.11 -1.7,-1.69c-6.1,-6.09 -12.2,-12.2 -18.3,-18.3l-1.63,-1.63c-4.4,-4.39 -4.4,-4.39 -6.44,-6.43c-6.28,-6.26 -12.6,-12.5 -18.8,-18.8c-4.4,-4.38 -8.81,-8.78 -13.2,-13.2c-1.8,-1.8 -3.61,-3.59 -5.41,-5.39c-2.47,-2.45 -4.94,-4.91 -7.4,-7.37c-1.07,-1.06 -1.07,-1.06 -2.16,-2.14c-3.22,-3.22 -6.34,-6.47 -9.31,-9.92c-3.69,-4.28 -7.63,-8.26 -11.6,-12.2c-0.79,-0.78 -1.58,-1.57 -2.39,-2.39c-2.63,-2.62 -5.26,-5.25 -7.89,-7.87l-5.67,-5.67c-4.07,-4.06 -8.13,-8.12 -12.2,-12.2c-5.89,-5.88 -11.8,-11.8 -17.6,-17.6c-9.56,-9.55 -19.1,-19.1 -28.7,-28.6l-1.73,-1.73c-4.06,-4.05 -8.11,-8.1 -12.2,-12.2c-4.63,-4.63 -9.27,-9.25 -13.9,-13.9c-0.57,-0.57 -1.14,-1.14 -1.73,-1.72c-9.52,-9.52 -19,-19 -28.6,-28.6l-17.6,-17.6c-4.02,-4.01 -8.04,-8.03 -12.1,-12c-2.32,-2.31 -4.64,-4.63 -6.96,-6.94c-2.52,-2.51 -5.03,-5.03 -7.55,-7.54c-0.72,-0.73 -1.45,-1.45 -2.2,-2.19c-3.92,-3.93 -7.64,-7.97 -11.3,-12.2c-2.47,-2.82 -5.09,-5.47 -7.74,-8.12c-0.57,-0.57 -1.14,-1.15 -1.73,-1.74c-1.89,-1.9 -3.78,-3.79 -5.67,-5.68c-1.36,-1.38 -2.73,-2.75 -4.09,-4.12c-4.46,-4.47 -8.92,-8.94 -13.4,-13.4c-1.54,-1.54 -3.08,-3.09 -4.62,-4.63c-7.24,-7.26 -14.5,-14.5 -21.7,-21.8c-8.34,-8.35 -16.7,-16.7 -25,-25.1c-6.45,-6.48 -12.9,-13 -19.4,-19.4c-3.85,-3.85 -7.71,-7.71 -11.6,-11.6c-3.61,-3.64 -7.24,-7.27 -10.9,-10.9c-1.33,-1.33 -2.65,-2.66 -3.97,-3.99c-11.6,-11.7 -22.6,-20.5 -39.7,-21.5c-12.2,0.22 -24.4,4.52 -33.2,13.1zM-123,273c-2.76,6.83 -4.68,13.8 -6.64,20.9c-10.4,37.4 -23,74 -37.4,110c-0.28,0.71 -0.56,1.42 -0.85,2.15c-5.94,14.9 -12.2,29.6 -19.1,44.1c-2.68,5.66 -5.01,11.3 -7.09,17.2c-1.27,3.45 -2.85,6.67 -4.54,9.93c-0.71,1.38 -1.42,2.76 -2.13,4.15c-0.36,0.71 -0.73,1.43 -1.11,2.17c-1.17,2.29 -2.3,4.59 -3.43,6.9c-5.88,12 -12.3,23.7 -19,35.3c-1.78,3.12 -3.52,6.25 -5.25,9.39c-6.69,12.1 -13.6,23.9 -21.1,35.5c-1.68,2.61 -3.31,5.25 -4.94,7.89c-10.6,17.2 -22,33.9 -34,50.2c-1.82,2.5 -3.61,5.03 -5.4,7.55c-5.16,7.3 -10.5,14.4 -16,21.4c-0.46,0.58 -0.91,1.17 -1.38,1.77c-3.2,4.08 -6.4,8.16 -9.62,12.2c-0.69,0.87 -1.38,1.75 -2.09,2.65c-4.15,5.23 -8.42,10.4 -12.8,15.4c-4.46,5.25 -8.82,10.6 -13.2,15.9c1.66,4.3 4.91,7.18 8.12,10.4l1.92,1.92c2.12,2.13 4.26,4.26 6.4,6.38l4.57,4.57c3.29,3.29 6.58,6.57 9.88,9.85c5.21,5.19 10.4,10.4 15.6,15.6c8.23,8.23 16.5,16.4 24.7,24.7c14.8,14.7 29.5,29.4 44.2,44.1c5.17,5.16 10.4,10.3 15.5,15.5c3.23,3.21 6.45,6.43 9.68,9.65c1.49,1.49 2.98,2.97 4.47,4.46c2.05,2.03 4.09,4.07 6.13,6.11c0.58,0.58 1.17,1.16 1.77,1.76c3.65,3.66 7.1,7.45 10.5,11.4c1.75,2.02 3.57,3.95 5.44,5.87c0.69,0.7 1.38,1.4 2.09,2.13c3.07,3.12 6.15,6.23 9.23,9.34c1.63,1.65 3.25,3.3 4.87,4.95c2.34,2.4 4.7,4.78 7.07,7.16c0.72,0.75 1.45,1.49 2.19,2.26c0.68,0.68 1.36,1.35 2.05,2.05c0.89,0.9 0.89,0.9 1.8,1.82c1.7,1.38 1.7,1.38 3.84,0.94c2.69,-1.11 4.57,-2.73 6.8,-4.6c0.96,-0.81 1.92,-1.62 2.92,-2.45c4.06,-3.46 8.1,-6.95 12.1,-10.4c3.83,-3.3 7.74,-6.44 11.8,-9.5c2.25,-1.77 4.42,-3.62 6.59,-5.5c8.84,-7.64 18.2,-14.5 27.7,-21.3c0.61,-0.44 1.22,-0.88 1.85,-1.34c3.35,-2.43 6.72,-4.83 10.1,-7.22c1.5,-1.05 2.99,-2.11 4.48,-3.16c37,-26.2 76,-49.4 116,-70.9c2.28,-1.22 4.55,-2.46 6.82,-3.7c7.46,-4.06 15,-7.78 22.7,-11.4c4.25,-1.99 8.46,-4.02 12.6,-6.17c59.9,-30.6 125,-51.2 189,-69.2c-4.36,-5.22 -8.95,-10.1 -13.8,-14.9c-0.77,-0.76 -1.53,-1.53 -2.32,-2.31c-2.55,-2.55 -5.1,-5.09 -7.65,-7.63l-5.49,-5.49c-3.94,-3.94 -7.88,-7.87 -11.8,-11.8c-5.71,-5.69 -11.4,-11.4 -17.1,-17.1c-9.27,-9.25 -18.5,-18.5 -27.8,-27.8l-1.68,-1.68c-4.5,-4.49 -8.99,-8.97 -13.5,-13.5c-3.93,-3.92 -7.86,-7.84 -11.8,-11.8c-0.83,-0.82 -0.83,-0.82 -1.67,-1.67c-9.24,-9.22 -18.5,-18.4 -27.7,-27.7c-5.68,-5.68 -11.4,-11.4 -17.1,-17c-4.36,-4.35 -8.72,-8.71 -13.1,-13.1c-1.79,-1.78 -3.57,-3.56 -5.36,-5.34l-7.32,-7.32c-0.7,-0.7 -1.41,-1.39 -2.13,-2.12c-3.2,-3.2 -6.3,-6.45 -9.26,-9.88c-3.66,-4.24 -7.55,-8.19 -11.5,-12.1c-0.77,-0.78 -1.55,-1.56 -2.35,-2.36c-2.59,-2.58 -5.18,-5.16 -7.76,-7.74c-1.87,-1.86 -3.73,-3.72 -5.59,-5.58c-4,-4 -8,-7.99 -12,-12c-5.8,-5.78 -11.6,-11.6 -17.4,-17.4l-28.2,-28.2c-0.56,-0.56 -1.13,-1.12 -1.7,-1.7c-4,-3.99 -7.99,-7.97 -12,-12c-4.56,-4.55 -9.12,-9.11 -13.7,-13.7l-1.7,-1.7c-9.38,-9.36 -18.8,-18.7 -28.1,-28.1c-5.77,-5.77 -11.6,-11.5 -17.3,-17.3c-3.96,-3.95 -7.92,-7.91 -11.9,-11.9c-2.28,-2.28 -4.57,-4.56 -6.85,-6.83c-2.48,-2.48 -4.96,-4.95 -7.43,-7.43c-1.07,-1.06 -1.07,-1.06 -2.17,-2.15c-3.94,-3.95 -7.7,-8 -11.3,-12.2c-2.04,-2.34 -4.19,-4.54 -6.39,-6.73c-0.76,-0.76 -1.52,-1.53 -2.3,-2.31c-1.53,-1.8 -1.53,-1.8 -2.82,-1.69zM-416,777l-1.61,1.61c-0.91,0.91 -0.91,0.91 -1.85,1.84c-0.68,0.68 -1.35,1.36 -2.05,2.06c-0.71,0.71 -1.43,1.42 -2.16,2.16c-2.42,2.41 -4.82,4.82 -7.23,7.24c-1.72,1.72 -3.45,3.44 -5.17,5.16c-4.21,4.2 -8.41,8.41 -12.6,12.6c-4.89,4.9 -9.79,9.8 -14.7,14.7c-8.74,8.74 -17.5,17.5 -26.2,26.2c-8.47,8.48 -17,17 -25.4,25.4l-1.58,1.58c-0.52,0.52 -1.04,1.04 -1.57,1.58c-9.66,9.65 -19.3,19.3 -29,29l-10.2,10.2c-4.6,4.6 -9.19,9.2 -13.8,13.8c-1.68,1.69 -3.37,3.37 -5.05,5.06c-2.31,2.31 -4.62,4.62 -6.92,6.93c-0.66,0.66 -1.33,1.32 -2.01,2c-3.82,3.84 -7.45,7.78 -11,11.9c-2.13,2.44 -4.4,4.71 -6.71,6.98c-0.47,0.46 -0.94,0.92 -1.42,1.4c-1,0.99 -2,1.97 -3,2.95c-1.59,1.57 -3.18,3.14 -4.77,4.72c-4.51,4.46 -9.02,8.93 -13.6,13.4c-2.79,2.74 -5.56,5.49 -8.33,8.24c-1.05,1.04 -2.1,2.07 -3.15,3.1c-8.7,8.5 -15.9,17.2 -19.6,29c-0.18,0.58 -0.37,1.15 -0.55,1.75c-1.83,9.26 -1.07,19.6 2.55,28.2c0.26,0.67 0.51,1.34 0.77,2.03c4.5,10.4 14.6,18.5 22.5,26.3c0.95,0.95 1.91,1.91 2.87,2.86c2.99,2.98 5.99,5.96 8.99,8.94c3.5,3.47 6.99,6.94 10.5,10.4c1.38,1.38 2.76,2.74 4.14,4.11c0.85,0.85 1.7,1.7 2.58,2.57c0.74,0.74 1.48,1.47 2.24,2.22c1.98,2.08 3.86,4.18 5.73,6.34c3.81,4.38 7.83,8.52 11.9,12.6c0.79,0.8 1.58,1.6 2.39,2.42c7.23,7.32 14.5,14.6 21.7,21.9c5.34,5.37 10.7,10.8 16,16.2c4.22,4.29 8.46,8.55 12.7,12.8c1.79,1.8 3.58,3.6 5.35,5.41c13,13.2 25,24.4 44.4,25.2c18.8,-0.52 30.8,-11.2 43.3,-23.8c1.37,-1.37 2.74,-2.74 4.12,-4.1c3.69,-3.69 7.37,-7.39 11,-11.1c3.86,-3.88 7.73,-7.75 11.6,-11.6c6.48,-6.49 13,-13 19.4,-19.5c7.48,-7.52 15,-15 22.5,-22.5c7.99,-8 16,-16 24,-24c2.3,-2.31 4.6,-4.61 6.9,-6.92c3.61,-3.61 7.21,-7.23 10.8,-10.8c1.32,-1.33 2.65,-2.66 3.98,-3.99c1.8,-1.81 3.6,-3.62 5.39,-5.43c0.54,-0.53 1.07,-1.06 1.62,-1.61c2.76,-2.47 2.76,-2.47 3.58,-5.86c0.99,-0.33 1.98,-0.66 3,-1c1.59,-1.57 1.59,-1.57 3.15,-3.52c3.93,-4.63 8.14,-8.91 12.4,-13.2c0.83,-0.83 1.66,-1.66 2.51,-2.52c2.72,-2.72 5.44,-5.43 8.17,-8.15c1.89,-1.89 3.79,-3.78 5.68,-5.68c4.47,-4.46 8.93,-8.92 13.4,-13.4c5.09,-5.08 10.2,-10.2 15.3,-15.2c10.4,-10.4 20.9,-20.9 31.4,-31.3c-1.41,-3.2 -3.1,-5.34 -5.57,-7.81c-0.74,-0.74 -1.49,-1.48 -2.25,-2.25c-0.81,-0.8 -1.63,-1.61 -2.47,-2.44l-2.59,-2.59c-1.87,-1.86 -3.73,-3.72 -5.6,-5.57c-2.96,-2.94 -5.91,-5.88 -8.87,-8.83c-4.67,-4.67 -9.35,-9.33 -14,-14c-8.37,-8.33 -16.7,-16.7 -25.1,-25c-2.93,-2.92 -5.86,-5.83 -8.79,-8.75c-2.27,-2.25 -4.53,-4.51 -6.8,-6.77c-0.8,-0.79 -1.6,-1.59 -2.43,-2.41c-3.44,-3.43 -6.79,-6.87 -9.95,-10.5c-4.2,-4.89 -8.75,-9.41 -13.3,-14c-0.96,-0.97 -1.93,-1.94 -2.89,-2.9c-2.59,-2.61 -5.19,-5.2 -7.78,-7.8c-1.63,-1.62 -3.25,-3.25 -4.87,-4.87c-5.66,-5.67 -11.3,-11.3 -17,-17c-5.28,-5.28 -10.6,-10.6 -15.8,-15.9c-4.53,-4.55 -9.07,-9.09 -13.6,-13.6c-2.71,-2.71 -5.42,-5.42 -8.12,-8.14l-7.62,-7.62c-1.39,-1.38 -2.76,-2.76 -4.14,-4.15c-0.82,-0.81 -1.63,-1.63 -2.48,-2.46c-0.71,-0.72 -1.42,-1.43 -2.15,-2.16c-2.1,-1.8 -2.93,-2.19 -5.13,-0.39zM-88,981c-1.11,1.03 -2.21,2.05 -3.32,3.07c-0.54,0.5 -1.08,0.99 -1.63,1.51c-1.81,1.65 -3.64,3.26 -5.49,4.86c-4.9,4.25 -9.66,8.66 -14.4,13.1c-1.48,1.36 -2.97,2.7 -4.46,4.04c-11.1,10 -21.6,20.8 -32.1,31.4c1.65,4.26 4.83,7.1 8.01,10.2c0.62,0.61 1.23,1.23 1.86,1.86c2.03,2.03 4.07,4.05 6.11,6.07c1.41,1.41 2.82,2.81 4.23,4.22c3.7,3.7 7.42,7.4 11.1,11.1c3.79,3.77 7.58,7.55 11.4,11.3c7.43,7.41 14.9,14.8 22.3,22.2c5.32,-4.5 5.32,-4.5 10.4,-9.24c0.86,-0.85 0.86,-0.85 1.75,-1.71c2.59,-2.55 5.19,-5.1 7.77,-7.66c1.35,-1.34 2.71,-2.67 4.08,-4c12.9,-12.6 22.7,-24.4 23.4,-43.3c-0.54,-20.3 -12.3,-32.6 -26,-46c-2.33,-2.28 -4.64,-4.58 -6.95,-6.88c-1.47,-1.45 -2.94,-2.91 -4.41,-4.36c-0.69,-0.69 -1.39,-1.37 -2.1,-2.08c-0.64,-0.63 -1.28,-1.25 -1.94,-1.9c-0.56,-0.55 -1.12,-1.1 -1.7,-1.67c-3.11,-2.76 -5.52,1.67 -7.89,3.88zM-221,1111c-0.6,0.61 -1.21,1.22 -1.82,1.85c-0.64,0.63 -1.27,1.26 -1.93,1.92c-2.1,2.1 -4.2,4.22 -6.29,6.33l-4.37,4.37c-3.83,3.84 -7.66,7.69 -11.5,11.5c-3.9,3.93 -7.81,7.85 -11.7,11.8c-7.68,7.7 -15.4,15.4 -23,23.1c4.32,5.17 8.86,9.99 13.6,14.7c1.11,1.11 1.11,1.11 2.25,2.24c1.59,1.59 3.19,3.18 4.79,4.77c2.53,2.52 5.05,5.04 7.57,7.56c5.35,5.33 10.7,10.7 16.1,16c6.23,6.2 12.4,12.4 18.7,18.6c2.49,2.48 4.99,4.96 7.48,7.45c1.52,1.51 3.04,3.02 4.56,4.54c1.04,1.04 1.04,1.04 2.11,2.1l1.91,1.91c0.56,0.55 1.11,1.1 1.68,1.67c1.29,1.41 1.29,1.41 2.29,3.41h2c0.21,0.53 0.42,1.07 0.64,1.62c1.89,3.31 4.5,5.8 7.18,8.48c0.6,0.6 1.2,1.21 1.82,1.84c2.02,2.04 4.05,4.07 6.07,6.1c1.45,1.46 2.9,2.91 4.35,4.37c3.94,3.97 7.89,7.93 11.8,11.9c2.46,2.47 4.93,4.95 7.4,7.42c7.72,7.75 15.4,15.5 23.2,23.2c8.92,8.93 17.8,17.9 26.7,26.8c6.88,6.92 13.8,13.8 20.7,20.7c4.11,4.12 8.23,8.25 12.3,12.4c3.86,3.9 7.74,7.78 11.6,11.6c1.41,1.42 2.83,2.84 4.24,4.27c10.7,10.8 21.6,20.3 37.6,20.6c8.48,-0.02 15.6,-0.32 23.3,-4.38c0.92,-0.47 1.84,-0.95 2.79,-1.44c12.2,-6.99 18.5,-17.3 22.8,-30.4c2.28,-12.5 0.44,-25 -6.3,-35.8c-7.09,-9.69 -15.8,-18 -24.3,-26.5l-11.1,-11.1c-4,-3.99 -8,-7.99 -12,-12c-8.49,-8.48 -17,-17 -25.5,-25.4c-9.18,-9.16 -18.4,-18.3 -27.5,-27.5c-3.98,-3.97 -7.95,-7.93 -11.9,-11.9c-2.48,-2.47 -4.95,-4.94 -7.43,-7.41l-3.42,-3.42c-5.29,-5.26 -10.5,-10.5 -15.4,-16.2c-3.59,-4.06 -7.47,-7.85 -11.3,-11.7c-0.94,-0.95 -1.88,-1.89 -2.83,-2.84c-2.53,-2.55 -5.08,-5.09 -7.62,-7.64l-4.77,-4.77c-5.54,-5.55 -11.1,-11.1 -16.6,-16.6c-5.18,-5.17 -10.3,-10.4 -15.5,-15.5c-4.44,-4.45 -8.88,-8.9 -13.3,-13.4c-2.65,-2.65 -5.31,-5.31 -7.95,-7.97c-2.95,-2.95 -5.9,-5.9 -8.85,-8.84c-1.32,-1.33 -1.32,-1.33 -2.67,-2.69c-0.8,-0.79 -1.6,-1.59 -2.42,-2.41c-0.7,-0.7 -1.4,-1.39 -2.11,-2.11c-3.66,-3.13 -5.23,-0.21 -8.1,2.64z"></path><path transform="translate(1282,99)" d="M0,0c12,7.08 19.8,16.7 24,30c2.89,14.2 0.45,26.6 -6.91,38.9c-3.42,5.08 -7.56,9.27 -11.9,13.6c-0.97,0.97 -1.94,1.95 -2.91,2.93c-2.6,2.62 -5.22,5.23 -7.84,7.83c-2.76,2.75 -5.51,5.5 -8.26,8.26c-4.62,4.62 -9.24,9.23 -13.9,13.8c-5.34,5.3 -10.7,10.6 -16,16c-5.14,5.15 -10.3,10.3 -15.4,15.4c-2.18,2.17 -4.35,4.35 -6.53,6.53c-2.56,2.57 -5.14,5.14 -7.72,7.69c-1.38,1.37 -2.75,2.76 -4.13,4.14c-11.6,11.4 -23.7,17.2 -39.9,17.2c-12.4,-0.2 -22.2,-5.17 -31.6,-13.2c-9.35,-10.7 -13.4,-22.3 -13.3,-36.5c1.21,-15.7 10.2,-27.1 21,-37.9c0.97,-0.97 1.94,-1.95 2.9,-2.92c2.6,-2.62 5.21,-5.23 7.83,-7.84c2.19,-2.19 4.38,-4.38 6.56,-6.57c5.17,-5.18 10.3,-10.4 15.5,-15.5c5.32,-5.3 10.6,-10.6 15.9,-16c4.57,-4.6 9.15,-9.19 13.7,-13.8c2.73,-2.72 5.46,-5.45 8.18,-8.19c2.55,-2.57 5.12,-5.14 7.7,-7.69c1.38,-1.37 2.74,-2.75 4.11,-4.14c15.4,-15.2 38.3,-22.8 58.8,-12.1z"></path><path transform="translate(366,1024)" d="M0,0c0.72,0.61 1.44,1.22 2.18,1.84c0.64,0.55 1.29,1.1 1.95,1.66c8.38,7.74 13.7,18 14.3,29.4c0.25,8.04 0,15.5 -3.28,22.9c-0.54,1.29 -0.54,1.29 -1.08,2.59c-3.65,7.67 -9.11,13 -15.2,18.8c-2.72,2.35 -2.72,2.35 -3.73,4.65h-2c-0.34,0.83 -0.34,0.83 -0.68,1.67c-1.72,3.03 -4,5.3 -6.44,7.74c-0.78,0.79 -0.78,0.79 -1.58,1.6c-1.72,1.74 -3.45,3.47 -5.18,5.2c-1.21,1.22 -2.41,2.43 -3.62,3.64c-2.53,2.55 -5.07,5.09 -7.6,7.62c-3.24,3.24 -6.46,6.48 -9.67,9.73c-2.49,2.52 -4.99,5.02 -7.49,7.52c-1.19,1.19 -2.38,2.39 -3.56,3.59c-11.6,11.7 -23.6,20.7 -40.8,20.9c-11.9,-0.13 -23,-3.73 -32,-11.7c-10.7,-11.4 -15.2,-24.1 -14.8,-39.5c0.33,-5.77 1.94,-10.8 4.32,-16c0.35,-0.79 0.7,-1.58 1.07,-2.39c2.83,-5.37 6.71,-9.73 10.9,-14.1c0.63,-0.68 1.26,-1.35 1.92,-2.04c10.5,-11.1 21.3,-21.9 32.1,-32.7c3.25,-3.26 6.49,-6.53 9.73,-9.81c2.52,-2.55 5.06,-5.09 7.6,-7.64c1.19,-1.2 2.39,-2.4 3.58,-3.61c18.7,-19 45.1,-30 69,-11.6z"></path><path transform="translate(1012,13)" d="M0,0c9.27,8.53 13.9,19.1 14.8,31.6c0.07,2.68 0.09,5.35 0.08,8.03c0.01,1 0.02,2.01 0.02,3.05c0.01,3.29 0.01,6.59 0.01,9.89c0,2.31 0.01,4.62 0.01,6.93c0.01,4.83 0.01,9.67 0.01,14.5c-0.01,6.17 0.01,12.3 0.03,18.5c0.01,4.77 0.02,9.54 0.01,14.3c0,2.27 0.01,4.54 0.02,6.82c0.07,18.8 -1.01,34 -14.3,48.5c-10.3,9.54 -22.2,12.8 -36,12.9c-13.2,-0.84 -24.1,-7.47 -33,-17c-11.5,-13.7 -10.6,-29.2 -10.5,-46.1v-7.34c0,-5.11 0.01,-10.2 0.03,-15.3c0.03,-6.53 0.03,-13.1 0.02,-19.6c-0.01,-5.05 0,-10.1 0.01,-15.1v-7.23c0,-3.37 0.01,-6.74 0.04,-10.1c-0.01,-0.98 -0.01,-1.97 -0.02,-2.98c0.14,-13.1 5.02,-24.3 13.9,-33.9c19.1,-16.9 45.5,-16.5 64.8,-0.25z"></path><path transform="translate(1255,376)" d="M0,0c0.93,-0.01 1.87,-0.01 2.83,-0.02h3.08c1.08,-0.01 2.15,-0.01 3.26,-0.02c3.57,-0.01 7.14,-0.02 10.7,-0.02c2.48,-0.01 4.97,-0.01 7.45,-0.02c5.2,-0.01 10.4,-0.02 15.6,-0.02c6.66,0 13.3,-0.03 20,-0.06c5.13,-0.02 10.3,-0.02 15.4,-0.02c2.45,-0.01 4.9,-0.01 7.36,-0.03c3.44,-0.01 6.88,-0.01 10.3,-0.01c1.51,-0.01 1.51,-0.01 3.05,-0.02c13,0.07 23.4,4.67 33,13.4c8.68,9.13 12.6,20.5 13.6,32.8c-0.43,12.4 -5.13,24.4 -13.6,33.6c-11.6,10.7 -24.3,13.8 -39.6,13.8c-0.97,0 -1.93,0 -2.93,0.01c-3.19,0.01 -6.38,0.01 -9.57,0.01c-2.22,0 -4.45,0 -6.68,0.01c-4.67,0 -9.33,0.01 -14,0.01c-5.96,0 -11.9,0.01 -17.9,0.03c-4.6,0.01 -9.2,0.01 -13.8,0.01c-2.2,0 -4.4,0 -6.59,0.01c-3.08,0.01 -6.16,0.01 -9.25,0c-1.34,0.01 -1.34,0.01 -2.71,0.02c-15.2,-0.07 -26.4,-4.37 -37.5,-14.9c-9.15,-9.63 -12.9,-21.2 -12.7,-34.4c0.63,-13.7 6.34,-24.4 16.2,-33.8c7.03,-5.79 15.7,-10.3 24.9,-10.3z"></path></g></g></svg>