<svg version="1.1" xmlns="http://www.w3.org/2000/svg" xmlns:xlink="http://www.w3.org/1999/xlink" width="1280" height="1280" viewBox="0,0,256,256"><g fill="#613c7f" fill-rule="nonzero" stroke="none" stroke-width="1" stroke-linecap="butt" stroke-linejoin="miter" stroke-miterlimit="10" stroke-dasharray="" stroke-dashoffset="0" font-family="none" font-weight="none" font-size="none" text-anchor="none" style="mix-blend-mode: normal"><g transform="translate(0.01775,-0.05539) scale(0.16,0.16)"><path transform="translate(936,93)" d="M0,0c0.85,0.16 1.69,0.33 2.57,0.5c5.49,1.08 11,2.27 16.4,3.5c1.71,0.38 1.71,0.38 3.45,0.77c14.6,3.31 29.2,6.71 43.6,11.2l3.84,1.17c24.2,7.41 48.4,15.3 71.5,25.7c2.16,0.93 4.32,1.83 6.5,2.71c7.99,3.22 15.8,6.62 23.4,10.6c3.58,1.83 7.22,3.52 10.9,5.22c7.26,3.38 14.3,6.9 21.2,11c2.65,1.59 5.33,3.08 8.06,4.55c13.6,7.37 27.1,15.1 39.8,23.9c1.91,1.3 1.91,1.3 4.8,2.13v2c0.93,0.27 1.86,0.54 2.81,0.81c3.05,1.14 4.09,1.89 6.19,4.19c0.99,0.33 1.98,0.66 3,1v2c0.73,0.27 1.46,0.53 2.21,0.8c2.78,1.2 4.96,2.56 7.41,4.32c0.87,0.62 1.73,1.24 2.62,1.88c1.37,0.99 1.37,0.99 2.76,2c0.96,0.69 1.93,1.38 2.92,2.1c4.44,3.21 8.81,6.46 13.1,9.9c2.23,1.76 4.46,3.5 6.69,5.25c5.02,3.94 10,7.91 15,11.9c2.35,1.87 4.73,3.7 7.12,5.53c3.32,2.57 6.25,5.3 9.19,8.31c4.49,4.13 9.03,8.18 13.7,12.1c4.99,4.33 9.58,9.1 14.2,13.8c0.63,0.64 1.26,1.28 1.9,1.94c0.57,0.58 1.14,1.15 1.72,1.75c1.45,1.48 1.45,1.48 3.48,2.38v2h2c1.3,1.33 1.3,1.33 2.88,3.25c3.2,3.78 6.59,7.28 10.1,10.8c4.55,4.5 8.85,9.13 13,14c1.33,1.5 2.66,3 4,4.5c0.68,0.76 1.35,1.52 2.05,2.31c1.18,1.33 2.37,2.65 3.56,3.98c8.46,9.51 16.4,19.5 24.2,29.6c0.81,1.03 1.62,2.07 2.46,3.14c1.73,2.48 1.73,2.48 1.73,4.48h2c1.23,1.58 1.23,1.58 2.62,3.81c2.34,3.63 4.77,7.15 7.32,10.6c16.1,22 16.1,22 16.1,25.6h2c0.55,1.03 0.55,1.03 1.1,2.09c2.39,4.46 4.78,8.86 7.65,13c3.93,5.75 7.36,11.8 10.9,17.8c1.82,3.12 3.68,6.2 5.58,9.27c2.57,4.27 4.8,8.68 6.99,13.2c1.98,4.01 4.04,7.96 6.16,11.9c4.4,8.15 8.25,16.4 11.9,24.9c1.18,2.74 2.46,5.44 3.73,8.14c11,23.7 19.8,48.2 27.9,73c0.8,2.42 1.62,4.84 2.45,7.25c3.35,9.75 5.94,19.6 8.37,29.6c0.39,1.56 0.78,3.13 1.16,4.69c0.74,3.01 1.48,6.02 2.22,9.03c0.86,3.55 1.76,7.09 2.65,10.6c1.22,4.88 2.31,9.77 3.29,14.7c0.25,1.27 0.25,1.27 0.5,2.56c10.8,55.3 15.7,112 12.7,169c-0.04,0.87 -0.09,1.74 -0.13,2.63c-0.32,5.98 -0.65,12 -0.99,17.9c-0.11,1.96 -0.11,1.96 -0.23,3.95c-1.67,28 -5.41,55.6 -10.8,83c-0.16,0.85 -0.33,1.69 -0.5,2.57c-1.08,5.49 -2.27,11 -3.5,16.4c-0.37,1.66 -0.37,1.66 -0.74,3.35c-3.54,15.9 -7.52,31.6 -12.5,47.2c-0.95,3.04 -1.82,6.1 -2.69,9.17c-2.15,7.59 -4.71,15 -7.5,22.4c-1.87,4.95 -3.59,9.92 -5.21,15c-1.7,5.17 -3.67,10 -6,14.9c-1.76,3.9 -3.24,7.88 -4.76,11.9c-2.61,6.87 -5.57,13.4 -8.94,19.9c-1.63,3.19 -3.14,6.41 -4.62,9.67c-8.08,17.7 -17.1,34.9 -27.1,51.6c-1.1,1.92 -2.21,3.83 -3.31,5.75c-3.31,5.69 -6.79,11.3 -10.3,16.8c-1.95,3.08 -3.85,6.11 -5.38,9.43h-2c-0.25,0.68 -0.49,1.36 -0.75,2.06c-1.49,3.51 -3.32,6.66 -5.25,9.94h-2c-0.27,0.74 -0.54,1.47 -0.82,2.23c-1.14,2.67 -2.4,4.7 -4.11,7.02c-0.57,0.77 -1.14,1.55 -1.72,2.34c-0.59,0.8 -1.18,1.59 -1.79,2.41c-3.37,4.58 -6.69,9.08 -9.56,14c-0.98,1.02 -1.98,2.02 -3,3l-1,2h-2c-0.34,1.05 -0.34,1.05 -0.68,2.12c-1.61,3.51 -3.85,6.14 -6.38,9c-1,1.16 -2,2.31 -2.99,3.47c-0.5,0.57 -1,1.15 -1.51,1.74c-5.06,5.88 -9.88,12 -14.7,18c-2.74,3.43 -5.6,6.55 -8.75,9.62c-1.74,1.96 -3.45,3.94 -5.16,5.94c-1.71,1.92 -3.51,3.74 -5.33,5.56c-1.67,1.66 -3.33,3.33 -4.98,5.01c-3.49,3.51 -6.98,7.03 -10.5,10.5c-1.51,1.52 -3.01,3.03 -4.51,4.55c-2.17,2.2 -4.35,4.39 -6.53,6.58c-0.67,0.68 -1.35,1.36 -2.04,2.07c-0.63,0.62 -1.25,1.25 -1.89,1.89c-0.55,0.56 -1.1,1.11 -1.67,1.68c-1.42,1.18 -1.42,1.18 -3.42,1.18l-1,3c-1.53,1.54 -1.53,1.54 -3.5,3.19c-0.73,0.61 -1.45,1.23 -2.2,1.86c-0.76,0.64 -1.52,1.29 -2.3,1.95c-1.44,1.29 -2.88,2.58 -4.31,3.88c-4.15,3.69 -8.43,7.21 -12.8,10.7c-2.04,1.67 -4.05,3.35 -6.04,5.07c-6.22,5.38 -12.6,10.4 -19.3,15.1c-2.78,1.93 -5.2,3.88 -7.58,6.26c-2.17,1.61 -4.35,3.19 -6.56,4.75c-0.62,0.44 -1.24,0.88 -1.88,1.33c-1.26,0.88 -2.51,1.77 -3.77,2.66c-1.63,1.15 -3.25,2.31 -4.86,3.47c-0.89,0.63 -1.77,1.26 -2.68,1.91c-0.78,0.56 -1.56,1.12 -2.36,1.7c-1.89,1.18 -1.89,1.18 -3.89,1.18v2c-3.94,2.32 -7.69,4.43 -12,6v2c-0.69,0.36 -1.38,0.73 -2.09,1.1c-5.38,2.88 -10.5,5.9 -15.5,9.33c-7.26,4.8 -15,8.92 -22.6,13c-2.85,1.57 -5.65,3.23 -8.45,4.9c-11.9,6.99 -24.6,12.7 -37.1,18.7c-4.52,2.15 -9.02,4.33 -13.5,6.6c-3.88,1.95 -7.78,3.57 -11.9,5.03c-5.92,2.14 -11.7,4.48 -17.5,6.94c-12,5.09 -24,9.47 -36.4,13.4l-5.07,1.62c-3.82,1.22 -7.65,2.43 -11.5,3.62c-1.78,0.55 -3.57,1.12 -5.36,1.68c-8.48,2.67 -17,4.95 -25.6,7.14c-1.34,0.34 -2.67,0.69 -4,1.03c-3.81,0.98 -7.63,1.94 -11.4,2.91c-1.1,0.28 -2.2,0.57 -3.34,0.86c-5.69,1.45 -11.4,2.74 -17.2,3.7c-0.72,0.13 -1.45,0.25 -2.19,0.38c-4.14,0.71 -8.29,1.38 -12.4,2.06c-4.31,0.71 -8.58,1.55 -12.9,2.44c-7.38,1.5 -14.8,2.63 -22.3,3.56c-0.99,0.12 -0.99,0.12 -2.01,0.25c-41.2,5.07 -83.3,7.15 -125,4.75c-1.18,-0.07 -1.18,-0.07 -2.38,-0.14c-19.5,-1.12 -39,-2.43 -58.4,-4.86c-1.23,-0.15 -2.47,-0.31 -3.74,-0.47c-7.46,-0.98 -14.8,-2.31 -22.2,-3.85c-4.02,-0.82 -8.07,-1.49 -12.1,-2.15c-3.92,-0.64 -7.82,-1.3 -11.7,-1.97c-0.66,-0.11 -1.33,-0.22 -2.01,-0.33c-6.25,-1.08 -12.4,-2.66 -18.5,-4.23c-1.3,-0.33 -2.6,-0.65 -3.9,-0.97c-16,-3.99 -32,-8.01 -47.6,-13.5c-4.35,-1.53 -8.75,-2.8 -13.2,-4.05c-9.01,-2.58 -17.6,-5.97 -26.3,-9.5c-1.05,-0.43 -2.1,-0.85 -3.19,-1.29c-5.83,-2.37 -11.7,-4.75 -17.5,-7.14c-3.59,-1.47 -7.19,-2.93 -10.8,-4.33c-13.3,-5.16 -25.8,-11.8 -38.4,-18.5c-5.22,-2.76 -10.5,-5.42 -15.8,-8.03c-4.62,-2.28 -9.09,-4.65 -13.4,-7.48c-2.38,-1.51 -4.86,-2.82 -7.35,-4.15c-4.31,-2.31 -8.34,-4.86 -12.4,-7.62c-3.61,-2.37 -7.4,-4.38 -11.2,-6.44c-2.34,-1.32 -4.67,-2.66 -7,-4v-2c-0.68,-0.25 -1.36,-0.49 -2.06,-0.75c-3.51,-1.49 -6.66,-3.32 -9.94,-5.25v-2c-0.74,-0.27 -1.47,-0.54 -2.23,-0.82c-2.67,-1.14 -4.7,-2.4 -7.02,-4.11c-0.77,-0.57 -1.55,-1.14 -2.34,-1.72c-0.8,-0.59 -1.59,-1.18 -2.41,-1.79c-4.58,-3.37 -9.08,-6.69 -14,-9.56c-1.02,-0.98 -2.02,-1.98 -3,-3l-2,-1v-2c-0.7,-0.23 -1.4,-0.45 -2.12,-0.68c-3.51,-1.61 -6.14,-3.85 -9,-6.38c-1.16,-1 -2.31,-2 -3.47,-2.99c-0.57,-0.5 -1.15,-1 -1.74,-1.51c-5.88,-5.06 -12,-9.88 -18,-14.7c-3.43,-2.74 -6.55,-5.6 -9.62,-8.75c-2.13,-1.83 -4.27,-3.65 -6.43,-5.45c-0.52,-0.51 -1.03,-1.02 -1.57,-1.55v-2c-0.59,-0.26 -1.18,-0.53 -1.78,-0.8c-2.32,-1.25 -3.84,-2.57 -5.7,-4.42c-0.66,-0.66 -1.32,-1.31 -2,-1.99c-0.71,-0.7 -1.41,-1.41 -2.13,-2.13l-2.2,-2.2c-1.53,-1.53 -3.06,-3.06 -4.59,-4.6c-2.35,-2.36 -4.71,-4.71 -7.06,-7.05c-1.49,-1.49 -2.98,-2.98 -4.46,-4.47c-0.71,-0.7 -1.42,-1.41 -2.15,-2.13c-0.65,-0.66 -1.3,-1.31 -1.96,-1.99c-0.58,-0.57 -1.15,-1.15 -1.74,-1.74c-1.23,-1.48 -1.23,-1.48 -1.23,-3.48c-0.99,-0.33 -1.98,-0.66 -3,-1c-1.54,-1.53 -1.54,-1.53 -3.19,-3.5c-0.61,-0.73 -1.23,-1.45 -1.86,-2.2c-0.64,-0.76 -1.29,-1.52 -1.95,-2.3c-1.29,-1.44 -2.58,-2.88 -3.88,-4.31c-3.69,-4.15 -7.2,-8.42 -10.7,-12.7c-2.2,-2.68 -4.43,-5.32 -6.68,-7.96c-12.8,-15 -12.8,-15 -12.8,-18h-2c-0.27,-0.6 -0.54,-1.2 -0.81,-1.81c-1.03,-2.16 -1.03,-2.16 -2.47,-3.42c-2.47,-2.54 -4.43,-5.44 -6.47,-8.33c-0.44,-0.62 -0.88,-1.24 -1.33,-1.88c-0.88,-1.26 -1.77,-2.51 -2.66,-3.77c-1.15,-1.63 -2.31,-3.25 -3.47,-4.86c-0.95,-1.33 -0.95,-1.33 -1.91,-2.68c-0.84,-1.17 -0.84,-1.17 -1.7,-2.36c-1.18,-1.89 -1.18,-1.89 -1.18,-3.89h-2c-2.32,-3.94 -4.43,-7.69 -6,-12h-2c-0.36,-0.69 -0.73,-1.38 -1.1,-2.09c-2.92,-5.46 -5.98,-10.7 -9.47,-15.8c-4.61,-6.79 -8.55,-13.9 -12.4,-21.1c-2.96,-5.49 -5.95,-10.9 -9.19,-16.2c-5.11,-8.7 -9.25,-17.9 -13.5,-27c-1.12,-2.37 -2.24,-4.75 -3.37,-7.12c-3.09,-6.53 -6.01,-13.1 -8.73,-19.8c-1.14,-2.71 -2.36,-5.35 -3.62,-8c-2.45,-5.31 -4.36,-10.8 -6.26,-16.3c-1.59,-4.59 -3.31,-9.09 -5.18,-13.6c-10.2,-25.2 -17,-51.7 -23.4,-78.1c-0.73,-2.98 -1.49,-5.95 -2.24,-8.92c-15.1,-60.2 -19.9,-126 -16.6,-187c0.04,-0.87 0.09,-1.73 0.13,-2.63c0.28,-5.17 0.56,-10.4 0.86,-15.5c0.12,-2.05 0.23,-4.1 0.34,-6.16c1.89,-34 7.35,-68 14.8,-101c0.26,-1.14 0.51,-2.29 0.78,-3.47c3.3,-14.6 6.7,-29.2 11.2,-43.5l1.17,-3.84c17.9,-58.4 17.9,-58.4 29.7,-81c1.14,-2.26 2.07,-4.53 2.99,-6.89c10.6,-27.2 25.5,-53.7 41.1,-78.3c1.31,-2.14 2.63,-4.29 3.94,-6.44c9.81,-15.9 20.3,-31.2 31.4,-46.3c1.7,-2.33 1.7,-2.33 3.21,-5.1c0.47,-0.72 0.93,-1.45 1.41,-2.2h2c0.22,-0.7 0.45,-1.39 0.68,-2.11c1.63,-3.56 3.94,-6.24 6.51,-9.14c1,-1.16 2,-2.31 2.99,-3.47c0.49,-0.56 0.97,-1.12 1.47,-1.7c3.56,-4.18 6.84,-8.59 10.2,-13c3.2,-4.16 6.44,-7.95 10.2,-11.6c4.13,-4.49 8.18,-9.03 12.1,-13.7c4.33,-4.99 9.1,-9.58 13.8,-14.2c0.64,-0.63 1.28,-1.26 1.94,-1.9c0.87,-0.86 0.87,-0.86 1.75,-1.72c1.48,-1.45 1.48,-1.45 2.38,-3.48h2v-2c1.33,-1.3 1.33,-1.3 3.25,-2.88c3.78,-3.2 7.28,-6.59 10.8,-10.1c3.87,-3.92 7.78,-7.7 12,-11.3c3.39,-2.91 6.64,-5.97 9.92,-9.01c2.1,-1.72 2.1,-1.72 4.1,-1.72v-2c1.91,-1.78 1.91,-1.78 4.62,-3.94c1.51,-1.2 1.51,-1.2 3.04,-2.42c1.11,-0.88 2.22,-1.76 3.34,-2.64c0.58,-0.46 1.15,-0.91 1.75,-1.38c3.54,-2.8 7.08,-5.58 10.6,-8.35c1.48,-1.17 2.96,-2.35 4.43,-3.52c0.8,-0.64 1.6,-1.28 2.43,-1.94c0.69,-0.55 1.37,-1.1 2.08,-1.67c1.67,-1.14 1.67,-1.14 3.67,-1.14v-2c1.58,-1.23 1.58,-1.23 3.81,-2.62c3.72,-2.4 7.32,-4.89 10.9,-7.5c10.8,-7.88 10.8,-7.88 13.3,-7.88v-2c2.12,-1.51 2.12,-1.51 4.88,-3.12c0.9,-0.54 1.8,-1.08 2.74,-1.64c2.38,-1.24 2.38,-1.24 4.38,-1.24v-2c1.03,-0.55 1.03,-0.55 2.09,-1.1c4.46,-2.39 8.86,-4.78 13,-7.65c5.75,-3.93 11.8,-7.36 17.8,-10.9c3.12,-1.82 6.2,-3.68 9.27,-5.58c4.27,-2.57 8.68,-4.8 13.2,-6.99c4.01,-1.98 7.96,-4.04 11.9,-6.16c8.15,-4.4 16.4,-8.25 24.9,-11.9c2.74,-1.18 5.44,-2.46 8.14,-3.73c20,-9.27 40.6,-17.1 61.4,-24.3c2.09,-0.72 4.18,-1.44 6.26,-2.17c8.71,-2.97 17.5,-5.5 26.4,-7.9c3,-0.81 6.01,-1.63 9.01,-2.45c51.2,-14 103,-21.2 156,-24.3c0.71,-0.04 1.42,-0.08 2.15,-0.12c55.5,-3.18 112,1.49 167,12.1zM-287,107c-1.62,0.46 -3.24,0.93 -4.86,1.39c-0.83,0.24 -1.66,0.47 -2.51,0.72c-3.21,0.89 -6.42,1.72 -9.65,2.53c-10.1,2.59 -20,5.69 -29.9,9.17c-0.86,0.3 -1.72,0.61 -2.61,0.92c-27.9,9.89 -55.6,20.8 -81.6,35.1c-2.74,1.47 -5.55,2.8 -8.35,4.15c-6.72,3.33 -13.2,7.04 -19.7,10.8c-1.01,0.58 -2.01,1.16 -3.05,1.76c-5.7,3.34 -11.2,6.87 -16.6,10.7c-2.95,2.06 -6,3.77 -9.15,5.5c-2.83,1.51 -2.83,1.51 -5,3v2c-0.57,0.1 -1.13,0.2 -1.71,0.31c-2.74,0.83 -4.54,2.08 -6.85,3.75c-0.87,0.63 -1.74,1.25 -2.64,1.89c-0.92,0.68 -1.85,1.35 -2.8,2.05c-0.99,0.72 -1.97,1.43 -2.99,2.17c-1.89,1.37 -3.78,2.75 -5.66,4.13c-1.76,1.27 -3.55,2.5 -5.35,3.7v2c-0.54,0.07 -1.09,0.14 -1.65,0.21c-3.31,1.11 -5.34,3.08 -7.97,5.35c-1.08,0.92 -2.15,1.84 -3.22,2.75c-0.8,0.69 -0.8,0.69 -1.62,1.39c-2.18,1.84 -4.42,3.6 -6.66,5.36c-4.32,3.43 -8.42,7.06 -12.5,10.8c-2.24,2.04 -4.49,4.06 -6.77,6.06c-0.6,0.53 -1.21,1.06 -1.83,1.61c-1.79,1.51 -1.79,1.51 -4.02,3.08c-0.87,0.71 -0.87,0.71 -1.77,1.43v2l-4,2v2l-4,2v2c-0.58,0.26 -1.16,0.51 -1.76,0.77c-2.47,1.36 -4.14,2.87 -6.13,4.85l-2.15,2.15c-0.73,0.73 -1.46,1.47 -2.21,2.23c-0.75,0.74 -1.49,1.47 -2.26,2.23c-0.7,0.71 -1.41,1.42 -2.13,2.15c-0.65,0.64 -1.29,1.29 -1.95,1.96c-1.63,1.55 -1.63,1.55 -1.41,3.66l-4,2v2c-0.99,0.33 -1.98,0.66 -3,1c-1.48,1.38 -1.48,1.38 -2.94,3.19c-0.61,0.72 -1.23,1.45 -1.86,2.2c-0.73,0.86 -1.45,1.72 -2.2,2.61c-0.89,1.03 -1.78,2.06 -2.67,3.08c-7.14,8.25 -14.1,16.6 -20.9,25.2c-0.96,1.17 -1.93,2.32 -2.93,3.46c-2.91,3.15 -2.91,3.15 -3.51,7.3c-0.99,0.33 -1.98,0.66 -3,1v3h197c4.81,-9.61 4.81,-9.61 9.42,-19.3c3.08,-6.63 6.21,-13.1 10.1,-19.2c1.83,-3.07 3.39,-6.25 4.96,-9.45c2.46,-5.02 5.11,-9.84 8.05,-14.6c1.49,-2.47 2.85,-4.98 4.2,-7.52c2.97,-5.53 6.29,-10.8 9.64,-16.1c2.21,-3.5 4.34,-7 6.3,-10.7c2.15,-3.98 4.68,-7.6 7.31,-11.3c2.3,-3.26 4.49,-6.58 6.69,-9.9c3.85,-5.81 7.8,-11.6 11.8,-17.2c0.52,-0.74 1.03,-1.47 1.57,-2.23c0.48,-0.69 0.96,-1.37 1.46,-2.07c0.43,-0.61 0.86,-1.22 1.3,-1.84c1.17,-1.55 1.17,-1.55 3.17,-3.55v-3c1.49,-0.5 1.49,-0.5 3,-1c1.39,-1.96 2.71,-3.97 4,-6c1.61,-2.12 3.22,-4.23 4.88,-6.31c0.69,-0.88 0.69,-0.88 1.4,-1.78c2.8,-3.55 5.66,-7.05 8.55,-10.5c0.64,-0.77 1.28,-1.54 1.94,-2.33c1.27,-1.52 2.54,-3.03 3.81,-4.54c0.58,-0.69 1.15,-1.38 1.74,-2.09c0.52,-0.61 1.04,-1.22 1.57,-1.85c1.3,-1.52 1.3,-1.52 1.11,-3.57c1.49,-0.5 1.49,-0.5 3,-1c1.64,-1.81 1.64,-1.81 3.31,-4.12c4.36,-5.64 9.17,-10.8 14.1,-15.9c0.59,-0.62 1.18,-1.24 1.79,-1.88c0.53,-0.55 1.07,-1.1 1.62,-1.67c1.37,-1.4 1.37,-1.4 1.16,-3.45c0.99,-0.33 1.98,-0.66 3,-1c1.65,-1.62 1.65,-1.62 3.25,-3.62c2.98,-3.53 6.11,-6.77 9.46,-9.93c1.51,-1.38 1.51,-1.38 1.29,-3.45c-4.65,-0.32 -8.72,0.89 -13.1,2.19zM-172,104.81c-2.35,1.48 -2.35,1.48 -4.81,3.69c-0.98,0.83 -1.95,1.66 -2.96,2.51c-0.52,0.45 -1.04,0.91 -1.58,1.37c-1.7,1.47 -3.42,2.93 -5.13,4.39c-6.21,5.26 -12.3,10.6 -18.3,16.1c-2.33,2.07 -4.74,4 -7.18,5.94c-2.27,2.02 -2.27,2.02 -4,4v2c-0.57,0.24 -1.13,0.48 -1.72,0.73c-2.73,1.52 -4.59,3.34 -6.8,5.56l-2.6,2.6c-0.89,0.91 -1.78,1.81 -2.69,2.73c-0.88,0.88 -1.76,1.76 -2.66,2.67c-4.5,4.52 -8.86,9.11 -13,14c-2.84,3.3 -5.83,6.47 -8.79,9.66c-1.93,1.9 -1.93,1.9 -1.72,4.1c-0.57,0.23 -1.15,0.46 -1.74,0.7c-2.85,1.64 -4.35,3.59 -6.38,6.18c-3.22,4.04 -6.48,8.04 -9.82,12c-3.63,4.36 -7.2,8.76 -10.7,13.2c-0.66,0.84 -0.66,0.84 -1.33,1.69c-2.34,2.77 -2.34,2.77 -3.05,6.19h-2c-1.37,1.72 -1.37,1.72 -2.73,3.95c-3.06,4.75 -6.31,9.31 -9.65,13.9c-4.59,6.34 -9.13,12.7 -13.4,19.3c-0.98,1.51 -1.95,3.02 -2.94,4.52c-1.94,2.98 -3.87,5.97 -5.8,8.96c-0.64,0.98 -1.27,1.96 -1.93,2.96c-0.59,0.93 -1.18,1.85 -1.79,2.8c-0.53,0.83 -1.07,1.66 -1.62,2.51c-1.4,2.2 -1.4,2.2 -1.16,5.17h-2c-0.48,0.87 -0.48,0.87 -0.96,1.76c-1.45,2.64 -2.9,5.28 -4.35,7.93c-0.75,1.37 -0.75,1.37 -1.52,2.76c-0.48,0.89 -0.97,1.77 -1.47,2.69c-0.45,0.81 -0.89,1.62 -1.35,2.46c-0.96,1.7 -1.97,3.37 -3.02,5.02c-1.57,2.36 -1.57,2.36 -1.33,5.38h-2c-1.32,2.58 -2.63,5.16 -3.94,7.75c-0.37,0.73 -0.74,1.46 -1.13,2.21c-0.36,0.71 -0.71,1.42 -1.08,2.15c-0.33,0.65 -0.66,1.3 -1,1.97c-0.87,1.96 -1.36,3.84 -1.85,5.92c24.6,0.02 49.2,0.04 73.9,0.05c11.4,0.01 22.9,0.01 34.3,0.03c9.96,0.01 19.9,0.01 29.9,0.01c5.28,0.01 10.6,0.01 15.8,0.02h14.9c1.82,0 3.65,0.01 5.48,0.01h7.44c0.74,0 1.47,0.01 2.22,0.01c3.33,0.28 3.33,0.28 6.08,-1.13c0.1,-2.98 0.13,-5.94 0.12,-8.93v-2.87c0,-3.2 0,-6.41 -0.01,-9.61v-6.86c0,-6.22 0,-12.4 -0.01,-18.7c0,-6.5 -0.01,-13 -0.01,-19.5c0,-10.9 -0.01,-21.8 -0.01,-32.8c-0.01,-11.2 -0.02,-22.5 -0.03,-33.7v-2.1v-10.4c-0.01,-28.8 -0.03,-57.7 -0.05,-86.5c-0.99,-0.33 -1.98,-0.66 -3,-1zM-102,104.81c-1.9,1.9 -1.13,4.67 -1.13,7.2v2.72v2.87c-0.01,3.2 0,6.4 0,9.6v6.86c-0.01,6.22 -0.01,12.4 0,18.7c0,6.49 0,13 -0.01,19.5c0,11.6 0.01,23.2 0.01,34.8c0.01,10.5 0,21.1 0,31.6c-0.01,12.2 -0.01,24.4 0,36.7c0,6.48 0,13 -0.01,19.4c0,6.09 0,12.2 0.01,18.3v6.72c-0.01,3.05 0,6.09 0,9.14v2.72c-0.38,3.92 -0.38,3.92 1.13,7.2c2.44,0.1 4.85,0.13 7.3,0.12h2.34c2.61,0 5.21,0 7.82,-0.01h5.59c5.07,0 10.1,0 15.2,-0.01c5.29,0 10.6,-0.01 15.9,-0.01c10,0 20.1,-0.01 30.1,-0.02c11.4,-0.01 22.8,-0.01 34.3,-0.02c23.5,-0.01 47,-0.03 70.5,-0.05c-0.68,-2.85 -1.52,-5.27 -2.85,-7.89c-0.36,-0.71 -0.71,-1.42 -1.08,-2.15c-0.37,-0.73 -0.75,-1.46 -1.13,-2.21c-0.38,-0.75 -0.76,-1.49 -1.15,-2.26c-0.92,-1.83 -1.86,-3.66 -2.79,-5.49h-2c-0.11,-0.73 -0.23,-1.46 -0.34,-2.21c-0.69,-2.9 -1.65,-4.85 -3.18,-7.39c-0.52,-0.87 -1.04,-1.75 -1.58,-2.65c-0.57,-0.93 -1.13,-1.86 -1.71,-2.81c-0.58,-0.97 -1.16,-1.94 -1.76,-2.94c-1.21,-2.01 -2.42,-4.02 -3.64,-6.03c-1.69,-2.8 -3.37,-5.62 -5.04,-8.44c-9.77,-16.5 -20.6,-32.1 -31.7,-47.7c-0.46,-0.64 -0.92,-1.29 -1.39,-1.95c-0.87,-1.21 -1.74,-2.42 -2.62,-3.63c-2.92,-4.07 -2.92,-4.07 -4.03,-6.29h-2c-0.28,-0.59 -0.56,-1.17 -0.84,-1.78c-1.1,-2.1 -2.28,-3.9 -3.7,-5.79c-0.49,-0.67 -0.99,-1.33 -1.5,-2.02c-0.52,-0.69 -1.05,-1.38 -1.58,-2.1c-0.54,-0.71 -1.07,-1.42 -1.63,-2.15c-3.57,-4.72 -7.29,-9.23 -11.3,-13.6c-1.43,-1.6 -1.43,-1.6 -2.43,-3.6h-2c-0.37,-0.84 -0.37,-0.84 -0.75,-1.69c-1.48,-2.73 -3.18,-4.99 -5.25,-7.31h-2c-0.24,-0.56 -0.48,-1.12 -0.73,-1.7c-1.54,-2.78 -3.42,-4.84 -5.58,-7.18c-2.63,-2.85 -5.21,-5.7 -7.63,-8.74c-0.68,-0.79 -1.36,-1.57 -2.06,-2.38h-2c-0.25,-0.57 -0.49,-1.14 -0.75,-1.73c-1.46,-2.65 -3.18,-4.46 -5.31,-6.6l-2.42,-2.42c-0.83,-0.82 -1.66,-1.65 -2.52,-2.5c-0.83,-0.84 -1.67,-1.68 -2.52,-2.55c-1.2,-1.19 -1.2,-1.19 -2.42,-2.4l-2.21,-2.21c-1.7,-1.81 -1.7,-1.81 -3.85,-1.59v-2c-1.55,-1.6 -1.55,-1.6 -3.56,-3.25c-0.73,-0.62 -1.46,-1.24 -2.21,-1.88c-0.74,-0.62 -1.47,-1.24 -2.23,-1.87c-4.18,-3.53 -8.13,-7.13 -12,-11c-5.61,-5.3 -11.5,-10.3 -17.5,-15.1c-0.61,-0.49 -1.22,-0.98 -1.85,-1.49c-2.97,-2.6 -2.97,-2.6 -6.65,-3.45zM2,104.81c1.35,3.04 2.84,5.04 5.25,7.31c3.07,2.97 5.82,6.07 8.49,9.4c0.41,0.43 0.83,0.85 1.26,1.29h2c0.26,0.59 0.53,1.17 0.8,1.77c1.26,2.34 2.62,3.94 4.47,5.84c0.96,1.01 0.96,1.01 1.94,2.04c0.68,0.69 1.35,1.39 2.04,2.1c4.56,4.71 8.77,9.4 12.5,14.8c0.41,0.48 0.82,0.96 1.24,1.46h2c0.25,0.56 0.5,1.12 0.75,1.7c1.46,2.69 3.21,4.83 5.19,7.18c16.8,20.3 16.8,20.3 24.1,31.1h2c0.11,0.59 0.23,1.18 0.35,1.78c0.7,2.4 1.59,3.76 3.13,5.72c0.5,0.66 1,1.31 1.52,1.98c0.54,0.69 1.07,1.37 1.62,2.08c4.13,5.39 8.03,10.8 11.6,16.6c2.23,3.59 4.56,7.1 6.9,10.6c0.41,0.61 0.82,1.23 1.24,1.86c2.03,3.05 4.11,6.05 6.26,9.01c2.02,2.81 3.72,5.68 5.32,8.76c1.87,3.5 3.81,6.84 6.06,10.1c2.66,3.91 4.94,7.92 7.17,12.1c1.46,2.72 2.94,5.43 4.44,8.14c4.99,9 9.87,18 14.4,27.3c1.29,2.59 2.58,5.17 3.88,7.75c0.6,1.2 1.2,2.41 1.8,3.61c0.77,1.53 1.53,3.06 2.32,4.64l8,16h197l-1,-4h-2c-0.07,-0.54 -0.14,-1.09 -0.21,-1.65c-1.11,-3.31 -3.08,-5.34 -5.35,-7.97c-0.92,-1.08 -1.84,-2.15 -2.75,-3.22c-0.46,-0.54 -0.92,-1.07 -1.39,-1.62c-1.84,-2.18 -3.6,-4.42 -5.36,-6.66c-3.43,-4.32 -7.06,-8.42 -10.8,-12.5c-2.04,-2.24 -4.06,-4.49 -6.06,-6.77c-0.53,-0.6 -1.06,-1.21 -1.61,-1.83c-1.51,-1.79 -1.51,-1.79 -3.08,-4.02c-0.71,-0.87 -0.71,-0.87 -1.43,-1.77h-2l-2,-4h-2c-0.26,-0.58 -0.51,-1.16 -0.77,-1.76c-1.36,-2.47 -2.87,-4.14 -4.85,-6.13l-2.15,-2.15c-0.73,-0.73 -1.47,-1.46 -2.23,-2.21c-0.74,-0.75 -1.47,-1.49 -2.23,-2.26c-1.06,-1.05 -1.06,-1.05 -2.15,-2.13c-0.64,-0.65 -1.29,-1.29 -1.96,-1.95c-1.55,-1.63 -1.55,-1.63 -3.66,-1.41l-2,-4h-2l-2,-4h-2l-1,-3c-1.38,-1.48 -1.38,-1.48 -3.19,-2.94c-0.72,-0.61 -1.45,-1.23 -2.2,-1.86c-0.86,-0.73 -1.72,-1.45 -2.61,-2.2c-1.03,-0.89 -2.06,-1.78 -3.08,-2.67c-8.25,-7.14 -16.6,-14.1 -25.2,-20.9c-1.17,-0.96 -2.32,-1.93 -3.46,-2.93c-3.15,-2.91 -3.15,-2.91 -7.3,-3.51l-1,-3c-1.96,-1.4 -3.97,-2.72 -6,-4c-1.18,-0.82 -2.34,-1.64 -3.51,-2.47c-0.59,-0.43 -1.19,-0.85 -1.8,-1.29c-0.6,-0.43 -1.2,-0.86 -1.81,-1.3c-0.61,-0.44 -1.22,-0.87 -1.84,-1.32c-2.47,-1.76 -4.92,-3.52 -7.28,-5.43c-1.82,-1.47 -1.82,-1.47 -4.76,-1.19v-2c-4.77,-3.84 -10.3,-6.75 -15.6,-9.65c-2.22,-1.27 -4.3,-2.63 -6.41,-4.09c-5.4,-3.62 -11,-6.79 -16.7,-9.95c-1.1,-0.61 -2.2,-1.22 -3.33,-1.85c-14.6,-8.09 -29.3,-15.8 -44.4,-22.8c-1.05,-0.48 -2.1,-0.97 -3.18,-1.47c-6.37,-2.92 -12.8,-5.56 -19.4,-8.02c-2.96,-1.12 -5.87,-2.33 -8.78,-3.57c-23.1,-9.66 -47,-17.5 -71.3,-23.3c-0.88,-0.21 -1.76,-0.42 -2.66,-0.64c-4.73,-1.11 -9.4,-2.01 -14.2,-2.61zM-676,405.81l-3.84,6.69c-0.36,0.62 -0.72,1.25 -1.1,1.89c-2.79,4.87 -5.29,9.82 -7.62,14.9c-0.76,1.63 -1.52,3.27 -2.28,4.9c-0.37,0.79 -0.73,1.57 -1.11,2.38c-1.48,3.12 -3.04,6.2 -4.61,9.28c-6.38,12.7 -11.9,25.7 -16.7,39c-0.92,2.51 -1.89,5.02 -2.85,7.52c-8.9,23.3 -16.1,47.2 -21.9,71.4c-0.2,0.84 -0.4,1.67 -0.61,2.53c-2.72,11.5 -5.21,22.9 -6.95,34.6c-0.43,2.86 -0.88,5.72 -1.34,8.58c-2.5,16 -4.53,31.8 -5.48,48c-0.04,0.73 -0.08,1.45 -0.13,2.2c-0.37,6.09 -0.37,6.09 -0.49,12.2c1.93,1.93 4.82,1.12 7.38,1.13c1.39,-0.01 1.39,-0.01 2.81,-0.01h2.96c3.3,0 6.6,0 9.9,-0.01h7.07c6.41,0 12.8,0 19.2,-0.01c6.02,0 12,-0.01 18.1,-0.01c11.9,0 23.8,-0.01 35.8,-0.01c11.6,-0.01 23.2,-0.02 34.8,-0.03h2.17h10.7c29.7,-0.01 59.4,-0.03 89.2,-0.05c0.58,-3.39 1.12,-6.66 1.18,-10.1c0.94,-35.9 4.64,-72.7 11.8,-108c0.44,-2.35 0.88,-4.71 1.31,-7.06c0.56,-2.98 1.13,-5.96 1.69,-8.94c0.22,-1.14 0.43,-2.28 0.65,-3.46c4.21,-22.2 9.03,-43.8 15.5,-65.5c1.39,-4.73 2.73,-9.47 4.08,-14.2c3.05,-10.7 6.31,-21.4 9.86,-32c1.41,-4.26 2.72,-8.54 3.95,-12.9c0.21,-0.73 0.43,-1.46 0.64,-2.22c0.12,-0.59 0.24,-1.17 0.36,-1.78c-1.81,-1.81 -4.3,-1.12 -6.7,-1.13c-1.24,0.01 -1.24,0.01 -2.51,0.01h-2.63c-2.95,0 -5.89,0 -8.83,0.01h-6.29c-5.72,0 -11.4,0 -17.2,0.01c-5.97,0 -11.9,0.01 -17.9,0.01c-11.3,0 -22.6,0.01 -33.9,0.02c-12.9,0.01 -25.7,0.01 -38.6,0.02c-26.5,0.01 -53,0.03 -79.4,0.05zM-391,406.81c-0.98,2.45 -1.86,4.87 -2.69,7.38c-0.53,1.56 -1.07,3.13 -1.61,4.69c-0.28,0.82 -0.56,1.63 -0.84,2.47c-1.09,3.13 -2.26,6.23 -3.43,9.33c-4.23,11.2 -7.9,22.6 -11.4,34.1c-0.23,0.76 -0.47,1.52 -0.71,2.3c-2.82,9.18 -5.27,18.4 -7.55,27.7c-1.22,4.96 -2.55,9.85 -4.08,14.7c-0.61,2.07 -1.12,4.13 -1.57,6.24c-0.18,0.79 -0.35,1.58 -0.53,2.39c-0.18,0.87 -0.37,1.73 -0.56,2.62c-0.2,0.92 -0.4,1.84 -0.61,2.78c-9.12,41.9 -15.4,83.9 -18.3,127c-0.07,1.06 -0.14,2.12 -0.22,3.21c-0.2,3 -0.39,6 -0.58,9.01c-0.06,0.91 -0.13,1.82 -0.19,2.76c-0.05,0.83 -0.1,1.66 -0.15,2.52c-0.04,0.73 -0.09,1.45 -0.13,2.2c-0.02,2.06 -0.02,2.06 2.15,3.8c2.08,0.3 2.08,0.3 4.5,0.25c0.96,0.01 1.91,0.01 2.89,0.02c1.06,-0.01 2.11,-0.01 3.2,-0.02c1.12,0.01 2.23,0.01 3.38,0.01c3.76,0.01 7.52,0.01 11.3,0c2.68,0 5.37,0 8.06,0.01c6.55,0.01 13.1,0.01 19.7,0h16h2.29h4.61c14.4,0.01 28.9,0 43.3,-0.01c12.4,-0.01 24.8,-0.01 37.2,0c14.4,0.01 28.8,0.02 43.1,0.01h4.59h2.29c5.32,-0.01 10.6,0 16,0c6.48,0.01 13,0.01 19.4,0c3.31,-0.01 6.62,-0.01 9.93,0c3.58,0 7.16,-0.01 10.7,-0.02c1.58,0.01 1.58,0.01 3.2,0.02c0.95,-0.01 1.9,-0.01 2.89,-0.02h2.5c2.23,-0.07 2.23,-0.07 4,-2.25c0.3,-2.02 0.3,-2.02 0.25,-4.38c0,-0.93 0,-1.86 0.01,-2.81c-0.01,-1.54 -0.01,-1.54 -0.02,-3.11c0,-1.08 0,-2.17 0.01,-3.29c0,-3.65 -0.01,-7.31 -0.02,-11v-7.84c0,-5.63 -0.01,-11.3 -0.02,-16.9c-0.01,-8.14 -0.02,-16.3 -0.02,-24.4c-0.01,-13.2 -0.02,-26.4 -0.04,-39.6c-0.02,-12.8 -0.03,-25.7 -0.04,-38.5v-2.4c0,-3.96 -0.01,-7.93 -0.01,-11.9c-0.02,-32.9 -0.06,-65.9 -0.1,-98.8c-3.28,-1.64 -6.9,-1.14 -10.5,-1.13h-2.7c-3,-0.01 -6.01,0 -9.01,0h-6.43c-5.84,-0.01 -11.7,-0.01 -17.5,0c-6.1,0 -12.2,0 -18.3,-0.01c-10.2,0 -20.5,0 -30.7,0.01c-11.9,0.01 -23.7,0 -35.6,0c-10.2,-0.01 -20.3,-0.01 -30.5,0c-6.08,0 -12.2,0 -18.2,-0.01c-5.71,0 -11.4,0 -17.1,0.01h-6.31c-2.86,-0.01 -5.72,0 -8.58,0h-2.55c-4.1,-0.09 -4.1,-0.09 -7.95,1.13zM-103,406.81c-0.02,33.7 -0.04,67.5 -0.05,101v11.9c-0.01,0.79 -0.01,1.58 -0.01,2.4c0,12.8 -0.01,25.7 -0.02,38.5c-0.01,13.2 -0.01,26.3 -0.01,39.5c-0.01,8.14 -0.01,16.3 -0.02,24.4v18.7c0,2.56 -0.01,5.12 -0.01,7.69v10.4c0,1.03 -0.01,2.06 -0.01,3.12c0,0.92 0,1.85 0.01,2.8v2.44c-0.08,1.84 -0.08,1.84 1.12,2.82c1.47,0.1 2.94,0.12 4.42,0.12c1.44,0.01 1.44,0.01 2.91,0.01c1.06,0 2.13,-0.01 3.23,-0.01h3.41c3.79,0 7.59,0 11.4,-0.01h8.13h17.5c8.46,-0.01 16.9,-0.01 25.4,-0.02c13.7,0 27.4,-0.01 41.2,-0.01l40,-0.03h2.49h12.4c34.2,-0.01 68.4,-0.03 103,-0.05c1.66,-3.32 0.85,-6.98 0.62,-10.6c-0.06,-0.88 -0.11,-1.77 -0.17,-2.68c-0.18,-2.93 -0.38,-5.85 -0.57,-8.78c-0.07,-1 -0.14,-2.01 -0.21,-3.04c-1.97,-29.1 -5.27,-58.2 -10.7,-86.9c-0.13,-0.69 -0.26,-1.39 -0.39,-2.1c-1.07,-5.68 -2.15,-11.4 -3.23,-17c-0.16,-0.8 -0.31,-1.6 -0.47,-2.42c-0.43,-2.28 -0.88,-4.56 -1.32,-6.84c-0.13,-0.68 -0.26,-1.36 -0.4,-2.06c-0.78,-3.98 -1.89,-7.72 -3.19,-11.6c-0.49,-2.14 -0.95,-4.29 -1.38,-6.44c-1.59,-7.57 -3.49,-15 -5.5,-22.5c-0.17,-0.65 -0.35,-1.31 -0.53,-1.99c-2.23,-8.33 -4.59,-16.6 -7.45,-24.7c-1.34,-3.94 -2.49,-7.92 -3.64,-11.9c-2.19,-7.6 -4.77,-15 -7.5,-22.4c-0.88,-2.46 -1.75,-4.92 -2.62,-7.38c-0.42,-1.14 -0.83,-2.29 -1.25,-3.47c-0.69,-1.92 -1.37,-3.84 -2.04,-5.77c-1.13,-3.92 -1.13,-3.92 -4.09,-6.38c-2.84,-0.1 -5.66,-0.13 -8.5,-0.13h-2.7c-3,-0.01 -6.01,0 -9.01,0h-6.43c-5.84,-0.01 -11.7,-0.01 -17.5,0c-6.1,0 -12.2,0 -18.3,-0.01c-10.2,0 -20.5,0 -30.7,0.01c-11.9,0.01 -23.7,0 -35.6,0c-10.2,-0.01 -20.3,-0.01 -30.5,0c-6.08,0 -12.2,0 -18.2,-0.01c-5.71,0 -11.4,0 -17.1,0.01h-6.31c-2.86,-0.01 -5.72,0 -8.58,0h-2.55c-4.1,-0.09 -4.1,-0.09 -7.95,1.13zM191,405.81c-1,4 -1.07,4.67 0.25,8.25c0.29,0.8 0.57,1.6 0.87,2.42c0.74,1.97 1.5,3.93 2.26,5.89c1.99,5.26 3.59,10.6 5.24,16c0.9,2.89 1.81,5.77 2.76,8.64c6.81,20.8 12.3,42.2 16.9,63.6c0.65,3.01 1.31,6.02 1.97,9.03c3.28,15 6.46,29.9 8.45,45.1c0.39,3.01 0.83,6.01 1.26,9.01c0.15,1.04 0.29,2.08 0.44,3.14c0.4,2.72 0.81,5.44 1.24,8.15c1.83,11.6 3.18,23.1 4.2,34.8c0.24,2.77 0.5,5.53 0.76,8.3c0.95,10.4 1.64,20.9 2.01,31.4c0.03,0.86 0.07,1.71 0.1,2.6c0.02,0.75 0.05,1.5 0.07,2.27c0.22,2.82 0.7,5.56 1.18,8.35c30.4,0.02 60.9,0.04 91.3,0.05h10.8c1.07,0.01 1.07,0.01 2.16,0.01c11.6,0 23.2,0.01 34.8,0.02c11.9,0.01 23.8,0.01 35.6,0.01c6.67,0.01 13.4,0.01 20,0.02h18.8c2.31,0 4.62,0.01 6.93,0.01h9.42c0.92,0 1.85,0.01 2.81,0.01c4.01,0.4 4.01,0.4 7.38,-1.13c0.02,-4.8 -0.34,-9.59 -0.62,-14.4c-0.05,-0.72 -0.09,-1.45 -0.14,-2.21c-1.49,-24.4 -5.27,-48.5 -10.2,-72.4c-0.33,-1.64 -0.66,-3.28 -1,-4.93c-4.78,-23.4 -11.2,-46.4 -19,-69.1c-0.6,-1.87 -1.21,-3.75 -1.81,-5.62c-4.07,-12.2 -8.58,-24.3 -14.1,-36c-1.19,-2.57 -2.25,-5.18 -3.31,-7.81c-7.64,-18.4 -16.9,-36.3 -26.8,-53.6h-213zM-753,740.81c-0.04,1.41 -0.01,2.83 0.05,4.24c0.04,0.89 0.08,1.78 0.12,2.7c0.04,0.97 0.09,1.94 0.14,2.94c0.05,1 0.1,2 0.15,3.03c0.5,9.41 1.36,18.7 2.54,28.1c0.12,0.98 0.24,1.96 0.37,2.97c1.87,14.7 4.31,29.2 7.13,43.8c0.14,0.74 0.29,1.49 0.43,2.26c2.94,15.1 6.66,30 11,44.8c0.57,1.97 1.14,3.94 1.71,5.92c10.7,36.9 24.9,73.7 43.4,107c2.33,4.35 4.45,8.8 6.6,13.2c1.28,2.72 1.28,2.72 3.41,4.66c2.82,0.19 5.54,0.26 8.36,0.24c0.88,0 1.76,0 2.66,0.01c2.95,0 5.9,-0.01 8.85,-0.02h6.33c5.74,0 11.5,-0.01 17.2,-0.03c5.99,-0.01 12,-0.01 18,-0.01c11.4,-0.01 22.7,-0.03 34.1,-0.05c12.9,-0.02 25.8,-0.03 38.8,-0.04c26.6,-0.02 53.2,-0.06 79.8,-0.1c-0.47,-1.73 -0.93,-3.46 -1.4,-5.19c-0.26,-0.97 -0.52,-1.93 -0.79,-2.93c-1.2,-4.28 -2.62,-8.48 -4.06,-12.7c-2.55,-7.57 -5.06,-15.2 -7.5,-22.8c-0.28,-0.87 -0.56,-1.74 -0.85,-2.63c-2.09,-6.54 -3.78,-13.1 -5.4,-19.8c-0.49,-1.94 -0.97,-3.88 -1.46,-5.82c-1.53,-6.06 -3.04,-12.1 -4.54,-18.2c-0.18,-0.73 -0.36,-1.47 -0.55,-2.22c-5.34,-21.7 -10.3,-43.6 -13.2,-65.8c-0.39,-3.01 -0.83,-6.01 -1.26,-9.01c-0.15,-1.04 -0.29,-2.08 -0.44,-3.14c-0.4,-2.72 -0.81,-5.44 -1.24,-8.15c-1.83,-11.6 -3.18,-23.1 -4.2,-34.8c-0.24,-2.77 -0.5,-5.53 -0.76,-8.3c-0.94,-10.4 -1.65,-20.8 -1.92,-31.3c-0.03,-0.85 -0.06,-1.71 -0.09,-2.59c-0.03,-1.12 -0.03,-1.12 -0.06,-2.26c-0.39,-3.27 -1.36,-6.3 -2.29,-9.46c-30.3,-0.02 -60.6,-0.04 -90.9,-0.05h-10.7c-1.07,-0.01 -1.07,-0.01 -2.16,-0.01c-11.5,0 -23.1,-0.01 -34.6,-0.02c-11.8,-0.01 -23.7,-0.01 -35.5,-0.01c-6.64,-0.01 -13.3,-0.01 -19.9,-0.02h-18.7c-2.3,0 -4.6,-0.01 -6.91,-0.01h-9.37c-0.93,0 -1.85,-0.01 -2.8,-0.01c-4,-0.39 -4,-0.39 -7.36,1.13zM-444,739.81c-2.65,3.97 -2.04,7.13 -1.71,11.7c0.05,0.88 0.11,1.76 0.16,2.67c0.19,2.92 0.4,5.84 0.61,8.75c0.07,1 0.14,2 0.21,3.03c2.03,29.1 5.33,58.2 10.7,86.8c0.13,0.68 0.26,1.36 0.39,2.06c1.04,5.57 2.1,11.1 3.17,16.7c0.15,0.77 0.3,1.54 0.45,2.34c1.74,9.04 3.67,18 5.99,26.9c0.46,1.86 0.91,3.72 1.36,5.58c5.08,20.8 11.2,41.2 17.8,61.6c0.26,0.79 0.51,1.58 0.77,2.39c2.76,8.56 5.62,17 8.93,25.4c1.44,3.65 2.8,7.33 4.18,11h222c0.06,-47 0.06,-47 0.1,-94.1c0,-6.34 0.01,-12.7 0.01,-19v-2.41c0.01,-12.8 0.03,-25.7 0.04,-38.5c0.02,-13.2 0.03,-26.3 0.04,-39.5c0,-8.13 0.01,-16.3 0.03,-24.4c0.01,-6.23 0.01,-12.4 0.01,-18.7c0,-2.56 0,-5.12 0.01,-7.68c0.01,-3.48 0.01,-6.96 0,-10.4c0.01,-1.02 0.01,-2.05 0.02,-3.11c-0.01,-0.92 -0.01,-1.85 -0.01,-2.81v-2.43c-0.08,-2.19 -0.08,-2.19 -2.25,-3.95c-2.08,-0.3 -2.08,-0.3 -4.5,-0.25c-1.43,-0.01 -1.43,-0.01 -2.89,-0.02c-1.06,0 -2.11,0.01 -3.2,0.01c-1.67,-0.01 -1.67,-0.01 -3.38,-0.01c-3.76,-0.01 -7.52,-0.01 -11.3,0c-2.68,-0.01 -5.37,-0.01 -8.06,-0.02c-6.55,-0.01 -13.1,-0.01 -19.7,-0.01c-5.33,0 -10.6,0 -16,-0.01h-2.29h-4.61c-14.4,-0.01 -28.9,-0.01 -43.3,0c-13.2,0 -26.4,-0.01 -39.6,-0.03c-13.6,-0.02 -27.1,-0.03 -40.7,-0.02c-7.61,0 -15.2,0 -22.8,-0.02c-6.48,-0.01 -13,-0.01 -19.4,0c-3.31,0.01 -6.62,0.01 -9.93,0c-3.58,-0.01 -7.16,-0.01 -10.7,0.01c-1.05,-0.01 -2.11,-0.02 -3.2,-0.03c-0.95,0.01 -1.9,0.02 -2.89,0.03h-2.5c-0.66,0.12 -1.32,0.24 -2,0.37zM-103,741.81c-0.3,2.02 -0.3,2.02 -0.25,4.38c0,0.93 0,1.86 -0.01,2.81c0.01,1.03 0.01,2.05 0.02,3.11c0,1.08 0,2.17 -0.01,3.29c0,3.65 0.01,7.31 0.02,11v7.84c0,5.63 0.01,11.3 0.02,16.9c0.01,8.14 0.02,16.3 0.02,24.4c0.01,13.2 0.02,26.4 0.04,39.6c0.02,12.8 0.03,25.7 0.04,38.5v2.42c0.01,6.25 0.01,12.5 0.01,18.8c0.02,30.6 0.06,61.3 0.1,91.9h221c3.18,-7 6.11,-13.7 8.56,-20.9c0.3,-0.87 0.6,-1.74 0.91,-2.64c0.85,-2.47 1.69,-4.95 2.53,-7.42c0.56,-1.63 0.56,-1.63 1.12,-3.29c0.98,-2.9 1.94,-5.8 2.88,-8.71c0.2,-0.63 0.41,-1.25 0.62,-1.89c8.22,-25.3 15.3,-50.8 20.9,-76.8c0.33,-1.53 0.66,-3.06 1,-4.59c2.89,-13.2 5.33,-26.4 7.5,-39.7c0.16,-1.01 0.33,-2.02 0.5,-3.06c4.3,-26.7 7.22,-53.6 8.88,-80.6c0.07,-1.15 0.07,-1.15 0.15,-2.32c0.13,-2.14 0.25,-4.29 0.37,-6.44c0.07,-1.22 0.14,-2.44 0.21,-3.7c0.21,-2.98 0.21,-2.98 -2.11,-4.85c-2.08,-0.3 -2.08,-0.3 -4.5,-0.25c-0.96,-0.01 -1.91,-0.01 -2.89,-0.02c-1.06,0.01 -2.11,0.01 -3.2,0.02c-1.12,-0.01 -2.23,-0.01 -3.38,-0.01c-3.76,-0.01 -7.52,-0.01 -11.3,0c-2.68,0 -5.37,0 -8.06,-0.01c-6.55,-0.01 -13.1,-0.01 -19.7,0h-16h-2.29h-4.61c-14.4,-0.01 -28.9,0 -43.3,0.01c-12.4,0.01 -24.8,0.01 -37.2,0c-14.4,-0.01 -28.8,-0.02 -43.1,-0.01h-4.59h-2.29c-5.32,0.01 -10.6,0 -16,0c-6.48,-0.01 -13,-0.01 -19.4,0c-3.31,0.01 -6.62,0.01 -9.93,0c-3.58,0 -7.16,0.01 -10.7,0.02c-1.05,-0.01 -2.11,-0.01 -3.2,-0.02c-0.95,0.01 -1.9,0.01 -2.89,0.02h-2.5c-2.23,0.07 -2.23,0.07 -4,2.25zM242,739.81c-1.7,5.77 -1.7,5.77 -2.35,11.7c-0.03,0.85 -0.06,1.71 -0.09,2.59c-0.02,0.91 -0.04,1.81 -0.07,2.74c-0.38,10.5 -1.14,20.9 -2.11,31.3c-0.26,2.77 -0.5,5.54 -0.74,8.32c-1.04,11.5 -2.49,22.8 -4.31,34.2c-0.48,3.03 -0.9,6.06 -1.33,9.09c-0.24,1.67 -0.24,1.67 -0.48,3.37c-0.38,2.65 -0.74,5.3 -1.1,7.95c-5.43,39.5 -16.1,78.5 -27.4,117c-0.35,1.18 -0.7,2.36 -1.05,3.57c-2.57,8.53 -5.45,17 -8.31,25.4c-0.51,1.52 -0.51,1.52 -1.03,3.06c-0.31,0.91 -0.62,1.83 -0.94,2.77c-0.77,2.15 -0.77,2.15 -0.67,4.22c27.8,0.19 55.6,0.33 83.4,0.41c12.9,0.05 25.8,0.1 38.7,0.19c11.3,0.08 22.5,0.13 33.8,0.15c5.96,0.01 11.9,0.04 17.9,0.1c5.61,0.05 11.2,0.07 16.8,0.05c2.06,0.01 4.13,0.02 6.19,0.05c2.81,0.04 5.61,0.03 8.42,0.01c1.23,0.04 1.23,0.04 2.48,0.07c2.34,-0.05 4.07,-0.17 6.25,-1.03c2.21,-2.43 3.6,-5.05 5,-8c0.46,-0.81 0.93,-1.62 1.4,-2.46c15.6,-29.3 29.1,-60 39.6,-91.5c0.48,-1.38 0.96,-2.76 1.44,-4.13c11.7,-33.7 19.1,-68.7 24.6,-104c0.21,-1.36 0.21,-1.36 0.43,-2.76c2.7,-17.4 5.12,-35.6 4.57,-53.2c-1.92,-1.92 -4.8,-1.12 -7.36,-1.13c-0.92,0 -1.84,0.01 -2.8,0.01h-2.94c-3.29,0 -6.58,0 -9.86,0.01h-7.04c-6.38,0 -12.8,0 -19.2,0.01c-5.99,0 -12,0.01 -18,0.01c-11.9,0 -23.8,0.01 -35.6,0.01c-11.5,0.01 -23.1,0.02 -34.6,0.03h-2.15h-10.7c-29.6,0.01 -59.2,0.03 -88.8,0.05zM-631,1074.81l1,4h2c0.2,0.67 0.41,1.34 0.62,2.02c1.89,4.07 4.58,7.18 7.44,10.6c1.19,1.44 2.38,2.88 3.56,4.31c0.59,0.7 1.17,1.4 1.76,2.12c2.09,2.52 4.13,5.08 6.18,7.64c3.96,4.84 8.17,9.43 12.5,14c2.22,2.37 4.18,4.62 5.98,7.33h2l2,4h2l2,4h2c0.21,0.53 0.41,1.06 0.62,1.61c1.96,3.4 4.6,5.9 7.38,8.64c0.55,0.55 1.09,1.11 1.66,1.68c2.67,3.06 2.67,3.06 6.34,4.07l2,4h2c0.26,0.59 0.52,1.19 0.78,1.8c1.33,2.39 2.62,3.65 4.72,5.39c3.26,2.76 6.46,5.56 9.62,8.43c5.79,6.16 5.79,6.16 12.9,9.38l1,3c1.99,1.7 3.96,3.26 6.06,4.81c0.59,0.44 1.18,0.88 1.78,1.34c1.18,0.88 2.35,1.76 3.53,2.63c1.41,1.06 2.81,2.13 4.2,3.21c0.7,0.54 1.4,1.08 2.12,1.63c0.6,0.47 1.2,0.94 1.82,1.42c1.47,1.14 1.47,1.14 3.49,0.96l1,3c1.96,1.4 3.97,2.72 6,4c1.18,0.82 2.34,1.64 3.51,2.47c0.59,0.43 1.19,0.85 1.8,1.29c0.6,0.43 1.2,0.86 1.81,1.3c0.61,0.44 1.22,0.87 1.84,1.32c2.47,1.76 4.92,3.52 7.28,5.43c1.82,1.47 1.82,1.47 4.76,1.19v2c4.77,3.84 10.3,6.75 15.6,9.65c2.22,1.27 4.3,2.63 6.41,4.09c5.4,3.62 11,6.79 16.7,9.95c1.1,0.61 2.19,1.22 3.32,1.85c78,43.7 78,43.7 164,62.5c-2.45,-5.8 -6.62,-9.76 -11.4,-13.6c-2.35,-2.07 -4.29,-4.43 -6.32,-6.81c-1.83,-2.09 -3.69,-4.12 -5.6,-6.14c-0.91,-0.97 -0.91,-0.97 -1.84,-1.96c-1.22,-1.28 -2.44,-2.56 -3.66,-3.84c-3.64,-3.85 -6.85,-7.8 -9.89,-12.1c-0.41,-0.49 -0.83,-0.98 -1.26,-1.49h-2c-0.25,-0.56 -0.5,-1.12 -0.75,-1.7c-1.46,-2.69 -3.21,-4.83 -5.19,-7.18c-16.8,-20.3 -16.8,-20.3 -24.1,-31.1h-2c-0.08,-0.55 -0.16,-1.09 -0.25,-1.66c-1.01,-3.16 -2.77,-5.23 -4.81,-7.84c-4.61,-5.98 -8.8,-12.2 -12.9,-18.5c-1.31,-1.96 -2.62,-3.92 -3.94,-5.88c-11.3,-17 -22.1,-34.3 -32,-52.2c-1.09,-1.95 -2.21,-3.9 -3.33,-5.84c-4.97,-8.61 -9.36,-17.4 -13.6,-26.4c-2.08,-4.48 -4.24,-8.91 -6.45,-13.3c-0.3,-0.62 -0.61,-1.23 -0.92,-1.87c-2.48,-4.93 -5.14,-9.68 -7.83,-14.5h-197zM-359,1074.81c0.75,3.18 1.79,5.78 3.3,8.68c0.48,0.92 0.96,1.84 1.45,2.79c0.51,0.98 1.03,1.96 1.56,2.97c0.53,1.01 1.06,2.01 1.6,3.05c5.45,10.3 11.2,20.4 17.1,30.5h2c0.11,0.74 0.22,1.48 0.34,2.24c0.69,2.88 1.58,4.49 3.28,6.88c2.33,3.36 4.58,6.74 6.76,10.2c5.56,8.77 11.3,17.4 17.5,25.7c2.55,3.49 5.08,7 7.6,10.5c0.65,0.91 0.65,0.91 1.32,1.85c3.12,4.36 3.12,4.36 4.24,6.59h2c0.23,0.71 0.47,1.42 0.71,2.14c1.53,3.39 3.49,5.74 5.91,8.55c0.92,1.07 1.83,2.13 2.74,3.2c0.45,0.53 0.9,1.06 1.36,1.6c1.77,2.09 3.46,4.23 5.16,6.39c7.98,10 16.4,19.7 25.1,29.1c0.75,0.81 0.75,0.81 1.51,1.64c7.96,8.66 16.1,17.1 24.4,25.4c0.87,0.88 1.75,1.76 2.65,2.67c4.98,4.96 10.1,9.69 15.4,14.3c1.61,1.45 3.21,2.91 4.81,4.38c4.35,3.92 8.81,7.66 13.4,11.3c1.98,1.6 3.93,3.24 5.86,4.89c0.97,0.83 1.95,1.67 2.96,2.52c0.89,0.77 1.77,1.54 2.69,2.33c0.76,0.51 1.52,1.02 2.31,1.55c0.99,-0.33 1.98,-0.66 3,-1c0.02,-29.5 0.04,-59.1 0.05,-88.6v-10.4c0.01,-0.69 0.01,-1.38 0.01,-2.1c0,-11.2 0.01,-22.5 0.02,-33.7c0.01,-11.5 0.01,-23.1 0.01,-34.6c0.01,-6.48 0.01,-13 0.02,-19.4v-18.3c0,-2.24 0.01,-4.49 0.01,-6.73v-9.14c0,-0.9 0.01,-1.8 0.01,-2.73c0.38,-3.91 0.38,-3.91 -1.13,-7.2c-2.44,-0.1 -4.85,-0.13 -7.3,-0.12h-2.34c-2.61,0 -5.21,0 -7.82,0.01h-5.59c-5.07,0 -10.1,0 -15.2,0.01c-5.29,0 -10.6,0.01 -15.9,0.01c-10,0 -20.1,0.01 -30.1,0.02c-11.4,0.01 -22.8,0.01 -34.3,0.02c-23.5,0.01 -47,0.03 -70.5,0.05zM-103,1075.81c-0.1,2.98 -0.13,5.94 -0.12,8.93v2.87c0,3.2 0,6.41 0.01,9.61v6.86c0,6.22 0,12.4 0.01,18.7c0,6.5 0.01,13 0.01,19.5c0,10.9 0.01,21.8 0.01,32.8c0.01,11.2 0.02,22.5 0.03,33.7v2.1v10.4c0.01,28.8 0.03,57.7 0.05,86.5c4.07,0 4.7,-0.12 7.75,-2.38c0.61,-0.44 1.23,-0.88 1.86,-1.33c0.46,-0.43 0.92,-0.85 1.39,-1.29v-2c0.54,-0.24 1.09,-0.48 1.64,-0.72c2.97,-1.61 5.43,-3.59 8.05,-5.72c0.97,-0.78 1.94,-1.56 2.95,-2.37c2.58,-2.04 2.58,-2.04 3.36,-5.19c0.58,-0.12 1.15,-0.25 1.75,-0.38c3.29,-0.91 4.99,-3.2 7.25,-5.62c1.56,-1.59 3.12,-3.17 4.69,-4.75c1.15,-1.17 1.15,-1.17 2.32,-2.36c1.99,-1.89 1.99,-1.89 3.99,-2.89v-2h2v-2c0.88,-0.4 0.88,-0.4 1.78,-0.8c2.3,-1.24 3.83,-2.55 5.67,-4.39c0.62,-0.61 1.24,-1.23 1.88,-1.86c0.63,-0.65 1.27,-1.29 1.92,-1.95c0.65,-0.64 1.3,-1.28 1.97,-1.95l1.86,-1.86c0.84,-0.85 0.84,-0.85 1.7,-1.71c1.43,-1.42 1.43,-1.42 1.22,-3.48h2v-2h2c1.5,-1.45 1.5,-1.45 3.06,-3.38c3.63,-4.28 7.4,-8.4 11.2,-12.5c1.93,-1.9 1.93,-1.9 1.72,-4.1c0.99,-0.33 1.98,-0.66 3,-1c3.64,-3.48 3.64,-3.48 5,-8h2c1.64,-1.74 1.64,-1.74 3.38,-4.06c0.7,-0.91 1.41,-1.82 2.14,-2.76c0.4,-0.51 0.79,-1.01 1.19,-1.54c1.39,-1.76 2.79,-3.51 4.2,-5.26c5.1,-6.29 10.1,-12.6 14.8,-19.2c1.93,-2.67 3.88,-5.3 5.86,-7.93c0.63,-0.85 1.27,-1.7 1.92,-2.58c1.28,-1.71 2.56,-3.41 3.85,-5.11c0.59,-0.79 1.18,-1.58 1.78,-2.39c0.53,-0.7 1.06,-1.41 1.61,-2.14c1.28,-2.03 1.84,-3.67 2.27,-6.02h2c1.62,-2.17 1.62,-2.17 3.25,-4.94c2.23,-3.61 4.48,-7.18 6.87,-10.7c2.38,-3.54 4.46,-7.16 6.49,-10.9c1.59,-2.84 3.29,-5.59 5.01,-8.36c7.52,-12.1 14.7,-24.5 21.4,-37.1c0.4,-0.76 0.8,-1.52 1.21,-2.3c1.65,-3.2 3.01,-6.18 3.79,-9.7c-24.6,-0.02 -49.2,-0.04 -73.9,-0.05c-11.4,-0.01 -22.9,-0.01 -34.3,-0.03c-9.96,-0.01 -19.9,-0.01 -29.9,-0.01c-5.28,-0.01 -10.6,-0.01 -15.8,-0.02h-14.9c-1.82,0 -3.65,-0.01 -5.48,-0.01h-7.44c-0.74,0 -1.47,-0.01 -2.22,-0.01c-3.33,-0.28 -3.33,-0.28 -6.08,1.13zM162,1074.81c-7.42,14 -7.42,14 -14.3,28.2c-6.69,14.2 -14.1,28 -22.2,41.4c-1.36,2.29 -2.66,4.6 -3.94,6.93c-2.7,4.91 -5.61,9.68 -8.56,14.4c-0.57,0.91 -1.13,1.81 -1.71,2.75c-5.13,8.24 -10.5,16.3 -15.9,24.4c-1.19,1.76 -2.36,3.53 -3.52,5.3c-4.09,6.24 -8.41,12.2 -13,18c-1.89,2.4 -1.89,2.4 -2.36,4.87c-0.14,0.57 -0.28,1.14 -0.43,1.72c-0.99,0.33 -1.98,0.66 -3,1c-0.98,1.4 -1.96,2.81 -2.87,4.27c-2.01,3.08 -4.38,5.88 -6.69,8.73c-1.06,1.32 -2.13,2.64 -3.19,3.96c-0.53,0.66 -1.07,1.33 -1.62,2.02c-2.6,3.23 -5.18,6.46 -7.75,9.71c-0.47,0.57 -0.93,1.15 -1.4,1.74c-1.77,2.23 -3.36,4.33 -4.6,6.9c-0.88,1.67 -0.88,1.67 -3.88,2.67c-1.61,1.78 -1.61,1.78 -3.25,4.06c-3.89,5.01 -8.09,9.64 -12.4,14.2c-0.64,0.68 -1.28,1.37 -1.94,2.07c-3.41,3.59 -6.87,7.12 -10.4,10.6c-1.58,1.67 -3.14,3.36 -4.69,5.06c-1.15,1.26 -1.15,1.26 -2.32,2.54c-1.74,2.1 -2.92,3.92 -3.99,6.4c11.3,-1.82 22.4,-4.51 33.4,-7.69c1.21,-0.34 2.41,-0.69 3.66,-1.05c11.4,-3.34 22.7,-7.15 33.9,-11.3c0.86,-0.31 1.72,-0.63 2.61,-0.95c40.4,-14.8 80.2,-33.2 116,-57c2.28,-1.49 4.57,-2.93 6.9,-4.33c0.61,-0.36 1.22,-0.73 1.85,-1.11l5.07,-3c0.77,-0.54 1.55,-1.08 2.35,-1.63v-2c0.57,-0.1 1.13,-0.2 1.71,-0.31c2.74,-0.83 4.54,-2.08 6.85,-3.75c0.87,-0.63 1.74,-1.25 2.64,-1.89c0.92,-0.68 1.85,-1.35 2.8,-2.05c0.99,-0.72 1.97,-1.43 2.99,-2.17c1.89,-1.37 3.78,-2.75 5.66,-4.13c1.76,-1.27 3.55,-2.5 5.35,-3.7v-2c0.66,-0.2 1.31,-0.39 1.99,-0.59c4.26,-1.99 7.55,-4.9 11.1,-7.91c1.42,-1.18 2.84,-2.36 4.26,-3.53c0.94,-0.78 0.94,-0.78 1.89,-1.58c1.73,-1.39 1.73,-1.39 4.73,-3.39v-2c0.89,-0.41 0.89,-0.41 1.8,-0.83c2.11,-1.12 3.69,-2.28 5.48,-3.85c0.59,-0.52 1.19,-1.03 1.8,-1.57c0.62,-0.53 1.23,-1.07 1.86,-1.63c1.21,-1.06 2.43,-2.12 3.65,-3.17c0.58,-0.51 1.16,-1.02 1.76,-1.54c2.17,-1.86 4.41,-3.63 6.65,-5.41c2.77,-2.52 2.77,-2.52 5,-5v-2l4,-2v-2c0.53,-0.21 1.06,-0.41 1.61,-0.62c3.4,-1.96 5.9,-4.6 8.64,-7.38c0.55,-0.55 1.11,-1.09 1.68,-1.66c3.06,-2.67 3.06,-2.67 4.07,-6.34l4,-2v-2l4,-2v-2c1.49,-0.49 1.49,-0.49 3,-1c1.48,-1.38 1.48,-1.38 2.94,-3.19c0.92,-1.09 0.92,-1.09 1.86,-2.2c0.73,-0.86 1.45,-1.72 2.2,-2.61c0.89,-1.03 1.78,-2.06 2.67,-3.08c5.52,-6.37 10.9,-12.8 16.3,-19.4c0.53,-0.65 1.06,-1.3 1.61,-1.97c6.27,-6.72 6.27,-6.72 9.45,-14.6c1.49,-0.49 1.49,-0.49 3,-1v-3h-197z"></path></g></g></svg>