<svg version="1.1" xmlns="http://www.w3.org/2000/svg" xmlns:xlink="http://www.w3.org/1999/xlink" width="1280" height="1280" viewBox="0,0,256,256"><g fill="#613c7f" fill-rule="nonzero" stroke="none" stroke-width="1" stroke-linecap="butt" stroke-linejoin="miter" stroke-miterlimit="10" stroke-dasharray="" stroke-dashoffset="0" font-family="none" font-weight="none" font-size="none" text-anchor="none" style="mix-blend-mode: normal"><g transform="translate(0,0.0016) scale(0.16,0.16)"><path transform="translate(750,0)" d="M0,0h100v2h22v2c0.98,-0.01 1.96,-0.02 2.97,-0.04c9.4,-0.07 18.7,0.29 28,1.04v2c0.67,-0.01 1.33,-0.02 2.02,-0.04c6.72,-0.06 13.3,0.32 20,1.04v2c0.71,-0.01 1.42,-0.02 2.15,-0.04c0.92,0 1.84,-0.01 2.79,-0.02c0.91,-0.01 1.83,-0.03 2.77,-0.04c2.29,0.1 2.29,0.1 3.29,1.1c2.86,0.4 5.7,0.75 8.56,1.06c0.81,0.09 1.62,0.18 2.45,0.28c1.99,0.22 3.99,0.44 5.99,0.66v2c1.3,-0.02 2.6,-0.04 3.94,-0.06c1.35,-0.02 2.71,-0.01 4.06,0.06l1,1c2.69,0.4 5.36,0.75 8.06,1.06c0.76,0.09 1.52,0.18 2.3,0.28l5.64,0.66v2c0.85,-0.04 1.69,-0.08 2.56,-0.12c3.78,0.13 6.83,1.02 10.4,2.12c1.99,0.36 3.99,0.71 6,1v2l13,1v2c0.68,-0.04 1.36,-0.08 2.06,-0.12c3.55,0.15 6.55,1.09 9.94,2.12c1.66,0.35 3.33,0.7 5,1v2c0.89,-0.04 1.77,-0.08 2.69,-0.12c3.34,0.12 5.28,0.8 8.31,2.12c1.66,0.37 3.32,0.71 5,1v2c4.95,0.49 4.95,0.49 10,1v2h5v2c1.28,0.08 2.56,0.16 3.88,0.25c4.67,0.5 8.57,1.93 12.9,3.81c2.08,0.86 4.06,1.46 6.26,1.94v2c0.66,0.12 1.32,0.25 2,0.38c3.7,0.77 7.34,1.69 11,2.62v2l8,1v2h3v2l8,1v2c0.68,-0.06 1.36,-0.12 2.06,-0.19c3.86,0.25 6.45,1.55 9.94,3.19v2l8,1v2h3v2c0.91,0.12 1.82,0.25 2.75,0.38c2.84,0.54 4.78,1.19 7.25,2.62v2h3v2c3.46,0.5 3.46,0.5 7,1v2c1.98,0.33 3.96,0.66 6,1v2c3.46,0.5 3.46,0.5 7,1v2h3v2c0.91,0.12 1.82,0.25 2.75,0.38c2.84,0.54 4.78,1.19 7.25,2.62v2l5,1v2c0.54,0.1 1.07,0.21 1.62,0.31c3.01,0.87 5.61,2.24 8.38,3.69c0.78,0.39 1.57,0.78 2.38,1.19c0.53,0.27 1.07,0.53 1.62,0.81v2h4v2c0.58,0.12 1.15,0.25 1.75,0.38c2.27,0.63 4.18,1.51 6.25,2.62v2l5,1v2c0.58,0.12 1.15,0.25 1.75,0.38c2.27,0.63 4.18,1.51 6.25,2.62v2l5,1v2h3v2l5,1v2h2v2c0.84,0.15 0.84,0.15 1.69,0.31c2.79,0.83 4.92,2.03 7.31,3.69v2h4l1,2c2.55,1.63 5.17,3.09 7.81,4.56c0.72,0.48 1.45,0.95 2.19,1.44v2l5,1v2h2l1,2c0.85,0.5 1.69,0.99 2.56,1.5c0.81,0.5 1.61,0.99 2.44,1.5v2h3v2c0.96,0.19 0.96,0.19 1.94,0.38c0.68,0.2 1.36,0.41 2.06,0.62l1,2c0.62,0.14 1.24,0.29 1.88,0.44c2.52,0.66 3.51,1.54 5.12,3.56v2h3v2c0.99,0.33 1.98,0.66 3,1v2h2v2c0.72,0.06 1.44,0.12 2.19,0.19c3.69,1.07 5.34,2.92 7.81,5.81v2c0.72,0.06 1.44,0.12 2.19,0.19c3.69,1.07 5.34,2.92 7.81,5.81v2h3c1.69,1.38 1.69,1.38 3,3v2c0.99,0.33 1.98,0.66 3,1v2h2v2c0.99,0.33 1.98,0.66 3,1v2c0.56,0.06 1.11,0.12 1.69,0.19c3.28,1.15 4.92,3.3 7.31,5.81c1.09,0.91 2.2,1.8 3.31,2.69c0.89,0.76 1.78,1.52 2.69,2.31v2h2c1.6,1.71 3.01,3.53 4.46,5.37c1.55,1.9 1.55,1.9 4.54,2.63v3h2v2h2c1.62,1.37 1.62,1.37 3,3v2h2c0.12,0.93 0.12,0.93 0.25,1.88c0.53,2.24 0.53,2.24 2.44,3.06c0.76,0.35 1.52,0.7 2.31,1.06c2.14,1.56 4.03,3.21 6,5v2h2c1.33,1.36 1.33,1.36 2.81,3.19c1.95,2.36 3.84,4.43 6.07,6.56c2.12,2.25 2.12,2.25 2.12,5.25c0.99,0.33 1.98,0.66 3,1v2h2v2c0.99,0.33 1.98,0.66 3,1v2h2c1.62,1.31 1.62,1.31 3,3v3h2c1.51,1.43 1.51,1.43 3.12,3.31c0.81,0.92 0.81,0.92 1.64,1.87c1.24,1.82 1.24,1.82 1.24,4.82h2c1.51,1.43 1.51,1.43 3.12,3.31c0.81,0.92 0.81,0.92 1.64,1.87c1.24,1.82 1.24,1.82 1.24,4.82h2v2c0.99,0.33 1.98,0.66 3,1v2h2v3h2c2.65,2.12 3.25,3.77 4,7l2,1v2h3v5c0.96,0.4 0.96,0.4 1.94,0.81c2.06,1.19 2.06,1.19 3.06,4.19l2,1v2h2l1,5h2c1.44,2.19 1.44,2.19 3,5c1.87,3.65 1.87,3.65 5,6v4c0.99,0.33 1.98,0.66 3,1c2.08,2.92 3,4.38 3,8h2v2h2l1,5h2v3h2l1,5h2c2.04,2.91 3,4.4 3,8h2l1,5h2c2.04,2.91 3,4.4 3,8h2v4h2c1.01,1.77 2.01,3.54 3,5.31c0.84,1.48 0.84,1.48 1.69,2.99c1.31,2.7 1.31,2.7 1.31,5.7h2l1,5h2c3,6.62 3,6.62 3,10h2v3h2l1,7h2l1,6h2v4h3v6h2c3,6.63 3,6.63 3,10h2v3h2l1,8h2c3.43,7.29 3.43,7.29 3,12h2l1,8h2v3h2l1,8h2c0.51,1.41 1.01,2.83 1.5,4.25c0.28,0.79 0.56,1.58 0.84,2.39c0.66,2.36 0.66,2.36 0.66,6.36h2c0.27,0.88 0.53,1.76 0.8,2.67c0.36,1.16 0.71,2.32 1.08,3.52c0.34,1.15 0.69,2.29 1.05,3.48c1,3.26 1,3.26 2.19,6.08c1,2.55 1.04,4.53 0.88,7.25h2v5h2l1,10h2c0.2,0.96 0.2,0.96 0.4,1.93c0.18,0.83 0.36,1.66 0.54,2.51c0.26,1.23 0.26,1.23 0.52,2.49c0.35,2.05 0.35,2.05 1.54,3.07c0.04,2 0.04,4 0,6h2c0.2,1.17 0.2,1.17 0.4,2.37c0.18,1.01 0.36,2.02 0.54,3.07c0.17,1.01 0.35,2.02 0.52,3.06c0.29,2.43 0.29,2.43 1.54,3.5c0.04,1.67 0.04,3.33 0,5h2l1,13h2c0.13,0.85 0.27,1.71 0.4,2.59c0.18,1.1 0.36,2.21 0.54,3.35c0.26,1.65 0.26,1.65 0.52,3.34c0.26,2.62 0.26,2.62 1.54,3.72c0.14,2.67 0.04,5.32 0,8h2c0.2,1.5 0.2,1.5 0.4,3.03c0.18,1.29 0.36,2.58 0.54,3.91c0.17,1.29 0.35,2.57 0.52,3.9c0.2,3.01 0.2,3.01 1.54,4.16c0.14,2.67 0.04,5.32 0,8h2c0.2,1.82 0.2,1.82 0.4,3.68c0.18,1.59 0.36,3.17 0.54,4.76c0.08,0.8 0.17,1.6 0.26,2.43c0.11,3.89 0.11,3.89 1.8,7.13c0.07,1.69 0.08,3.38 0.06,5.06c-0.01,0.92 -0.02,1.84 -0.02,2.79c-0.02,0.71 -0.03,1.42 -0.04,2.15h2c0.8,7.36 1.13,14.6 1,22h2c0.83,10.4 1.12,20.6 1,31h2v22h2v100h-2v22h-2c0.01,0.98 0.02,1.96 0.04,2.97c0.07,9.4 -0.29,18.7 -1.04,28h-2c0.01,0.67 0.02,1.33 0.04,2.02c0.06,6.72 -0.32,13.3 -1.04,20h-2c0.01,0.71 0.02,1.42 0.04,2.15c0,0.92 0.01,1.84 0.02,2.79c0.01,0.91 0.03,1.83 0.04,2.77c-0.1,2.29 -0.1,2.29 -1.1,3.29c-0.4,2.86 -0.75,5.7 -1.06,8.56c-0.14,1.21 -0.14,1.21 -0.28,2.45c-0.22,1.99 -0.44,3.99 -0.66,5.99h-2c0.02,1.3 0.04,2.6 0.06,3.94c0.02,1.35 0.01,2.71 -0.06,4.06l-1,1c-0.4,2.35 -0.74,4.7 -1.06,7.06c-0.18,1.29 -0.36,2.58 -0.54,3.91c-0.13,1 -0.26,2 -0.4,3.03h-2c0.06,1.76 0.06,1.76 0.12,3.56c0.01,4.1 -0.89,7.52 -2.12,11.4c-0.36,1.99 -0.71,3.99 -1,6h-2l-1,13h-2c0.06,1.02 0.06,1.02 0.12,2.06c-0.15,3.55 -1.09,6.55 -2.12,9.94c-0.35,1.66 -0.7,3.33 -1,5h-2c0.06,1.33 0.06,1.33 0.12,2.69c-0.12,3.34 -0.8,5.28 -2.12,8.31c-0.37,1.66 -0.71,3.32 -1,5h-2l-1,10h-2v5h-2c-0.08,1.28 -0.16,2.56 -0.25,3.88c-0.5,4.67 -1.93,8.57 -3.81,12.9c-0.86,2.08 -1.46,4.06 -1.94,6.26h-2c-0.12,0.66 -0.25,1.32 -0.38,2c-0.77,3.7 -1.69,7.34 -2.62,11h-2l-1,8h-2v3h-2l-1,8h-2c0.06,0.68 0.12,1.36 0.19,2.06c-0.25,3.86 -1.55,6.45 -3.19,9.94h-2l-1,8h-2v3h-2c-0.12,0.91 -0.25,1.82 -0.38,2.75c-0.54,2.84 -1.19,4.78 -2.62,7.25h-2v6h-3v4h-2l-1,6h-2l-1,7h-2v3h-2c-0.12,0.91 -0.25,1.82 -0.38,2.75c-0.54,2.86 -1.08,4.81 -2.62,7.25l-2,1c-0.65,2.02 -0.65,2.02 -1,4h-2c-0.1,0.54 -0.21,1.07 -0.31,1.62c-0.87,3.01 -2.24,5.61 -3.69,8.38c-0.39,0.78 -0.78,1.57 -1.19,2.38c-0.27,0.53 -0.53,1.07 -0.81,1.62h-2v4l-2,1c-1.05,2.31 -2.06,4.64 -3,7h-2l-1,5h-2c-0.12,0.58 -0.25,1.15 -0.38,1.75c-0.63,2.27 -1.51,4.18 -2.62,6.25h-2l-1,5h-2v3h-2l-1,5h-2v2h-2c-0.1,0.56 -0.21,1.11 -0.31,1.69c-0.83,2.79 -2.03,4.92 -3.69,7.31h-2v4l-2,1c-1.63,2.55 -3.09,5.17 -4.56,7.81c-0.71,1.09 -0.71,1.09 -1.44,2.19h-2l-1,5h-2v2l-2,1c-0.49,0.85 -0.99,1.69 -1.5,2.56c-0.49,0.81 -0.99,1.61 -1.5,2.44h-2v5h-3v2l-2,1c-0.14,0.62 -0.29,1.24 -0.44,1.88c-0.66,2.52 -1.54,3.51 -3.56,5.12h-2v3h-2l-1,3h-2v2h-2c-0.06,0.72 -0.12,1.44 -0.19,2.19c-1.07,3.69 -2.92,5.34 -5.81,7.81h-2c-0.13,1.13 -0.13,1.13 -0.25,2.28c-0.91,3.3 -2.02,4.2 -4.69,6.28c-2.9,2.28 -4.63,4.01 -6.06,7.44h-2l-1,3h-2v2h-2l-1,3h-2c-0.06,0.56 -0.12,1.11 -0.19,1.69c-1.15,3.28 -3.3,4.92 -5.81,7.31c-0.91,1.09 -1.8,2.2 -2.69,3.31c-0.76,0.89 -1.52,1.78 -2.31,2.69h-2v2c-1.71,1.6 -3.53,3.01 -5.37,4.46c-1.9,1.55 -1.9,1.55 -2.63,4.54h-3v2h-2v2c-1.38,1.62 -1.38,1.62 -3,3h-2v2h-2v3c-1.66,1.01 -3.33,2.01 -5,3c-1.35,1.66 -2.68,3.32 -4,5h-2v2c-1.36,1.33 -1.36,1.33 -3.19,2.81c-2.36,1.95 -4.43,3.84 -6.56,6.07c-2.25,2.12 -2.25,2.12 -5.25,2.12l-1,3h-2v2h-2l-1,3h-2v2c-0.7,0.39 -1.4,0.78 -2.12,1.19c-2.71,1.7 -3.94,2.98 -5.88,5.43c-2.04,2.52 -2.7,3.28 -5.88,4.32c-0.7,0.02 -1.4,0.04 -2.12,0.06v2c-3.09,3.62 -5.18,5.59 -10,6v2h-2l-1,3h-2v2h-3v2c-2.12,2.65 -3.77,3.25 -7,4l-1,2h-2v3h-5c-0.4,0.96 -0.4,0.96 -0.81,1.94c-1.19,2.06 -1.19,2.06 -4.19,3.06l-1,2h-2v2l-5,1v2c-2.19,1.44 -2.19,1.44 -5,3c-3.65,1.87 -3.65,1.87 -6,5h-4l-1,3c-2.92,2.08 -4.38,3 -8,3v2h-2v2l-5,1v2h-3v2l-5,1v2c-2.91,2.04 -4.4,3 -8,3v2l-5,1v2c-2.91,2.04 -4.4,3 -8,3v2h-4v2c-1.77,1.01 -3.54,2.01 -5.31,3c-1.48,0.84 -1.48,0.84 -2.99,1.69c-2.7,1.31 -2.7,1.31 -5.7,1.31v2c-0.96,0.19 -0.96,0.19 -1.94,0.38c-1.02,0.3 -1.02,0.3 -2.06,0.62l-1,2c-6.23,3 -6.23,3 -10,3v2h-3v2c-2.31,0.33 -4.62,0.66 -7,1v2c-1.98,0.33 -3.96,0.66 -6,1v2h-4v3h-6v2c-6.62,3 -6.62,3 -10,3v2h-3v2l-8,1v2c-7.29,3.43 -7.29,3.43 -12,3v2l-8,1v2h-3v2l-8,1v2c-1.41,0.51 -2.83,1.01 -4.25,1.5c-0.79,0.28 -1.58,0.56 -2.39,0.84c-2.36,0.66 -2.36,0.66 -6.36,0.66v2c-0.88,0.27 -1.76,0.53 -2.67,0.8c-1.16,0.36 -2.32,0.71 -3.52,1.08c-1.15,0.34 -2.29,0.69 -3.48,1.05c-3.26,1 -3.26,1 -6.08,2.19c-2.55,1 -4.53,1.04 -7.25,0.88v2h-5v2l-10,1v2c-0.96,0.2 -0.96,0.2 -1.93,0.4c-0.83,0.18 -1.66,0.36 -2.51,0.54c-1.23,0.26 -1.23,0.26 -2.49,0.52c-2.05,0.35 -2.05,0.35 -3.07,1.54c-2,0.04 -4,0.04 -6,0v2c-1.17,0.2 -1.17,0.2 -2.37,0.4c-1.01,0.18 -2.02,0.36 -3.07,0.54c-1.01,0.17 -2.02,0.35 -3.06,0.52c-2.43,0.29 -2.43,0.29 -3.5,1.54c-1.67,0.04 -3.33,0.04 -5,0v2l-13,1v2c-0.85,0.13 -1.71,0.27 -2.59,0.4c-1.1,0.18 -2.21,0.36 -3.35,0.54c-1.65,0.26 -1.65,0.26 -3.34,0.52c-2.62,0.26 -2.62,0.26 -3.72,1.54c-2,0.04 -4,0.04 -6,0v2c-1.72,0.2 -1.72,0.2 -3.46,0.4c-1.5,0.18 -2.99,0.36 -4.48,0.54c-0.75,0.08 -1.51,0.17 -2.28,0.26c-3.7,0.14 -3.7,0.14 -6.78,1.8c-2.67,0.14 -5.32,0.04 -8,0v2c-1.82,0.2 -1.82,0.2 -3.68,0.4c-1.59,0.18 -3.17,0.36 -4.76,0.54c-0.8,0.08 -1.6,0.17 -2.43,0.26c-3.89,0.11 -3.89,0.11 -7.13,1.8c-1.69,0.07 -3.38,0.08 -5.06,0.06c-0.92,-0.01 -1.84,-0.02 -2.79,-0.02c-0.71,-0.02 -1.42,-0.03 -2.15,-0.04v2c-7.36,0.8 -14.6,1.13 -22,1v2c-10.4,0.83 -20.6,1.12 -31,1v2h-22v2h-100v-2h-22v-2c-0.98,0.01 -1.96,0.02 -2.97,0.04c-9.4,0.07 -18.7,-0.29 -28,-1.04v-2c-0.67,0.01 -1.33,0.02 -2.02,0.04c-6.72,0.06 -13.3,-0.32 -20,-1.04v-2c-0.71,0.01 -1.42,0.02 -2.15,0.04c-1.38,0.01 -1.38,0.01 -2.79,0.02c-0.91,0.01 -1.83,0.03 -2.77,0.04c-2.29,-0.1 -2.29,-0.1 -3.29,-1.1c-2.86,-0.4 -5.7,-0.75 -8.56,-1.06c-1.21,-0.14 -1.21,-0.14 -2.45,-0.28c-1.99,-0.22 -3.99,-0.44 -5.99,-0.66v-2c-1.3,0.02 -2.6,0.04 -3.94,0.06c-1.35,0.02 -2.71,0.01 -4.06,-0.06l-1,-1c-2.35,-0.4 -4.7,-0.74 -7.06,-1.06c-1.29,-0.18 -2.58,-0.36 -3.91,-0.54c-1,-0.13 -2,-0.26 -3.03,-0.4v-2c-1.76,0.06 -1.76,0.06 -3.56,0.12c-4.1,0.01 -7.52,-0.89 -11.4,-2.12c-1.99,-0.36 -3.99,-0.71 -6,-1v-2c-1.05,0.02 -2.1,0.04 -3.19,0.06c-3.14,-0.05 -5.78,-0.33 -8.81,-1.06v-2c-0.85,0.04 -1.69,0.08 -2.56,0.12c-3.78,-0.13 -6.84,-1.01 -10.4,-2.12c-1.66,-0.35 -3.33,-0.7 -5,-1v-2h-5v-2l-11,-1v-2l-10,-1v-2h-5v-2c-1.92,-0.12 -1.92,-0.12 -3.88,-0.25c-4.67,-0.5 -8.57,-1.93 -12.9,-3.81c-2.08,-0.86 -4.06,-1.46 -6.26,-1.94v-2c-0.99,-0.19 -0.99,-0.19 -2,-0.38c-3.7,-0.77 -7.34,-1.69 -11,-2.62v-2l-8,-1v-2h-3v-2l-8,-1v-2c-0.86,-0.21 -0.86,-0.21 -1.73,-0.43c-3.43,-0.86 -6.85,-1.71 -10.3,-2.57v-2l-8,-1v-2h-3v-2c-0.91,-0.12 -1.81,-0.25 -2.75,-0.38c-2.84,-0.54 -4.78,-1.19 -7.25,-2.62v-2h-6v-3h-4v-2c-1.98,-0.33 -3.96,-0.66 -6,-1v-2c-2.31,-0.33 -4.62,-0.66 -7,-1v-2h-3v-2c-0.91,-0.12 -1.81,-0.25 -2.75,-0.38c-2.86,-0.54 -4.81,-1.08 -7.25,-2.62l-1,-2c-2.02,-0.65 -2.02,-0.65 -4,-1v-2c-0.54,-0.1 -1.07,-0.21 -1.62,-0.31c-3.01,-0.87 -5.61,-2.24 -8.38,-3.69l-4,-2v-2h-4l-1,-2c-2.31,-1.05 -4.64,-2.06 -7,-3v-2l-5,-1v-2c-0.58,-0.12 -1.15,-0.25 -1.75,-0.38c-2.27,-0.63 -4.18,-1.51 -6.25,-2.62v-2l-5,-1v-2h-3v-2l-5,-1v-2h-2v-2c-0.56,-0.1 -1.11,-0.21 -1.69,-0.31c-2.79,-0.83 -4.92,-2.03 -7.31,-3.69v-2h-4l-1,-2c-2.55,-1.63 -5.17,-3.09 -7.81,-4.56c-1.09,-0.71 -1.09,-0.71 -2.19,-1.44v-2l-5,-1v-2h-2l-1,-2c-0.85,-0.49 -1.69,-0.99 -2.56,-1.5c-0.81,-0.49 -1.61,-0.99 -2.44,-1.5v-2h-5v-3h-2l-1,-2c-0.62,-0.14 -1.24,-0.29 -1.88,-0.44c-2.52,-0.66 -3.51,-1.54 -5.12,-3.56v-2h-3v-2c-0.99,-0.33 -1.98,-0.66 -3,-1v-2h-2v-2c-0.72,-0.06 -1.44,-0.12 -2.19,-0.19c-3.69,-1.07 -5.34,-2.92 -7.81,-5.81v-2c-1.13,-0.13 -1.13,-0.13 -2.28,-0.25c-3.3,-0.91 -4.2,-2.02 -6.28,-4.69c-2.28,-2.9 -4.01,-4.63 -7.44,-6.06v-2c-0.99,-0.33 -1.98,-0.66 -3,-1v-2h-2v-2c-0.99,-0.33 -1.98,-0.66 -3,-1v-2c-0.56,-0.06 -1.11,-0.12 -1.69,-0.19c-3.28,-1.15 -4.92,-3.3 -7.31,-5.81c-1.09,-0.91 -2.2,-1.8 -3.31,-2.69c-0.89,-0.76 -1.78,-1.52 -2.69,-2.31v-2h-2c-1.73,-1.68 -1.73,-1.68 -3.62,-3.88c-0.64,-0.71 -1.27,-1.43 -1.92,-2.17c-1.46,-1.95 -1.46,-1.95 -1.46,-3.95l-4,-1v-2h-2c-1.62,-1.38 -1.62,-1.38 -3,-3v-2h-2v-2h-3c-1.01,-1.66 -2.01,-3.33 -3,-5c-1.66,-1.35 -3.32,-2.68 -5,-4v-2h-2c-1.33,-1.36 -1.33,-1.36 -2.81,-3.19c-1.95,-2.36 -3.84,-4.43 -6.07,-6.56c-2.12,-2.25 -2.12,-2.25 -2.12,-5.25c-0.99,-0.33 -1.98,-0.66 -3,-1v-2h-2v-2c-0.99,-0.33 -1.98,-0.66 -3,-1v-2h-2c-1.62,-1.31 -1.62,-1.31 -3,-3v-3h-2c-1.51,-1.43 -1.51,-1.43 -3.12,-3.31c-0.54,-0.62 -1.08,-1.23 -1.64,-1.87c-1.24,-1.82 -1.24,-1.82 -1.24,-4.82h-2c-1.51,-1.43 -1.51,-1.43 -3.12,-3.31c-0.54,-0.62 -1.08,-1.23 -1.64,-1.87c-1.24,-1.82 -1.24,-1.82 -1.24,-4.82h-2v-2c-0.99,-0.33 -1.98,-0.66 -3,-1v-2h-2v-3h-2c-2.67,-2.14 -3.19,-3.77 -4,-7c-0.98,-1.02 -1.98,-2.02 -3,-3v-2h-2v-3c-0.96,-0.4 -0.96,-0.4 -1.94,-0.81c-2.06,-1.19 -2.06,-1.19 -3.06,-4.19l-2,-1v-2h-2l-1,-5h-2c-1.44,-2.19 -1.44,-2.19 -3,-5c-1.87,-3.65 -1.87,-3.65 -5,-6v-4c-0.99,-0.33 -1.98,-0.66 -3,-1c-2.08,-2.92 -3,-4.38 -3,-8h-2v-2h-2l-1,-5h-2v-3h-2l-1,-5h-2c-2.04,-2.91 -3,-4.4 -3,-8h-2l-1,-5h-2c-2.04,-2.91 -3,-4.4 -3,-8h-2v-4h-2c-1.01,-1.77 -2.01,-3.54 -3,-5.31c-0.84,-1.48 -0.84,-1.48 -1.69,-2.99c-1.31,-2.7 -1.31,-2.7 -1.31,-5.7h-2c-0.12,-0.64 -0.25,-1.28 -0.38,-1.94c-0.2,-0.68 -0.41,-1.36 -0.62,-2.06l-2,-1c-3,-6.23 -3,-6.23 -3,-10h-2v-3h-2l-1,-7h-2c-0.5,-2.97 -0.5,-2.97 -1,-6h-2l-1,-7h-2v-3h-2c-3,-6.62 -3,-6.62 -3,-10h-2v-3h-2l-1,-8h-2c-3.43,-7.29 -3.43,-7.29 -3,-12h-2l-1,-8h-2v-3h-2l-1,-8h-2c-0.51,-1.41 -1.01,-2.83 -1.5,-4.25c-0.28,-0.79 -0.56,-1.58 -0.84,-2.39c-0.66,-2.36 -0.66,-2.36 -0.66,-6.36h-2c-0.4,-1.32 -0.4,-1.32 -0.8,-2.67c-0.36,-1.16 -0.71,-2.32 -1.08,-3.52c-0.34,-1.15 -0.69,-2.29 -1.05,-3.48c-1,-3.26 -1,-3.26 -2.19,-6.08c-1,-2.55 -1.04,-4.53 -0.88,-7.25h-2v-5h-2l-1,-10h-2c-0.13,-0.64 -0.27,-1.28 -0.4,-1.93c-0.18,-0.83 -0.36,-1.66 -0.54,-2.51c-0.26,-1.23 -0.26,-1.23 -0.52,-2.49c-0.35,-2.05 -0.35,-2.05 -1.54,-3.07c-0.04,-2 -0.04,-4 0,-6h-2c-0.13,-0.78 -0.27,-1.56 -0.4,-2.37c-0.18,-1.01 -0.36,-2.02 -0.54,-3.07c-0.17,-1.01 -0.35,-2.02 -0.52,-3.06c-0.29,-2.43 -0.29,-2.43 -1.54,-3.5c-0.04,-1.67 -0.04,-3.33 0,-5h-2l-1,-13h-2c-0.13,-0.85 -0.27,-1.71 -0.4,-2.59c-0.18,-1.1 -0.36,-2.21 -0.54,-3.35c-0.17,-1.1 -0.35,-2.2 -0.52,-3.34c-0.26,-2.62 -0.26,-2.62 -1.54,-3.72c-0.04,-2 -0.04,-4 0,-6h-2c-0.13,-1.14 -0.27,-2.29 -0.4,-3.46c-0.18,-1.5 -0.36,-2.99 -0.54,-4.48c-0.13,-1.13 -0.13,-1.13 -0.26,-2.28c-0.14,-3.7 -0.14,-3.7 -1.8,-6.78c-0.14,-2.67 -0.04,-5.32 0,-8h-2c-0.13,-1.22 -0.27,-2.43 -0.4,-3.68c-0.18,-1.59 -0.36,-3.17 -0.54,-4.76c-0.08,-0.8 -0.17,-1.6 -0.26,-2.43c-0.11,-3.89 -0.11,-3.89 -1.8,-7.13c-0.07,-1.69 -0.08,-3.38 -0.06,-5.06c0.01,-0.92 0.02,-1.84 0.02,-2.79c0.02,-0.71 0.03,-1.42 0.04,-2.15h-2c-0.8,-7.36 -1.13,-14.6 -1,-22h-2c-1.02,-10.4 -1.11,-20.6 -1,-31h-2v-22h-2v-100h2v-22h2c-0.01,-1.15 -0.02,-2.3 -0.04,-3.48c-0.06,-9.24 0.13,-18.3 1.04,-27.5h2c-0.01,-0.67 -0.02,-1.33 -0.04,-2.02c-0.06,-6.72 0.32,-13.3 1.04,-20h2c-0.01,-0.71 -0.02,-1.42 -0.04,-2.15c0,-0.92 -0.01,-1.84 -0.02,-2.79c-0.01,-0.91 -0.03,-1.83 -0.04,-2.77c0.1,-2.29 0.1,-2.29 1.1,-3.29c0.4,-2.86 0.75,-5.7 1.06,-8.56c0.09,-0.81 0.18,-1.62 0.28,-2.45c0.22,-1.99 0.44,-3.99 0.66,-5.99h2c-0.02,-1.3 -0.04,-2.6 -0.06,-3.94c-0.02,-1.35 -0.01,-2.71 0.06,-4.06l1,-1c0.4,-2.69 0.75,-5.36 1.06,-8.06c0.09,-0.76 0.18,-1.52 0.28,-2.3l0.66,-5.64h2c-0.04,-0.85 -0.08,-1.69 -0.12,-2.56c0.13,-3.78 1.02,-6.83 2.12,-10.4c0.36,-1.99 0.71,-3.99 1,-6h2c0.5,-6.43 0.5,-6.43 1,-13h2c-0.04,-0.68 -0.08,-1.36 -0.12,-2.06c0.15,-3.55 1.09,-6.55 2.12,-9.94c0.35,-1.66 0.7,-3.33 1,-5h2c-0.04,-0.89 -0.08,-1.77 -0.12,-2.69c0.12,-3.34 0.8,-5.28 2.12,-8.31c0.37,-1.66 0.71,-3.32 1,-5h2l1,-10h2v-5h2c0.08,-1.28 0.16,-2.56 0.25,-3.88c0.5,-4.67 1.93,-8.57 3.81,-12.9c0.86,-2.08 1.46,-4.06 1.94,-6.26h2c0.12,-0.66 0.25,-1.32 0.38,-2c0.77,-3.7 1.69,-7.34 2.62,-11h2l1,-8h2v-3h2l1,-8h2c-0.06,-0.68 -0.12,-1.36 -0.19,-2.06c0.25,-3.86 1.55,-6.45 3.19,-9.94h2l1,-8h2v-3h2c0.12,-0.91 0.25,-1.81 0.38,-2.75c0.54,-2.84 1.19,-4.78 2.62,-7.25h2v-3h2l1,-7h2l1,-6h2l1,-7h2v-3h2c0.12,-0.91 0.25,-1.81 0.38,-2.75c0.54,-2.84 1.19,-4.78 2.62,-7.25h2l1,-5h2c0.1,-0.54 0.21,-1.07 0.31,-1.62c0.87,-3.01 2.24,-5.61 3.69,-8.38c0.39,-0.78 0.78,-1.57 1.19,-2.38c0.27,-0.53 0.53,-1.07 0.81,-1.62h2v-4h2c0.19,-0.87 0.19,-0.87 0.38,-1.75c0.63,-2.27 1.51,-4.18 2.62,-6.25h2l1,-5h2c0.19,-0.87 0.19,-0.87 0.38,-1.75c0.63,-2.27 1.51,-4.18 2.62,-6.25h2l1,-5h2v-3h2l1,-5h2v-2h2c0.15,-0.84 0.15,-0.84 0.31,-1.69c0.83,-2.79 2.03,-4.92 3.69,-7.31h2v-4l2,-1c1.63,-2.55 3.09,-5.17 4.56,-7.81c0.48,-0.72 0.95,-1.45 1.44,-2.19h2l1,-5h2v-2l2,-1c0.45,-0.82 0.91,-1.65 1.38,-2.5c1.62,-2.5 1.62,-2.5 3.81,-3.31c0.6,-0.06 1.19,-0.13 1.81,-0.19c0.12,-0.97 0.25,-1.94 0.38,-2.94c0.2,-1.01 0.41,-2.02 0.62,-3.06l2,-1c0.14,-0.62 0.29,-1.24 0.44,-1.88c0.66,-2.52 1.54,-3.51 3.56,-5.12h2v-3h2l1,-3h2v-2h2c0.06,-0.72 0.12,-1.44 0.19,-2.19c1.07,-3.69 2.92,-5.34 5.81,-7.81h2c0.06,-0.72 0.12,-1.44 0.19,-2.19c1.07,-3.69 2.92,-5.34 5.81,-7.81h2v-3c1.38,-1.69 1.38,-1.69 3,-3h2l1,-3h2v-2h2l1,-3h2c0.06,-0.56 0.12,-1.11 0.19,-1.69c1.15,-3.28 3.3,-4.92 5.81,-7.31c0.91,-1.09 1.8,-2.2 2.69,-3.31c0.76,-0.89 1.52,-1.78 2.31,-2.69h2v-2c1.68,-1.73 1.68,-1.73 3.88,-3.62c0.71,-0.64 1.43,-1.27 2.17,-1.92c1.95,-1.46 1.95,-1.46 3.95,-1.46l1,-4h2v-2c1.38,-1.62 1.38,-1.62 3,-3h2v-2c0.62,-0.08 1.24,-0.16 1.88,-0.25c2.24,-0.53 2.24,-0.53 3.06,-2.44c0.35,-0.76 0.7,-1.52 1.06,-2.31c1.56,-2.14 3.21,-4.03 5,-6h2v-2c1.36,-1.33 1.36,-1.33 3.19,-2.81c2.36,-1.95 4.43,-3.84 6.56,-6.07c2.25,-2.12 2.25,-2.12 5.25,-2.12l1,-3h2v-2h2l1,-3h2v-2c1.31,-1.62 1.31,-1.62 3,-3h3v-2c1.43,-1.51 1.43,-1.51 3.31,-3.12c0.92,-0.81 0.92,-0.81 1.87,-1.64c1.82,-1.24 1.82,-1.24 4.82,-1.24v-2c1.43,-1.51 1.43,-1.51 3.31,-3.12c0.92,-0.81 0.92,-0.81 1.87,-1.64c1.82,-1.24 1.82,-1.24 4.82,-1.24v-2h2l1,-3h2v-2h3v-2c2.14,-2.67 3.77,-3.19 7,-4c0.74,-0.77 0.74,-0.77 1.5,-1.56c1.5,-1.44 1.5,-1.44 5.5,-1.44c0.37,-1.18 0.37,-1.18 0.75,-2.38c1.43,-3 2.28,-3.37 5.25,-4.62l1,-2h2v-2l5,-1v-2c2.19,-1.44 2.19,-1.44 5,-3c3.65,-1.87 3.65,-1.87 6,-5h4l1,-3c2.92,-2.08 4.38,-3 8,-3v-2h2v-2l5,-1v-2h3v-2l5,-1v-2c2.91,-2.04 4.4,-3 8,-3v-2l5,-1v-2c2.91,-2.04 4.4,-3 8,-3v-2h4v-2c1.77,-1.01 3.54,-2.01 5.31,-3c0.99,-0.56 1.97,-1.11 2.99,-1.69c2.7,-1.31 2.7,-1.31 5.7,-1.31v-2l5,-1v-2c6.62,-3 6.62,-3 10,-3v-2h3v-2c3.47,-0.5 3.47,-0.5 7,-1v-2c1.98,-0.33 3.96,-0.66 6,-1v-2c3.47,-0.5 3.47,-0.5 7,-1v-2h3v-2c6.62,-3 6.62,-3 10,-3v-2h3v-2l8,-1v-2c7.29,-3.43 7.29,-3.43 12,-3v-2l8,-1v-2h3v-2l8,-1v-2c1.41,-0.51 2.83,-1.01 4.25,-1.5c0.79,-0.28 1.58,-0.56 2.39,-0.84c2.36,-0.66 2.36,-0.66 6.36,-0.66v-2c0.88,-0.27 1.76,-0.53 2.67,-0.8c1.16,-0.36 2.32,-0.71 3.52,-1.08c1.15,-0.34 2.29,-0.69 3.48,-1.05c3.26,-1 3.26,-1 6.08,-2.19c2.55,-1 4.53,-1.04 7.25,-0.88v-2h5v-2l10,-1v-2c0.96,-0.2 0.96,-0.2 1.93,-0.4c0.83,-0.18 1.66,-0.36 2.51,-0.54c1.23,-0.26 1.23,-0.26 2.49,-0.52c2.05,-0.35 2.05,-0.35 3.07,-1.54c2,-0.04 4,-0.04 6,0v-2c0.78,-0.13 1.56,-0.27 2.37,-0.4c1.01,-0.18 2.02,-0.36 3.07,-0.54c1.01,-0.17 2.02,-0.35 3.06,-0.52c2.43,-0.29 2.43,-0.29 3.5,-1.54c1.67,-0.04 3.33,-0.04 5,0v-2l13,-1v-2c0.85,-0.13 1.71,-0.27 2.59,-0.4c1.1,-0.18 2.21,-0.36 3.35,-0.54c1.1,-0.17 2.2,-0.35 3.34,-0.52c2.62,-0.26 2.62,-0.26 3.72,-1.54c2.67,-0.14 5.32,-0.04 8,0v-2c1.5,-0.2 1.5,-0.2 3.03,-0.4c1.29,-0.18 2.58,-0.36 3.91,-0.54c1.29,-0.17 2.57,-0.35 3.9,-0.52c3.01,-0.2 3.01,-0.2 4.16,-1.54c2.67,-0.14 5.32,-0.04 8,0v-2c1.22,-0.13 2.43,-0.27 3.68,-0.4c1.59,-0.18 3.17,-0.36 4.76,-0.54c0.8,-0.08 1.6,-0.17 2.43,-0.26c3.89,-0.11 3.89,-0.11 7.13,-1.8c1.69,-0.07 3.38,-0.08 5.06,-0.06c0.92,0.01 1.84,0.02 2.79,0.02c0.71,0.02 1.42,0.03 2.15,0.04v-2c7.36,-0.8 14.6,-1.13 22,-1v-2c10.4,-0.83 20.6,-1.12 31,-1v-2h22v-2zM293,334v2h-2v2c-4.45,0.5 -4.45,0.5 -9,1v2h-2v2l-5,1v2c-0.58,0.09 -1.17,0.19 -1.77,0.29c-2.73,0.87 -3.99,2.1 -5.98,4.15c-0.61,0.61 -1.23,1.23 -1.86,1.87c-1.6,1.58 -1.6,1.58 -1.39,3.69c-0.64,0.27 -1.28,0.54 -1.94,0.81c-2.39,1.08 -2.39,1.08 -3.06,4.19c-1.32,0.68 -2.66,1.35 -4,2c-2.25,1.92 -2.25,1.92 -4,4v2c-0.64,0.27 -1.28,0.54 -1.94,0.81c-2.39,1.08 -2.39,1.08 -3.06,4.19c-1.33,0.68 -2.66,1.34 -4,2c-1.63,1.45 -3.21,2.95 -4.75,4.5c-0.8,0.79 -1.6,1.59 -2.42,2.41c-2.05,1.88 -2.05,1.88 -1.83,4.09c-0.64,0.27 -1.28,0.54 -1.94,0.81c-2.39,1.08 -2.39,1.08 -3.06,4.19c-1.32,0.68 -2.66,1.35 -4,2c-2.27,1.85 -2.27,1.85 -4,4v3c-0.64,0.1 -1.28,0.21 -1.94,0.31c-0.68,0.23 -1.36,0.46 -2.06,0.69l-1,3c-2.06,1.19 -2.06,1.19 -4,2v3c-0.56,0.06 -1.11,0.12 -1.69,0.19c-3.3,1.16 -5.03,3.21 -7.31,5.81v2c-0.96,0.4 -0.96,0.4 -1.94,0.81c-2.39,1.08 -2.39,1.08 -3.06,4.19c-1.33,0.68 -2.66,1.34 -4,2c-1.63,1.45 -3.21,2.95 -4.75,4.5c-0.8,0.79 -1.6,1.59 -2.42,2.41c-2.05,1.88 -2.05,1.88 -1.83,4.09c-0.96,0.4 -0.96,0.4 -1.94,0.81c-2.39,1.08 -2.39,1.08 -3.06,4.19c-1.32,0.68 -2.66,1.35 -4,2c-2.25,1.92 -2.25,1.92 -4,4v2c-0.96,0.4 -0.96,0.4 -1.94,0.81c-2.39,1.08 -2.39,1.08 -3.06,4.19c-1.33,0.68 -2.66,1.34 -4,2c-1.63,1.45 -3.21,2.95 -4.75,4.5c-0.8,0.79 -1.6,1.59 -2.42,2.41c-2.05,1.88 -2.05,1.88 -1.83,4.09c-0.96,0.4 -0.96,0.4 -1.94,0.81c-2.39,1.08 -2.39,1.08 -3.06,4.19c-1.32,0.68 -2.66,1.35 -4,2c-2.27,1.85 -2.27,1.85 -4,4v3c-0.64,0.1 -1.28,0.21 -1.94,0.31c-1.02,0.34 -1.02,0.34 -2.06,0.69l-1,3c-2.06,1.19 -2.06,1.19 -4,2v3c-0.56,0.06 -1.11,0.12 -1.69,0.19c-3.3,1.16 -5.03,3.21 -7.31,5.81v2c-0.96,0.4 -0.96,0.4 -1.94,0.81c-2.39,1.08 -2.39,1.08 -3.06,4.19c-1.33,0.68 -2.66,1.34 -4,2c-1.63,1.45 -3.21,2.95 -4.75,4.5c-1.2,1.19 -1.2,1.19 -2.42,2.41c-2.05,1.88 -2.05,1.88 -1.83,4.09c-0.96,0.4 -0.96,0.4 -1.94,0.81c-2.39,1.08 -2.39,1.08 -3.06,4.19c-1.32,0.68 -2.66,1.35 -4,2c-2.25,1.92 -2.25,1.92 -4,4v2c-0.64,0.27 -1.28,0.54 -1.94,0.81c-2.39,1.08 -2.39,1.08 -3.06,4.19c-0.66,0.31 -1.32,0.62 -2,0.94c-2.21,0.88 -2.21,0.88 -2.75,3.18c-0.08,0.62 -0.16,1.24 -0.25,1.88h-2c-2.29,4.81 -2.29,4.81 -3,10h-2c-0.92,2.75 -1.11,4.36 -1.06,7.19c0.03,1.88 0.03,1.88 0.06,3.81h-2v7h-2c-0.03,2.15 -0.05,4.29 -0.06,6.44c-0.01,1.19 -0.03,2.39 -0.04,3.62c-0.24,2.83 -0.24,2.83 1.1,3.94c0.23,1.51 0.41,3.04 0.56,4.56c0.09,0.83 0.17,1.66 0.26,2.51c0.06,0.63 0.12,1.27 0.18,1.93h2c0.5,4.95 0.5,4.95 1,10h2c0.12,0.58 0.25,1.15 0.38,1.75c0.63,2.27 1.51,4.18 2.62,6.25h2l1,5h2v2c1.33,1.67 1.33,1.67 3,3h2v2c1.33,1.67 1.33,1.67 3,3h2l1,3h2v2c1.33,1.67 1.33,1.67 3,3h2v2c1.33,1.67 1.33,1.67 3,3h2l1,4c0.64,0.1 1.28,0.21 1.94,0.31c1.02,0.34 1.02,0.34 2.06,0.69c0.5,1.49 0.5,1.49 1,3h2v2c1.33,1.67 1.33,1.67 3,3h2v2c1.33,1.67 1.33,1.67 3,3h2c0.5,1.49 0.5,1.49 1,3h2v2h3v3h2v2c1.33,1.67 1.33,1.67 3,3h2v2c1.33,1.67 1.33,1.67 3,3h2c0.5,1.49 0.5,1.49 1,3h2v2c1.33,1.67 1.33,1.67 3,3h2v2c1.33,1.67 1.33,1.67 3,3h2c0.5,1.49 0.5,1.49 1,3h2v2h2c0.5,1.49 0.5,1.49 1,3h2v2c1.33,1.67 1.33,1.67 3,3h2v2c1.33,1.67 1.33,1.67 3,3h2c0.5,1.49 0.5,1.49 1,3h2v2c1.33,1.67 1.33,1.67 3,3h2v2c1.33,1.67 1.33,1.67 3,3h2l1,4c0.64,0.1 1.28,0.21 1.94,0.31c1.02,0.34 1.02,0.34 2.06,0.69c0.5,1.49 0.5,1.49 1,3h2v2c1.33,1.67 1.33,1.67 3,3h2v2c1.33,1.67 1.33,1.67 3,3h2l1,3h2v2h3v3h2v2c1.33,1.67 1.33,1.67 3,3h2v2c1.33,1.67 1.33,1.67 3,3h2l1,3h2v2c1.33,1.67 1.33,1.67 3,3h2v2c1.33,1.67 1.33,1.67 3,3h2l1,3h2v2h2l1,3h2v2c1.33,1.67 1.33,1.67 3,3h2v2c1.33,1.67 1.33,1.67 3,3h2l1,3h2v2c1.33,1.67 1.33,1.67 3,3h2v2c1.33,1.67 1.33,1.67 3,3h2l1,4c0.64,0.1 1.28,0.21 1.94,0.31c0.68,0.23 1.36,0.46 2.06,0.69l1,3h4l1,3c2.6,1.65 3.86,2 7,2v2c1.98,0.33 3.96,0.66 6,1v2c11,4.22 23.5,3.77 35,2v-2h7v-2c1.98,-0.33 3.96,-0.66 6,-1v-2c0.58,-0.12 1.15,-0.25 1.75,-0.38c2.27,-0.63 4.18,-1.51 6.25,-2.62v-2l5,-1v-2l4,-1l1,-4h2c1.67,-1.33 1.67,-1.33 3,-3v-2h2c1.67,-1.33 1.67,-1.33 3,-3v-2l4,-1c0.1,-0.64 0.21,-1.28 0.31,-1.94c0.23,-0.68 0.46,-1.36 0.69,-2.06c0.99,-0.33 1.98,-0.66 3,-1v-2h2c1.67,-1.33 1.67,-1.33 3,-3v-2c0.99,-0.33 1.98,-0.66 3,-1v-2h2v-2c0.99,-0.33 1.98,-0.66 3,-1v-2h2v-2c0.99,-0.33 1.98,-0.66 3,-1v-2h2c1.67,-1.33 1.67,-1.33 3,-3v-2c0.99,-0.33 1.98,-0.66 3,-1v-2h2v-2c0.99,-0.33 1.98,-0.66 3,-1v-2h2c1.67,-1.33 1.67,-1.33 3,-3v-2c0.99,-0.33 1.98,-0.66 3,-1v-2h2v-2c0.99,-0.33 1.98,-0.66 3,-1v-2h2v-2c0.99,-0.33 1.98,-0.66 3,-1v-2h2c1.67,-1.33 1.67,-1.33 3,-3v-2c0.99,-0.33 1.98,-0.66 3,-1v-2l4,-1l1,-4h2c1.67,-1.33 1.67,-1.33 3,-3v-2h2c1.67,-1.33 1.67,-1.33 3,-3v-2l4,-1c0.1,-0.64 0.21,-1.28 0.31,-1.94c0.23,-0.68 0.46,-1.36 0.69,-2.06c0.99,-0.33 1.98,-0.66 3,-1v-2h2c1.67,-1.33 1.67,-1.33 3,-3v-2c0.99,-0.33 1.98,-0.66 3,-1v-2h2v-2c0.99,-0.33 1.98,-0.66 3,-1v-2h2v-2c0.99,-0.33 1.98,-0.66 3,-1v-2h2c1.67,-1.33 1.67,-1.33 3,-3v-2c0.99,-0.33 1.98,-0.66 3,-1v-2h2v-2c0.99,-0.33 1.98,-0.66 3,-1v-2h2c1.67,-1.33 1.67,-1.33 3,-3v-2c0.99,-0.33 1.98,-0.66 3,-1v-2h2v-2c0.99,-0.33 1.98,-0.66 3,-1v-2h2v-2c0.99,-0.33 1.98,-0.66 3,-1v-2h2c1.67,-1.33 1.67,-1.33 3,-3v-2c0.99,-0.33 1.98,-0.66 3,-1v-2l4,-1l1,-4h2c1.67,-1.33 1.67,-1.33 3,-3v-2h2c1.67,-1.33 1.67,-1.33 3,-3v-2l4,-1c0.1,-0.64 0.21,-1.28 0.31,-1.94c0.23,-0.68 0.46,-1.36 0.69,-2.06c0.99,-0.33 1.98,-0.66 3,-1v-2h2c1.67,-1.33 1.67,-1.33 3,-3v-2h2c0.08,-0.78 0.16,-1.57 0.25,-2.38c0.25,-0.86 0.49,-1.73 0.75,-2.62c0.66,-0.31 1.32,-0.62 2,-0.94c0.66,-0.35 1.32,-0.7 2,-1.06c0.82,-3.06 0.82,-3.06 1,-6h2c2.26,-5.36 3.36,-9.2 3,-15h2v-21h-2c0.03,-0.92 0.03,-0.92 0.07,-1.86c0.02,-0.81 0.04,-1.62 0.05,-2.45c0.04,-1.2 0.04,-1.2 0.08,-2.43c-0.04,-2.54 -0.04,-2.54 -2.2,-5.26c-0.38,-1.66 -0.73,-3.32 -1,-5h-2c-0.12,-0.58 -0.25,-1.15 -0.38,-1.75c-0.63,-2.27 -1.51,-4.18 -2.62,-6.25h-2l-1,-3h-2c-0.1,-0.59 -0.2,-1.18 -0.3,-1.79c-0.84,-2.65 -1.93,-3.75 -3.95,-5.65c-0.87,-0.83 -0.87,-0.83 -1.77,-1.68c-0.65,-0.62 -1.31,-1.24 -1.98,-1.88c-3.89,-3.87 -7.75,-7.77 -11.6,-11.7c-3.58,-3.6 -7.16,-7.2 -10.8,-10.8c-1.89,-1.9 -3.78,-3.81 -5.67,-5.71c-2.73,-2.76 -5.47,-5.5 -8.2,-8.25c-0.85,-0.86 -1.7,-1.71 -2.57,-2.6c-0.79,-0.78 -1.57,-1.57 -2.38,-2.38c-0.69,-0.69 -1.38,-1.39 -2.09,-2.11c-1.6,-1.7 -1.6,-1.7 -3.73,-1.48c-0.4,-0.89 -0.4,-0.89 -0.81,-1.8c-1.2,-2.22 -2.4,-3.65 -4.18,-5.42c-0.61,-0.6 -1.21,-1.21 -1.83,-1.83c-0.66,-0.64 -1.31,-1.28 -1.98,-1.95c-0.67,-0.67 -1.35,-1.34 -2.04,-2.03c-2.15,-2.14 -4.31,-4.27 -6.47,-6.41c-1.45,-1.43 -2.89,-2.86 -4.33,-4.3c-2.66,-2.64 -5.32,-5.28 -7.98,-7.91c-5.03,-4.98 -10,-9.99 -15,-15c-3.58,-3.6 -7.16,-7.2 -10.8,-10.8c-1.89,-1.9 -3.78,-3.81 -5.67,-5.71c-2.73,-2.76 -5.47,-5.5 -8.2,-8.25c-0.85,-0.86 -1.7,-1.71 -2.57,-2.6c-0.79,-0.78 -1.57,-1.57 -2.38,-2.38c-0.69,-0.69 -1.38,-1.39 -2.09,-2.11c-1.6,-1.7 -1.6,-1.7 -3.73,-1.48c-0.27,-0.59 -0.54,-1.19 -0.81,-1.8c-1.2,-2.22 -2.4,-3.65 -4.18,-5.42l-1.83,-1.83c-0.66,-0.64 -1.31,-1.28 -1.98,-1.95c-0.67,-0.67 -1.35,-1.34 -2.04,-2.03c-2.15,-2.14 -4.31,-4.27 -6.47,-6.41c-1.45,-1.43 -2.89,-2.86 -4.33,-4.3c-2.66,-2.64 -5.32,-5.28 -7.98,-7.91c-3.96,-3.92 -7.92,-7.85 -11.8,-11.9c-1.22,-1.24 -2.43,-2.49 -3.65,-3.73c-0.61,-0.64 -1.23,-1.27 -1.86,-1.93c-0.59,-0.61 -1.19,-1.21 -1.8,-1.84c-0.54,-0.55 -1.07,-1.09 -1.62,-1.66c-1.87,-1.49 -3.33,-1.91 -5.66,-2.32v-2l-5,-1v-2h-3v-2c-2.31,-0.33 -4.62,-0.66 -7,-1v-2h-5v-2c-5.63,-1.19 -11.2,-1.15 -16.9,-1.12c-1.43,-0.01 -1.43,-0.01 -2.89,-0.02c-5.5,0.01 -10.8,0.33 -16.2,1.14zM-331,425c-1.89,0.35 -3.79,0.65 -5.69,0.94c-4.28,0.68 -8.25,1.48 -12.3,3.06v3c-0.76,0.14 -1.53,0.29 -2.31,0.44c-3.84,0.8 -6.15,1.54 -8.69,4.56v2h-2c-1.67,1.33 -1.67,1.33 -3,3v2c-0.99,0.33 -1.98,0.66 -3,1v2h-2v2h-2l-1,5h-2l-1,6h-2v5h-2c-1.04,5.98 -1.14,11.8 -1.13,17.9v3.29c-0.01,3.62 0,7.25 0,10.9v7.8c-0.01,6.33 -0.01,12.7 -0.01,19c0.01,5.15 0.01,10.3 0.01,15.4v2.22c0,1.49 0,2.98 -0.01,4.47c0,14 0.01,27.9 0.01,41.8c0.01,12 0,23.9 0,35.9c-0.01,13.9 -0.01,27.8 0,41.7v4.45v2.21c0,5.13 0,10.3 -0.01,15.4c0,6.92 0,13.8 0.01,20.8v7.62c-0.01,3.47 0,6.93 0,10.4v3.05c0.01,4.68 0.16,9.08 1.13,13.7h2v5h2c0.1,0.89 0.21,1.77 0.31,2.69c0.71,3.39 1.65,5.53 3.69,8.31h2v2h2l1,5h2v2c1.71,1.59 1.71,1.59 3.88,3.12c1.07,0.81 1.07,0.81 2.17,1.64c1.85,1.42 1.85,1.42 3.95,1.24v2c1.98,0.33 3.96,0.66 6,1v2h2v2l10,1v2h10v2c31.7,0.02 63.4,0.04 95.1,0.05h11.2c0.74,0.01 1.49,0.01 2.26,0.01c12.1,0 24.1,0.01 36.2,0.02c12.4,0.01 24.8,0.01 37.1,0.01c7.64,0.01 15.3,0.01 22.9,0.02h17.6c2.41,0 4.82,0.01 7.22,0.01h9.82c0.96,0 1.93,0.01 2.92,0.01c0.87,0 1.74,0 2.64,-0.01h2.29c1.75,0.07 1.75,0.07 2.72,-1.12c1.68,-0.23 3.37,-0.41 5.06,-0.56c1.38,-0.13 1.38,-0.13 2.79,-0.26c0.71,-0.06 1.42,-0.12 2.15,-0.18v-2c0.6,-0.05 1.21,-0.1 1.83,-0.15c0.8,-0.07 1.6,-0.15 2.42,-0.23c0.79,-0.06 1.58,-0.13 2.39,-0.21c2.45,-0.43 4.21,-1.2 6.36,-2.41v-2c1.98,-0.33 3.96,-0.66 6,-1v-2c2.33,-1.21 4.5,-2.17 7,-3c1.71,-1.38 1.71,-1.38 3,-3v-2h2l1,-5h2v-2l4,-1l1,-7h2l1,-8h2c0.74,-3.31 1.13,-6.36 1.13,-9.75v-2.82v-3.08v-3.29c0.01,-3.65 0,-7.29 0,-10.9v-7.83c0.01,-6.36 0.01,-12.7 0.01,-19.1c-0.01,-5.17 -0.01,-10.3 -0.01,-15.5v-2.23c0,-1.5 0,-2.99 0.01,-4.48c0,-14 -0.01,-28 -0.01,-42c-0.01,-12 0,-24 0,-36.1c0.01,-14 0.01,-27.9 0,-41.9v-4.47v-2.22c0,-5.16 0,-10.3 0.01,-15.5c0,-6.95 0,-13.9 -0.01,-20.8v-7.65c0.01,-3.48 0,-6.96 0,-10.4v-3.07c-0.01,-5.05 -0.26,-9.86 -1.13,-14.8h-2l-1,-8h-2l-1,-5h-2v-3h-2v-2h-2l-1,-3h-2v-2c-1.33,-1.67 -1.33,-1.67 -3,-3h-2l-1,-3h-4c-0.21,-0.64 -0.41,-1.28 -0.62,-1.94c-1.28,-2.41 -1.28,-2.41 -4.5,-2.81c-0.95,-0.08 -1.9,-0.17 -2.88,-0.25v-2c-5.72,-2.45 -9.79,-3.33 -16,-3v-2c-32.8,-0.02 -65.7,-0.04 -98.6,-0.05h-11.6c-1.16,-0.01 -1.16,-0.01 -2.34,-0.01c-12.5,0 -25,-0.01 -37.5,-0.02c-12.8,-0.01 -25.6,-0.01 -38.5,-0.01c-7.91,-0.01 -15.8,-0.01 -23.8,-0.02h-18.2c-2.49,0 -4.98,-0.01 -7.48,-0.01h-10.2c-1,0 -2,-0.01 -3.03,-0.01c-0.9,0 -1.8,0 -2.73,0.01h-2.37c-1.81,-0.07 -1.81,-0.07 -2.78,1.12zM-337,907v2h-5v2c-2.31,0.33 -4.62,0.66 -7,1v2h-3v2l-5,1v2h-3v2c-0.99,0.33 -1.98,0.66 -3,1v2c-0.64,0.27 -1.28,0.54 -1.94,0.81c-2.39,1.08 -2.39,1.08 -3.06,4.19h-2c-2.04,2.91 -3,4.4 -3,8h-2l-1,6h-2c-2.6,7.23 -3.43,13.6 -3.37,21.3c0,1.09 0,2.19 -0.01,3.32c0,3.64 0.01,7.28 0.02,10.9v7.87c-0.01,6.36 0,12.7 0.02,19.1c0.02,7.42 0.02,14.8 0.02,22.3c0,13.2 0.01,26.5 0.04,39.7c0.02,12.8 0.04,25.7 0.04,38.5v2.4v4.78v2.39v2.38c0.01,12.2 0.02,24.5 0.03,36.7c0,4.44 0.01,8.87 0.01,13.3c0.01,7.69 0.02,15.4 0.03,23.1c0.01,2.55 0.01,5.11 0.01,7.66c0,3.48 0.01,6.97 0.02,10.4v3.07c0.02,4.69 0.17,9.11 1.14,13.7h2v5h2c0.12,1.13 0.25,2.27 0.38,3.44c0.2,1.17 0.41,2.35 0.62,3.56l2,1c0.5,0.85 0.99,1.69 1.5,2.56c0.74,1.21 0.74,1.21 1.5,2.44h2c1.21,2.33 2.17,4.5 3,7c3.22,2.33 3.22,2.33 7,3l1,3c1.32,0.7 2.65,1.37 4,2l1,2c1.9,0.47 1.9,0.47 4.06,0.62c1.3,0.13 2.6,0.25 3.94,0.38v2h4v2c6.31,0.93 12.4,1.14 18.8,1.13h3.24c3.56,0.01 7.13,0 10.7,0h7.68c6.23,0.01 12.4,0.01 18.7,0.01c5.06,-0.01 10.1,-0.01 15.2,-0.01h2.18c1.47,0 2.93,0 4.4,0.01c13.7,0 27.5,-0.01 41.2,-0.01c11.8,-0.01 23.6,0 35.3,0c13.7,0.01 27.4,0.01 41,0h4.38h2.17c5.06,0 10.1,0 15.2,0.01c6.8,0 13.6,0 20.4,-0.01h7.5c3.41,0.01 6.82,0 10.2,0h3c5.01,-0.01 9.76,-0.27 14.7,-1.13v-2h5v-2c1.98,-0.33 3.96,-0.66 6,-1v-2h4v-2c0.84,-0.09 0.84,-0.09 1.69,-0.19c3.3,-1.16 5.03,-3.21 7.31,-5.81v-2c0.64,-0.27 1.28,-0.54 1.94,-0.81c2.39,-1.08 2.39,-1.08 3.06,-4.19c1.94,-1.12 1.94,-1.12 4,-2c2.76,-1.38 2.99,-2.91 4.12,-5.75c0.36,-0.86 0.71,-1.72 1.08,-2.61c0.82,-2.7 0.95,-4.84 0.8,-7.64h2c0.85,-2.96 1.13,-5.6 1.13,-8.68v-2.85v-3.12v-3.33c0.01,-3.69 0,-7.38 0,-11.1v-7.93c0.01,-6.43 0.01,-12.9 0.01,-19.3c-0.01,-5.23 -0.01,-10.5 -0.01,-15.7v-2.26c0,-1.51 0,-3.02 0.01,-4.53c0,-14.2 -0.01,-28.4 -0.01,-42.6c-0.01,-12.2 0,-24.3 0,-36.5c0.01,-14.1 0.01,-28.3 0,-42.4v-4.52v-2.25c0,-5.22 0,-10.4 0.01,-15.7c0,-6.37 0,-12.7 -0.01,-19.1v-9.74c0.01,-3.53 0,-7.05 0,-10.6v-3.11c-0.01,-4.72 -0.15,-9.16 -1.13,-13.8h-2c-0.1,-0.85 -0.21,-1.69 -0.31,-2.56c-0.77,-3.85 -2.05,-6.88 -3.69,-10.4h-2v-2h-2v-3h-2c-0.27,-0.64 -0.54,-1.28 -0.81,-1.94c-1.08,-2.39 -1.08,-2.39 -4.19,-3.06l-1,-3h-2v-2h-3v-2l-5,-1v-2c-3.73,-2.03 -5.67,-3 -10,-3v-2c-13.4,-4.56 -28.4,-3.14 -42.3,-3.13h-7.08c-6.39,-0.01 -12.8,-0.01 -19.2,0h-12h-2.02c-1.35,0 -2.71,0 -4.06,-0.01c-12.7,0 -25.3,0.01 -38,0.01c-10.8,0.01 -21.7,0 -32.5,0c-12.6,-0.01 -25.2,-0.01 -37.8,0h-4.05h-2.01c-4.64,0 -9.29,0 -13.9,-0.01c-6.27,0 -12.5,0 -18.8,0.01h-6.88c-11.8,-0.01 -23.6,0.1 -35.4,1.13zM141,909v2l-8,1v2h-2v2c-1.98,0.33 -3.96,0.66 -6,1v2h-2c-1.67,1.33 -1.67,1.33 -3,3v2c-0.99,0.33 -1.98,0.66 -3,1v2h-2v2c-0.99,0.33 -1.98,0.66 -3,1v2h-2c-2.29,4.81 -2.29,4.81 -3,10h-2l-1,8h-2v8h-2v257h2v8h2c-0.02,1.09 -0.04,2.19 -0.06,3.31c-0.13,3.63 -0.13,3.63 1.06,6.69h2l1,6h2v2h2l1,5h2v2c1.45,1.58 1.45,1.58 3.31,3.12c0.92,0.81 0.92,0.81 1.87,1.64c1.87,1.52 1.87,1.52 4.82,1.24l1,3h5c0.5,1.98 0.5,1.98 1,4c1.98,0.33 3.96,0.66 6,1v2h5v2c6.33,0.94 12.5,1.14 18.9,1.13h3.25c3.58,0.01 7.16,0 10.7,0h7.72c6.26,0.01 12.5,0.01 18.8,0.01c5.08,-0.01 10.2,-0.01 15.2,-0.01h2.19c1.47,0 2.95,0 4.42,0.01c13.8,0 27.6,-0.01 41.4,-0.01c11.8,-0.01 23.6,0 35.5,0c13.7,0.01 27.5,0.01 41.2,0h4.4h2.19c5.07,0 10.2,0 15.2,0.01c6.83,0 13.7,0 20.5,-0.01h7.53c3.42,0.01 6.84,0 10.3,0h3.02c4.64,-0.01 9.02,-0.17 13.6,-1.13v-2h5v-2c0.91,-0.12 1.82,-0.25 2.75,-0.38c2.84,-0.54 4.78,-1.19 7.25,-2.62v-2c1.05,-0.03 1.05,-0.03 2.12,-0.06c3.77,-1.23 5.17,-3.28 7.55,-6.35c1.33,-1.59 1.33,-1.59 3.33,-2.59v-2h2v-2h2l1,-5h2l1,-6h2l1,-8h2v-10h2v-254h-2v-11h-2l-1,-8h-2c-0.1,-0.87 -0.21,-1.73 -0.31,-2.62c-0.74,-3.62 -1.73,-6.26 -3.69,-9.38c-2.08,-0.96 -2.08,-0.96 -4,-1v-2h-2l-1,-5c-0.64,-0.12 -1.28,-0.25 -1.94,-0.38c-0.68,-0.2 -1.36,-0.41 -2.06,-0.62l-1,-2h-2l-1,-3h-4v-2h-3v-2c-15.9,-7.14 -32.3,-6.15 -49.4,-6.13h-7.09c-6.4,-0.01 -12.8,-0.01 -19.2,0h-12h-2.02c-1.35,0 -2.71,0 -4.06,-0.01c-12.7,0 -25.3,0.01 -38,0.01c-10.8,0.01 -21.7,0 -32.5,0c-12.6,-0.01 -25.2,-0.01 -37.8,0h-4.05h-2.01c-4.65,0 -9.3,0 -14,-0.01c-6.27,0 -12.5,0 -18.8,0.01h-6.88c-20.4,-0.73 -20.4,-0.73 -40.2,3.13z"></path></g></g></svg>