<svg version="1.1" xmlns="http://www.w3.org/2000/svg" xmlns:xlink="http://www.w3.org/1999/xlink" width="1280" height="1280" viewBox="0,0,256,256"><g fill="#613c7f" fill-rule="nonzero" stroke="none" stroke-width="1" stroke-linecap="butt" stroke-linejoin="miter" stroke-miterlimit="10" stroke-dasharray="" stroke-dashoffset="0" font-family="none" font-weight="none" font-size="none" text-anchor="none" style="mix-blend-mode: normal"><g transform="translate(0.06755,-0.019) scale(0.16,0.16)"><path transform="translate(52.4,110)" d="M0,0c1.06,0 2.12,0 3.21,-0.01c3.57,0 7.14,0 10.7,0.01c2.59,-0.01 5.17,-0.01 7.76,-0.01c5.66,0 11.3,-0.01 17,0c8.46,0 16.9,-0.01 25.4,-0.01c14.4,-0.01 28.8,-0.01 43.3,-0.01c14.6,0 29.3,-0.01 43.9,-0.01h2.8c3.76,0 7.52,0 11.3,-0.01c44.5,-0.01 89,-0.02 134,-0.02c22.2,-0.01 44.3,-0.01 66.5,-0.01c71.1,-0.02 142,-0.03 213,-0.03h10.2h20.4h23.9h6.85c73.4,-0.01 147,-0.02 220,-0.04c52.7,-0.02 105,-0.04 158,-0.04h3.29c23.8,0 47.6,0 71.4,-0.01h25.5h6.35c33.8,0 67.5,-0.01 101,-0.02c34,-0.02 68,-0.02 102,-0.01h14.1h2.79c14.6,0 29.2,0 43.8,-0.02c14.3,-0.01 28.7,-0.01 43,0c8.41,0.01 16.8,0.01 25.2,-0.01c6.24,-0.01 12.5,0 18.7,0.01c2.51,0 5.03,0 7.54,-0.01c3.4,-0.01 6.81,0 10.2,0.01c0.96,0 1.93,-0.01 2.93,-0.02c13.6,0.11 26.2,3.93 36,13.6c12.8,13.2 15.9,27.9 15.8,45.6c0.01,1.68 0.01,3.36 0.02,5.04c0.02,4.6 0.01,9.21 -0.01,13.8c0,5.01 0.01,10 0.02,15c0.02,8.78 0.02,17.6 0.01,26.3c-0.01,13 0,26.1 0.01,39.2c0.03,24 0.03,48 0.02,72c0,3.4 0,6.8 -0.01,10.2v2.05c0,15 0,29.9 0.01,44.9v6.15c0,5.49 0,11 0.01,16.5c0,15.4 0,30.7 0.01,46.1v2.11c0,22.3 0,44.6 -0.01,66.8v2.19c0,8.05 0,16.1 -0.01,24.2v2.2v8.83c-0.02,46.5 -0.01,93 0.02,140c0.01,11.7 0.02,23.4 0.02,35.2v2.19c0.02,22.2 0.02,44.5 0.02,66.8v2.12v46c0,5.49 0,11 -0.01,16.5v4.09c0,21.8 0.01,43.5 0.03,65.2c0.01,22.5 0.01,45 -0.01,67.5c-0.01,13 -0.01,26 0.01,38.9c0.01,8.67 0.01,17.3 -0.01,26c-0.01,4.94 -0.02,9.88 0,14.8c0.02,4.49 0.01,8.99 -0.01,13.5c-0.01,1.61 0,3.22 0.01,4.83c0.12,15.8 -4.39,30 -15.4,41.7c-11.8,11.2 -25.7,13.9 -41.4,13.9h-2.72c-3.01,0.01 -6.01,0 -9.02,0h-6.53c-5.98,0 -12,0 -17.9,-0.01h-19.4c-11.2,0 -22.3,0 -33.5,-0.01c-11.7,0 -23.4,-0.01 -35.2,-0.01h-2.21h-11.1c-26.2,0 -52.4,-0.01 -78.6,-0.02c-25.5,-0.01 -50.9,-0.01 -76.4,-0.02h-2.38h-23.6c-16,0 -32.1,-0.01 -48.2,-0.01h-2.24c-49.3,-0.01 -98.6,-0.03 -148,-0.04c0.31,1.22 0.31,1.22 0.63,2.48c0.41,1.61 0.41,1.61 0.82,3.26c0.27,1.06 0.54,2.13 0.81,3.23c0.9,3.65 1.62,7.29 2.3,11c0.28,1.49 0.56,2.99 0.84,4.48c0.15,0.78 0.3,1.56 0.45,2.37c6.85,35.9 15.4,71.8 26.9,106c1.44,4.41 2.8,8.83 4.16,13.3c9.28,30.1 19.8,59.6 32.7,88.4c7.87,17.6 13.8,34 7.35,53.1c-5.39,12.6 -14.4,22 -27,27.3c-8.98,3.2 -17.7,3.87 -27.1,3.85h-2.68c-2.95,0.01 -5.89,0 -8.84,0c-2.14,0 -4.28,0.01 -6.42,0.01h-17.6c-6.33,0 -12.7,0.01 -19,0.01c-12.4,0.01 -24.8,0.01 -37.2,0.01c-10.1,0.01 -20.2,0.01 -30.3,0.01h-8.71h-2.19c-20.3,0.01 -40.6,0.01 -60.9,0.01h-2.32h-11.6h-2.33h-4.68c-24.2,0 -48.5,0.01 -72.7,0.02c-27.2,0.02 -54.5,0.03 -81.7,0.03h-8.72h-2.17c-11.5,0 -23,0 -34.5,0.01c-11.6,0.01 -23.1,0.01 -34.7,0c-6.26,0 -12.5,0 -18.8,0.01c-5.74,0.01 -11.5,0.01 -17.2,0h-6.22c-18.9,0.05 -36.4,-0.42 -51.1,-14c-10,-10.8 -14.9,-23.7 -14.5,-38.3c1.24,-12.6 7.1,-24 12.2,-35.5c12.8,-29.1 23,-59 32.5,-89.2c0.98,-3.13 1.98,-6.24 2.98,-9.36c4.6,-14.5 8.52,-29.1 12.2,-43.9c1.11,-4.41 2.26,-8.81 3.42,-13.2c4.46,-17 8,-34.1 11.3,-51.3c0.46,-2.38 0.93,-4.76 1.39,-7.14c1.12,-5.76 2.24,-11.5 3.35,-17.3h-3.36c-48.9,0.05 -97.8,0.1 -147,0.12c-0.74,0.01 -1.48,0.01 -2.25,0.01c-16.1,0 -32.2,0.01 -48.3,0.02c-7.9,0 -15.8,0.01 -23.7,0.01h-2.38c-25.5,0.02 -50.9,0.04 -76.4,0.07c-26.2,0.02 -52.4,0.04 -78.5,0.05h-11.1h-2.2c-11.7,0.01 -23.4,0.02 -35.1,0.04c-11.8,0.02 -23.6,0.02 -35.3,0.02c-6.38,0 -12.8,0 -19.1,0.02c-5.84,0.01 -11.7,0.01 -17.5,0c-2.11,0 -4.22,0 -6.33,0.01c-18.4,0.08 -34.8,-0.78 -48.9,-14.1c-12.1,-12.9 -15.3,-26.8 -15.2,-44c-0.01,-1.68 -0.02,-3.36 -0.02,-5.04c-0.02,-4.62 -0.01,-9.23 0,-13.8c0.01,-5.02 -0.01,-10 -0.02,-15c-0.02,-8.8 -0.02,-17.6 -0.01,-26.4c0.01,-13.1 0,-26.2 -0.02,-39.2c-0.03,-24 -0.04,-48.1 -0.03,-72.1v-10.2v-2.04c0,-15 0,-30 -0.01,-45v-10.3v-4.12c0,-0.68 0,-1.37 -0.01,-2.07v-4.13c-0.01,-39.1 -0.02,-78.2 -0.02,-117c0.01,-0.72 0.01,-1.45 0.01,-2.19v-24.2v-2.21v-8.84c0.01,-46.6 0,-93.2 -0.04,-140c-0.01,-11.7 -0.02,-23.5 -0.03,-35.2v-2.2l-0.03,-66.9v-2.13c0,-15.4 0,-30.7 0.01,-46.1v-16.5v-4.11c0,-21.8 -0.01,-43.6 -0.03,-65.4c-0.03,-22.6 -0.03,-45.1 0,-67.7c0.01,-13 0.01,-26 -0.02,-39c-0.02,-8.69 -0.01,-17.4 0.01,-26.1c0.01,-4.95 0.02,-9.89 -0.01,-14.8c-0.02,-4.51 -0.01,-9.02 0.02,-13.5c0,-1.62 0,-3.23 -0.02,-4.85c-0.15,-16.3 4.62,-29.5 15.8,-41.8c4.73,-4.41 10.1,-7.38 16,-10c0.87,-0.39 1.74,-0.79 2.63,-1.19c6.17,-2.11 12.4,-1.95 18.8,-1.94zM44.6,98.1c-0.09,1.89 -0.12,3.78 -0.12,5.67c0,1.24 -0.01,2.48 -0.01,3.76c0,1.4 0.01,2.8 0.01,4.2c0,1.47 0,2.95 -0.01,4.43c0,4.09 0,8.18 0.01,12.3c0,4.44 0,8.87 -0.01,13.3v23.4c0.01,11.6 0,23.2 0,34.8v62.1v54.3v3.63v14.6v137c0.01,40.6 0.01,81.3 0,122v137v14.6v3.63v54.3v61.7v34.6v23c0.01,4.39 0.01,8.78 0,13.2c0,3.98 0,7.96 0.01,12c0,1.44 0,2.88 -0.01,4.32c0,1.94 0.01,3.88 0.01,5.82v3.27c-0.15,2.35 -0.15,2.35 1.12,3.4c2.4,0.1 4.77,0.13 7.17,0.12c0.76,0 1.53,0 2.31,0.01c2.6,0 5.2,-0.01 7.8,-0.01h5.62c5.19,0.01 10.4,0 15.6,0h16.9h29.7c10.6,-0.01 21.2,-0.01 31.9,-0.01h2.03h10.2c24.8,0 49.5,0 74.2,-0.01c24.5,0 49,-0.01 73.5,-0.01h2.3h20.8h51.8h2.38c38.3,0 76.6,-0.01 115,-0.02h39.9h2.5c38.3,-0.01 76.6,-0.01 115,-0.02h7.45h49.4c32.8,0 65.6,-0.01 98.3,-0.01h4.69c78.1,-0.01 156,-0.02 312,-0.04c0.08,-0.66 0.16,-1.32 0.24,-2c0.37,-3.03 0.75,-6.05 1.12,-9.07c0.13,-1.04 0.25,-2.08 0.38,-3.15c1.75,-13.9 7.04,-25.4 18.2,-34.4c12.6,-8.58 25.1,-11 40,-8.29c12.8,2.98 22.7,9.66 30,20.7c6.17,11.4 7.28,23.5 8.14,36.2c5.83,0.02 11.6,0.04 17.5,0.05c1.98,0.01 3.96,0.01 5.94,0.02c2.84,0.02 5.69,0.02 8.53,0.03c1.34,0 1.34,0 2.7,0.01c2.12,0 4.24,-0.05 6.36,-0.11c1.9,-1.89 1.27,-5.29 1.38,-7.81c0.81,-14 4.61,-26.9 14.6,-37.2c10.2,-8.85 21.9,-13.7 35.5,-13.2c9.99,0.98 18.4,3.25 26.5,9.25c0.71,0.51 1.42,1.03 2.15,1.56c9.74,7.76 14.6,18.4 16.8,30.4c0.48,4.29 0.69,8.58 0.83,12.9c-0.18,2.98 -0.18,2.98 1.17,4.11h68v-867c-244,-0.03 -244,-0.03 -488,-0.05h-5.67h-2.88c-33.5,0 -67,0 -100,-0.01h-9.59c-49,0 -97.9,0 -147,-0.01h-3.19c-17,0 -34,-0.01 -51,-0.01c-48.9,0 -97.8,-0.01 -147,-0.01h-3.05c-22.1,0 -44.1,-0.01 -66.2,-0.01h-26.6h-2.94c-31.3,0 -62.7,0 -94,-0.01c-31.6,0 -63.1,-0.01 -94.6,-0.01h-13h-2.59c-13.6,0.01 -27.1,0 -40.6,0c-13.3,-0.01 -26.6,-0.01 -39.9,0c-7.82,0 -15.6,0 -23.4,-0.01h-17.3h-7.02h-9.45h-2.8c-3.98,-0.39 -3.98,-0.39 -7.33,1.13z"></path><path transform="translate(352,416)" d="M0,0c1.58,0 3.16,-0.01 4.74,-0.01c4.35,-0.01 8.7,-0.01 13,0.01c4.73,0 9.46,0 14.2,-0.01c8.3,-0.01 16.6,-0.01 24.9,0c12.3,0.01 24.7,0.01 37,0c22,-0.01 44,0 66.1,0.01c19.3,0.01 38.5,0.01 57.8,0.01h3.88h15.6c36.2,0 72.4,0 109,0.01c0.68,0 1.36,0.01 2.07,0.01c11.1,0 22.2,0 33.2,0.01c43.9,0.02 87.9,0.02 132,0.02h8.33h2.08h22.8c0.68,-0.01 1.36,-0.01 2.06,-0.01c36.8,0 73.6,0.01 110,0.01c3.89,0.01 7.78,0.01 11.7,0.01h7.74h54c23.2,0 46.4,0 69.5,0.02c12.3,0.01 24.5,0.01 36.8,0c8.19,0 16.4,0.01 24.6,0.02h14c4.25,-0.01 8.5,0 12.7,0.01c1.53,0 3.05,0 4.58,-0.01c22.8,-0.06 22.8,-0.06 31.4,8.26c6.1,7.23 6.29,16 6.24,25.1v2.97c0,3.26 -0.01,6.52 -0.02,9.78v7.04c0,6.36 -0.01,12.7 -0.02,19.1c-0.01,5.97 -0.01,11.9 -0.02,17.9c0,11.8 -0.01,23.6 -0.03,35.5c-0.02,11.5 -0.04,23 -0.04,34.4c-0.01,1.07 -0.01,1.07 -0.01,2.15v10.7c-0.02,29.5 -0.06,58.9 -0.1,88.4c-1.45,-0.15 -2.89,-0.3 -4.33,-0.46c-1.2,-0.13 -1.2,-0.13 -2.43,-0.26c-2.55,-0.31 -4.99,-0.82 -7.48,-1.46c-0.92,-0.23 -1.85,-0.47 -2.79,-0.71c-0.97,-0.25 -1.94,-0.5 -2.93,-0.76c-1.03,-0.26 -2.05,-0.52 -3.11,-0.79c-3.25,-0.82 -6.5,-1.66 -9.75,-2.49l-9.72,-2.49c-2,-0.51 -4.01,-1.02 -6.02,-1.54c-21.7,-5.53 -42,-6.08 -62.4,4.5c-18.2,11 -29.8,27 -35.1,47.3c-4.54,19.2 0.34,37.4 5.07,56.1c0.54,2.18 1.08,4.36 1.61,6.53c2.11,8.5 4.24,17 6.39,25.5c-3.28,0.98 -6.24,1.13 -9.65,1.13c-1.16,0 -2.32,0.01 -3.52,0.01c-1.27,0 -2.55,0 -3.87,-0.01c-1.37,0 -2.75,0.01 -4.12,0.01h-11.4c-4.12,0 -8.25,0 -12.4,0.01h-21.7c-10.8,0 -21.5,0 -32.3,0.01c-20.3,0.01 -40.6,0.01 -61,0.01c-15.7,0 -31.4,0 -47.1,0.01h-13.5h-3.41c-31.6,0.01 -63.2,0.01 -94.7,0.01h-3.61h-18.1h-3.64h-7.27c-37.7,0 -75.5,0.01 -113,0.02c-42.4,0.02 -84.7,0.02 -127,0.02h-13.6h-3.37c-17.9,0 -35.8,0.01 -53.7,0.02c-18,0.01 -36,0.01 -54,0c-10.7,0 -21.4,0 -32.1,0.01c-7.14,0.01 -14.3,0 -21.4,0c-4.07,-0.01 -8.14,-0.01 -12.2,0c-3.71,0.01 -7.41,0.01 -11.1,0c-1.95,-0.01 -3.91,0 -5.86,0.01c-11.3,-0.05 -21.3,-0.59 -30.1,-8.27c-6.93,-8.17 -6.3,-18 -6.27,-28.1c-0.01,-1.44 -0.01,-2.88 -0.02,-4.32c-0.01,-3.94 -0.01,-7.88 -0.01,-11.8c0.01,-4.26 -0.01,-8.52 -0.02,-12.8c-0.01,-8.34 -0.02,-16.7 -0.02,-25c0,-6.78 0,-13.6 -0.01,-20.3c-0.02,-19.2 -0.03,-38.4 -0.03,-57.6c0,-1.04 0,-2.07 0.01,-3.14v-3.14c0,-16.8 -0.02,-33.6 -0.05,-50.4c-0.03,-17.3 -0.04,-34.5 -0.04,-51.8c0,-9.68 -0.01,-19.4 -0.03,-29.1c-0.02,-8.25 -0.02,-16.5 -0.01,-24.7c0.01,-4.21 0.01,-8.41 -0.01,-12.6c-0.01,-3.85 -0.01,-7.7 0.01,-11.6c0,-1.39 0,-2.78 -0.02,-4.17c-0.06,-9.18 0.63,-17.2 6.34,-24.8c0.61,-0.5 1.23,-1.01 1.86,-1.53c0.91,-0.79 0.91,-0.79 1.83,-1.59c8.52,-5.05 17.4,-4.9 27,-4.85zM452,107c-1.58,3.16 -1.39,6.56 -1.56,10c-0.04,0.87 -0.08,1.74 -0.12,2.64c-0.58,13.5 -0.49,27.1 -0.49,40.6c0,2.39 0,4.77 -0.01,7.16c-0.01,8.35 -0.01,16.7 -0.01,25c0,7.75 -0.01,15.5 -0.03,23.2c-0.01,6.7 -0.01,13.4 -0.01,20.1c0,3.98 -0.01,7.96 -0.02,11.9c-0.01,3.73 -0.01,7.47 0,11.2c0,2.01 -0.01,4.02 -0.01,6.04c-0.19,10.8 -0.19,10.8 4.13,20.5c3.83,2.82 7.54,2.69 12.2,2.71c1.84,0.01 1.84,0.01 3.72,0.02h4.04c1.4,0.01 2.8,0.01 4.2,0.01c2.94,0.01 5.89,0.01 8.83,0.01c2.97,0 5.95,0.01 8.92,0.02c39,0.18 72.8,-1.91 102,-30.7c17.1,-17.8 24.9,-42.2 24.5,-66.6c-1.46,-23.4 -10.7,-44.3 -27.2,-61c-0.82,-0.83 -1.63,-1.67 -2.47,-2.53c-21.1,-20.5 -48,-25.8 -76.3,-25.8c-1.67,-0.01 -3.33,-0.01 -5,-0.02c-3.47,-0.02 -6.94,-0.03 -10.4,-0.03c-4.44,-0.01 -8.87,-0.04 -13.3,-0.09c-3.43,-0.03 -6.87,-0.04 -10.3,-0.04c-1.64,0 -3.28,-0.01 -4.91,-0.04c-2.29,-0.02 -4.57,-0.02 -6.85,0c-1.29,-0.01 -2.59,-0.01 -3.92,-0.02c-4.62,0.81 -6.22,2.34 -9.51,5.61zM338,106c-3.3,5.27 -5.56,10.6 -7.7,16.5c-0.34,0.92 -0.69,1.84 -1.05,2.79c-1.13,3.04 -2.25,6.08 -3.38,9.12c-0.8,2.14 -1.59,4.28 -2.39,6.42c-6.46,17.4 -12.8,34.8 -19.2,52.1c-3.97,10.8 -7.98,21.7 -12.1,32.4c-0.62,1.63 -0.62,1.63 -1.25,3.3c-1.88,4.94 -3.76,9.87 -5.65,14.8c-1.54,4 -3.06,8.01 -4.57,12c-0.6,1.56 -1.19,3.12 -1.79,4.67c-0.83,2.17 -1.65,4.33 -2.47,6.5c-0.25,0.64 -0.5,1.28 -0.75,1.94c-2.07,5.57 -2.69,10.2 -0.2,15.7c4.18,4.49 8.28,4.55 14.1,4.9c9.71,0.42 9.71,0.42 18.4,-3.22c3.05,-4.8 5.17,-9.65 7.09,-15c0.27,-0.75 0.55,-1.49 0.83,-2.26c0.86,-2.35 1.72,-4.71 2.58,-7.07c0.85,-2.34 1.71,-4.69 2.57,-7.04c0.54,-1.45 1.07,-2.9 1.59,-4.36c2,-5.48 4.16,-10.9 6.34,-16.3h52l8,22c1.73,4.7 3.47,9.39 5.25,14.1c0.4,1.1 0.81,2.2 1.23,3.33c0.6,1.58 0.6,1.58 1.22,3.2c0.35,0.93 0.69,1.85 1.05,2.8c2.07,4.34 3.98,7.1 8.5,8.9c3.95,0.74 7.74,1.04 11.8,1.02c1.01,0.02 1.01,0.02 2.03,0.05c5.14,0 8.53,-0.96 13,-3.37c1.97,-2.1 2.93,-3.31 3.19,-6.22c-0.77,-6.37 -2.4,-12 -4.74,-18c-0.36,-0.95 -0.72,-1.9 -1.09,-2.88c-1.17,-3.09 -2.36,-6.17 -3.55,-9.26c-0.83,-2.17 -1.66,-4.35 -2.48,-6.52c-1.67,-4.37 -3.33,-8.73 -5.01,-13.1c-1.99,-5.19 -3.97,-10.4 -5.93,-15.6c-0.27,-0.73 -0.55,-1.45 -0.83,-2.2c-0.54,-1.44 -1.09,-2.88 -1.63,-4.32c-1.38,-3.66 -2.77,-7.31 -4.15,-11c-2.95,-7.77 -5.88,-15.5 -8.82,-23.3c-0.44,-1.16 -0.88,-2.33 -1.33,-3.54c-1.76,-4.67 -3.52,-9.34 -5.29,-14c-0.41,-1.09 -0.82,-2.18 -1.24,-3.31c-0.61,-1.61 -0.61,-1.61 -1.23,-3.26c-0.8,-2.12 -1.6,-4.24 -2.41,-6.36c-1.91,-5.05 -3.81,-10.1 -5.67,-15.2c-0.35,-0.94 -0.7,-1.89 -1.07,-2.87c-0.65,-1.75 -1.29,-3.51 -1.93,-5.27c-3.27,-9.24 -3.27,-9.24 -9.8,-16.1c-4.21,-1.68 -8.96,-1.12 -13.4,-1.11c-1.04,-0.01 -2.08,-0.03 -3.14,-0.05c-7.32,-0.17 -7.32,-0.17 -13.4,3.36z"></path><path transform="translate(839,555)" d="M0,0c56.4,0 56.4,0 67.4,5.94c0.68,0.34 1.36,0.69 2.06,1.05c3.36,1.74 6.67,3.47 9.5,6.01v2c0.58,0.22 1.15,0.45 1.75,0.68c6.63,3.89 11.5,13.3 14.2,20.3c0.45,1.12 0.45,1.12 0.9,2.27c4.63,13.9 3.4,29.6 -2.9,42.7c-2.41,3.91 -5.07,7.47 -8,11c-0.97,1.28 -0.97,1.28 -1.96,2.59c-9.61,11.4 -24.1,14.6 -38,17.4h-45v-112z"></path><path transform="translate(1210,735)" d="M0,0c8.15,2.03 16.3,4.07 24.5,6.1c3.79,0.95 7.58,1.89 11.4,2.84c3.66,0.91 7.32,1.83 11,2.74c1.39,0.35 2.78,0.69 4.16,1.04c8.04,2 16,4.06 24,6.28c-3.64,2.42 -7.34,3.36 -11.5,4.5c-1.71,0.48 -3.42,0.96 -5.12,1.44c-2.7,0.75 -5.39,1.5 -8.08,2.24c-2.6,0.72 -5.2,1.46 -7.8,2.19c-0.81,0.22 -1.61,0.44 -2.44,0.66c-1.13,0.32 -1.13,0.32 -2.28,0.65c-0.99,0.28 -0.99,0.28 -2,0.56c-2.85,1.22 -4.42,2.89 -5.59,5.74c-0.21,0.75 -0.41,1.5 -0.62,2.27c-0.24,0.85 -0.47,1.7 -0.71,2.57c-0.24,0.9 -0.49,1.81 -0.74,2.74c-0.25,0.93 -0.51,1.86 -0.77,2.81c-1.29,4.66 -2.53,9.32 -3.78,14c-0.22,0.82 -0.45,1.65 -0.68,2.5c-0.42,1.57 -0.83,3.14 -1.24,4.72c-0.49,1.82 -1.06,3.62 -1.65,5.42c-0.99,0.5 -0.99,0.5 -2,1c-4.42,-16.3 -8.7,-32.5 -12.8,-48.9c-0.45,-1.78 -0.91,-3.57 -1.36,-5.36c-0.65,-2.52 -1.28,-5.05 -1.91,-7.58c-0.2,-0.75 -0.39,-1.5 -0.59,-2.28c-0.93,-3.74 -1.4,-7.07 -1.32,-10.9z"></path><path transform="translate(706,580)" d="M0,0c3.31,1.66 3.7,5.35 4.81,8.69c0.53,1.54 1.06,3.09 1.59,4.63c0.27,0.78 0.53,1.56 0.81,2.36c1.19,3.48 2.42,6.93 3.67,10.4c0.4,1.15 0.81,2.29 1.24,3.48c0.29,0.81 0.58,1.62 0.88,2.46c-2.5,1.25 -4.21,1.11 -7.01,1.1c-0.98,-0.01 -1.97,-0.01 -2.99,-0.01c-1.03,-0.01 -2.06,-0.02 -3.12,-0.03c-1.57,0 -1.57,0 -3.16,-0.01c-2.57,-0.01 -5.15,-0.03 -7.72,-0.05l-1,-2c0.78,-2.27 1.62,-4.42 2.56,-6.62c0.56,-1.35 1.12,-2.7 1.67,-4.05c0.29,-0.7 0.58,-1.41 0.88,-2.13c1.49,-3.69 2.88,-7.41 4.27,-11.1c0.26,-0.7 0.52,-1.41 0.79,-2.13c0.61,-1.64 1.22,-3.29 1.83,-4.93z"></path></g></g></svg>