<svg version="1.1" xmlns="http://www.w3.org/2000/svg" xmlns:xlink="http://www.w3.org/1999/xlink" width="1280" height="1280" viewBox="0,0,256,256"><g fill="#613c7f" fill-rule="nonzero" stroke="none" stroke-width="1" stroke-linecap="butt" stroke-linejoin="miter" stroke-miterlimit="10" stroke-dasharray="" stroke-dashoffset="0" font-family="none" font-weight="none" font-size="none" text-anchor="none" style="mix-blend-mode: normal"><g transform="translate(-0.05057,-0.0232) scale(0.16,0.16)"><path transform="translate(753,125)" d="M0,0h2.08h4.34c2.2,0.01 4.4,0 6.59,0h4.24h3.85c3.63,0.13 7.07,0.6 10.7,1.13c2.25,0.16 4.5,0.29 6.76,0.4c14.3,0.74 28.2,1.78 42.2,5.12c3.09,0.73 6.2,1.35 9.31,1.98c21.3,4.66 21.3,4.66 30.2,8.49c5.05,2.03 10.3,3.48 15.5,5.01v2c3.96,0.5 3.96,0.5 8,1v2c1.28,0.15 1.28,0.15 2.59,0.31c3.75,0.76 6.52,2.05 9.91,3.82c1.25,0.64 2.5,1.29 3.75,1.94c0.63,0.32 1.26,0.65 1.9,0.99c1.69,0.86 3.39,1.69 5.1,2.51c11.3,5.44 22,12 32.8,18.4c0.92,0.52 1.85,1.03 2.8,1.56c0.72,0.48 1.45,0.95 2.2,1.44v2c0.74,0.29 1.48,0.58 2.25,0.88c2.32,0.95 4.53,1.97 6.75,3.12v2c0.55,0.26 1.1,0.52 1.67,0.78c2.67,1.4 5.1,3.01 7.58,4.72c0.89,0.61 1.78,1.22 2.7,1.85c0.68,0.54 1.35,1.09 2.05,1.65v2c0.56,0.26 1.13,0.52 1.71,0.79c2.51,1.33 4.62,2.89 6.85,4.65c0.76,0.6 1.53,1.19 2.32,1.81c1.83,1.51 3.56,2.96 5.12,4.75v2c0.83,0.37 0.83,0.37 1.69,0.75c3.86,2.09 7.43,4.92 10.3,8.25v2h2c1.51,1.46 1.51,1.46 3.12,3.38c0.81,0.94 0.81,0.94 1.64,1.9c1.24,1.72 1.24,1.72 1.24,3.72c0.99,0.33 1.98,0.66 3,1v2h2c1.6,1.74 3.14,3.54 4.62,5.38c0.82,1 1.64,1.99 2.48,3.02c1.9,2.6 1.9,2.6 1.9,4.6c0.99,0.33 1.98,0.66 3,1c1.74,2.22 3.35,4.43 4.94,6.75c0.86,1.25 1.72,2.49 2.59,3.74c0.41,0.6 0.82,1.2 1.25,1.82c1.11,1.54 2.32,3 3.53,4.46c1.69,2.23 1.69,2.23 1.69,5.23h2c1.64,2.24 3.14,4.47 4.62,6.82c0.42,0.64 0.84,1.28 1.28,1.94c3.1,4.86 3.1,4.86 3.1,8.24h2l1,5h2c0.46,0.93 0.92,1.86 1.39,2.82c3.69,7.58 3.69,7.58 7.8,14.9c1.92,3.46 3.33,6.93 4.75,10.6c1.03,2.56 2.18,5.02 3.37,7.51c3.56,7.71 6.18,15.8 8.91,23.8c0.66,1.95 1.33,3.89 2.01,5.84c2,5.83 3.65,11.7 5.06,17.7c0.68,2.83 0.68,2.83 1.7,5.69c2.88,8.84 4.13,18.2 4.59,27.4c0.04,0.77 0.08,1.54 0.12,2.34c0.43,8.9 0.44,17.8 0.43,26.7v5.4v11.2c-0.01,4.74 0,9.49 0,14.2c0.01,3.7 0,7.41 0,11.1v5.25c0.03,27.3 0.03,27.3 -2.57,39.5c-0.25,1.18 -0.49,2.37 -0.75,3.59c-0.78,3.19 -1.75,6.24 -2.81,9.34c-0.64,2.23 -1.26,4.46 -1.88,6.69c-1.49,5.28 -3.19,10.4 -5.13,15.5c-1.09,3.04 -2.01,6.11 -2.93,9.21c-1.64,5.44 -3.65,10.6 -5.89,15.8c-1.51,3.54 -2.85,7.13 -4.17,10.7h-2l-1,6h-2c-0.09,0.84 -0.17,1.67 -0.26,2.53c-0.89,4.16 -2.55,7.3 -4.62,11c-0.7,1.28 -1.41,2.56 -2.11,3.85c-0.34,0.61 -0.68,1.22 -1.03,1.85c-1.4,2.57 -2.69,5.18 -3.98,7.8h-2c-0.09,0.52 -0.17,1.04 -0.26,1.58c-1.03,3.37 -2.83,6.2 -4.68,9.17c-0.36,0.6 -0.72,1.21 -1.09,1.83c-0.93,1.51 -1.95,2.97 -2.97,4.42h-2l-1,5h-2l-1,4h-2c-0.25,0.7 -0.5,1.41 -0.75,2.13c-1.42,3.27 -3.12,6.01 -5.25,8.87h-2c-0.25,0.54 -0.5,1.08 -0.75,1.63c-2.76,5.23 -6.04,9.26 -10.2,13.4c-1.58,1.87 -3.13,3.75 -4.67,5.65c-0.44,0.44 -0.88,0.89 -1.33,1.35h-2c-0.27,0.6 -0.54,1.19 -0.82,1.8c-1.19,2.21 -2.39,3.67 -4.15,5.44c-0.57,0.57 -1.14,1.14 -1.73,1.74c-0.89,0.88 -0.89,0.88 -1.8,1.77c-0.6,0.6 -1.19,1.21 -1.8,1.83c-0.86,0.85 -0.86,0.85 -1.73,1.72c-0.52,0.52 -1.05,1.04 -1.58,1.57c-1.39,1.13 -1.39,1.13 -3.39,1.13l-1,3h-2v2c-3.46,3 -3.46,3 -6,3v2c-4.47,4 -4.47,4 -7,4v2l-4,1v2c-3.46,3 -3.46,3 -6,3v2c-4.47,4 -4.47,4 -7,4l-1,3h-2v7h2c0.82,1.58 1.63,3.17 2.44,4.75c0.45,0.88 0.9,1.77 1.37,2.67c1.02,2.22 1.7,4.2 2.19,6.58h2l1,5h2c0.26,0.55 0.53,1.09 0.8,1.65c0.36,0.71 0.71,1.43 1.07,2.17c0.35,0.7 0.7,1.41 1.06,2.14c1.13,2.26 1.13,2.26 3.07,5.04v3h2c0.29,0.54 0.58,1.07 0.88,1.62c2.82,5.13 5.78,10.2 8.88,15.1c1.16,2.12 1.78,3.9 2.24,6.26h2l1,5h2c0.82,1.58 1.63,3.17 2.44,4.75c0.45,0.88 0.9,1.77 1.37,2.67c1.02,2.22 1.7,4.2 2.19,6.58h2l1,5h2c0.27,0.5 0.53,1 0.81,1.51c3.81,6.99 7.98,13.7 12.2,20.5c6.31,-1.94 12.2,-4.35 18.1,-7.25c1.67,-0.8 3.34,-1.6 5.01,-2.4c0.82,-0.4 1.64,-0.79 2.49,-1.2c4.66,-2.24 9.35,-4.42 14,-6.6c2.04,-0.95 4.08,-1.9 6.11,-2.88c11.8,-5.6 24.3,-9.62 37,-12.8c4.11,-1.08 8.08,-2.44 12.1,-3.84c5.21,-1.66 10.6,-2.53 15.9,-3.52c1.2,-0.22 2.39,-0.44 3.63,-0.67c8.39,-1.51 16.8,-2.68 25.2,-3.47c3.15,-0.24 3.15,-0.24 5.22,-0.87c2.73,-0.62 5.27,-0.61 8.07,-0.62c1.79,0 1.79,0 3.61,-0.01c1.28,0.01 2.57,0.01 3.89,0.01h3.99h8.37c3.57,0.01 7.15,0 10.7,0c3.41,-0.01 6.82,0 10.2,0c1.28,0 2.57,0 3.89,-0.01c1.78,0.01 1.78,0.01 3.6,0.01c1.05,0 2.1,0.01 3.18,0.01c2.61,0.12 2.61,0.12 5.61,1.12c1.34,0.19 2.68,0.34 4.03,0.47c0.78,0.07 1.57,0.15 2.38,0.23c0.83,0.08 1.67,0.16 2.53,0.24c9.9,1 19.5,2.25 29.1,5.06c1.15,0.17 2.31,0.33 3.5,0.5c3.65,0.52 6.96,1.46 10.5,2.5c1.06,0.3 2.12,0.59 3.22,0.9c12,3.36 23.8,7.08 35.3,12.1c2.16,0.88 4.21,1.52 6.49,2.01v2c0.82,0.09 1.64,0.18 2.49,0.28c4.24,0.88 7.75,2.47 11.6,4.35c0.75,0.35 1.49,0.71 2.25,1.07c5.62,2.71 11,5.7 16.3,8.96c2.35,1.47 2.35,1.47 5.32,2.34v2c0.82,0.23 1.63,0.46 2.47,0.69c4.34,1.62 8,3.84 11.9,6.31c1.11,0.68 1.11,0.68 2.23,1.37c0.7,0.44 1.39,0.87 2.11,1.32c0.63,0.4 1.26,0.79 1.91,1.2c0.46,0.37 0.91,0.73 1.38,1.11v2l4,1v2c0.76,0.29 1.52,0.58 2.31,0.88c2.69,1.12 2.69,1.12 5.69,3.12v2h3v2c0.55,0.25 1.1,0.5 1.67,0.75c2.78,1.5 5.11,3.29 7.58,5.25c1.34,1.05 1.34,1.05 2.7,2.13c0.68,0.62 1.35,1.24 2.05,1.87v2c0.55,0.25 1.11,0.5 1.69,0.75c2.73,1.48 4.98,3.19 7.31,5.25v2h2v2c0.99,0.33 1.98,0.66 3,1v2c0.99,0.33 1.98,0.66 3,1v2c0.58,0.25 1.15,0.5 1.75,0.75c2.58,1.44 4.31,3.04 6.25,5.25v2c0.99,0.33 1.98,0.66 3,1v2h2c3,3.46 3,3.46 3,6c0.99,0.33 1.98,0.66 3,1v2h2c3.53,2.92 5.57,6.7 7,11h2c1.02,1.65 2.02,3.32 3,5l1.33,1.33c2.21,2.22 4,4.65 5.86,7.17c0.71,0.96 1.43,1.92 2.16,2.91c1.65,2.59 1.65,2.59 1.65,5.59h2c4,6.75 4,6.75 4,9h2c0.55,1.14 1.11,2.27 1.69,3.44c1.97,3.98 4.13,7.83 6.35,11.7c0.96,1.88 0.96,1.88 0.96,3.88h2l1,6h2c1.12,2.73 2.25,5.46 3.37,8.19c0.48,1.15 0.48,1.15 0.96,2.33c0.62,1.5 1.23,2.99 1.85,4.49c0.67,1.62 1.35,3.24 2.04,4.86c0.78,2.13 0.78,2.13 0.78,5.13h2c0.24,0.83 0.48,1.65 0.73,2.49c1.61,5.35 3.23,10.6 5.39,15.8c1.6,3.85 2.63,7.58 3.45,11.7c0.83,4.06 2.05,8 3.4,11.9c4.42,13.7 6.77,29.1 7.82,43.4c0.12,1.86 0.12,1.86 1.21,3.75c1.27,11.8 1.15,23.7 1.13,35.6c-0.01,2.94 0,5.88 0,8.82c0.01,22.3 0.01,22.3 -1.13,32.6l-1,1c-0.33,2.59 -0.62,5.16 -0.88,7.75c-0.71,6.57 -1.8,12.9 -3.4,19.3c-0.68,2.78 -1.25,5.56 -1.78,8.37c-0.71,3.65 -1.74,7.05 -2.94,10.6c-0.37,2 -0.72,4 -1,6h-2c-0.08,1.3 -0.17,2.6 -0.25,3.94c-0.49,4.48 -1.84,7.97 -3.77,12c-2.28,4.79 -3.56,9.97 -4.98,15.1h-2c-0.06,0.77 -0.13,1.54 -0.19,2.33c-1.15,5.19 -3.47,9.62 -5.81,14.4c-0.92,1.88 -1.84,3.76 -2.75,5.64c-0.41,0.82 -0.82,1.65 -1.24,2.5c-1.11,2.27 -1.11,2.27 -2.01,5.17h-2c-0.08,0.67 -0.15,1.33 -0.22,2.01c-1.06,4.07 -3.05,7.29 -5.22,10.9c-0.44,0.74 -0.88,1.48 -1.34,2.24c-5.07,8.41 -10.2,17 -16.4,24.6c-1.95,2.22 -1.95,2.22 -2.77,5.26h-2l-0.94,1.88c-0.69,1.37 -1.37,2.75 -2.06,4.12h-2c-0.23,0.7 -0.46,1.41 -0.69,2.13c-1.65,3.61 -3.6,5.96 -6.31,8.87h-2l-0.94,1.88c-0.69,1.37 -1.37,2.75 -2.06,4.12h-2c-0.23,0.54 -0.46,1.08 -0.69,1.63c-2.33,4.22 -5.64,8.22 -9.31,11.4h-2l-1,3h-2v2c-1.65,1.36 -3.32,2.69 -5,4l-2.19,2.19c-2.61,2.61 -5.28,5.13 -8,7.63c-0.86,0.79 -1.72,1.58 -2.61,2.39c-2.2,1.79 -2.2,1.79 -4.2,1.79v2c-1.93,1.63 -3.85,3.14 -5.88,4.63c-0.55,0.42 -1.11,0.84 -1.68,1.27c-4.18,3.1 -4.18,3.1 -6.44,3.1v2c-5.41,4 -5.41,4 -8,4v2h-3v2c-6.75,4 -6.75,4 -9,4v2l-5,1v2c-1.77,1.01 -3.54,2.01 -5.31,3c-1.48,0.84 -1.48,0.84 -2.99,1.69c-2.7,1.31 -2.7,1.31 -5.7,1.31v2l-5,1v2c-1.98,0.33 -3.96,0.66 -6,1v2c-2.27,1.01 -4.54,2.01 -6.81,3c-0.65,0.29 -1.29,0.58 -1.95,0.87c-2.92,1.27 -5.02,2.13 -8.24,2.13v2c-1.46,0.37 -1.46,0.37 -2.94,0.75c-2.86,0.81 -5.44,1.85 -8.12,3.13c-5.05,2.32 -10.3,3.74 -15.6,5.19c-3.97,1.11 -7.86,2.32 -11.7,3.9c-8.5,3.28 -17.8,4.8 -26.7,6.6c-1.08,0.21 -2.15,0.43 -3.26,0.65c-8.34,1.63 -16.6,2.7 -25.1,3.42c-3.53,0.23 -3.53,0.23 -6.57,1.36c-2.03,0.1 -4.05,0.13 -6.08,0.13c-1.88,0.01 -1.88,0.01 -3.79,0.01h-4.1h-4.2c-2.94,0 -5.87,0 -8.81,-0.01c-3.76,0 -7.53,0 -11.3,0.01h-8.68h-4.16c-1.94,0 -3.88,0 -5.82,-0.01h-3.34c-2.73,-0.13 -2.73,-0.13 -5.73,-1.13c-1.53,-0.2 -3.06,-0.36 -4.6,-0.5c-0.88,-0.08 -1.77,-0.16 -2.68,-0.25c-1.86,-0.16 -3.72,-0.33 -5.58,-0.5c-0.89,-0.08 -1.77,-0.16 -2.68,-0.25c-0.81,-0.07 -1.61,-0.14 -2.45,-0.22c-2.01,-0.28 -2.01,-0.28 -4.01,-1.28c-1.77,-0.27 -3.54,-0.52 -5.31,-0.75c-9.71,-1.43 -19.2,-3.87 -28.7,-6.25c-1.14,-0.28 -2.27,-0.56 -3.44,-0.85c-5.17,-1.34 -10,-3.06 -15,-5.11c-3.86,-1.54 -7.8,-2.8 -11.8,-4.09c-3.66,-1.22 -7.25,-2.56 -10.8,-3.95v-2c-0.85,-0.09 -1.7,-0.19 -2.58,-0.29c-3.85,-0.8 -6.75,-2.19 -10.2,-4.02c-5.33,-2.75 -10.7,-5.31 -16.2,-7.69v-2c-0.73,-0.11 -1.45,-0.22 -2.2,-0.34c-2.93,-0.69 -5.03,-1.71 -7.61,-3.22c-0.79,-0.45 -1.59,-0.91 -2.4,-1.38c-0.59,-0.35 -1.18,-0.7 -1.79,-1.06v-2l-5,-1v-2c-0.71,-0.25 -1.42,-0.51 -2.15,-0.77c-9.11,-3.92 -18.3,-10.9 -25.8,-17.2v-2c-1.09,-0.37 -1.09,-0.37 -2.19,-0.75c-3.09,-1.37 -5.32,-2.97 -7.81,-5.25v-2c-0.56,-0.24 -1.12,-0.49 -1.69,-0.75c-3.87,-2.09 -7.43,-4.91 -10.3,-8.25v-2c-0.99,-0.33 -1.98,-0.66 -3,-1v-2c-0.58,-0.25 -1.17,-0.51 -1.77,-0.78c-2.41,-1.32 -4.05,-2.77 -5.98,-4.72c-0.62,-0.61 -1.23,-1.21 -1.86,-1.84c-1.39,-1.66 -1.39,-1.66 -1.39,-3.66c-0.99,-0.33 -1.98,-0.66 -3,-1v-2c-0.99,-0.33 -1.98,-0.66 -3,-1v-2h-2c-1.51,-1.46 -1.51,-1.46 -3.13,-3.37c-0.81,-0.94 -0.81,-0.94 -1.63,-1.9c-1.24,-1.73 -1.24,-1.73 -1.24,-3.73h-2c-1.59,-2.04 -1.59,-2.04 -3.38,-4.75c-1.81,-2.73 -3.5,-5.12 -5.81,-7.44c-2.01,-2 -2.17,-3.14 -2.81,-5.81c-0.99,-0.33 -1.98,-0.66 -3,-1v-3h-2c-1.66,-2.23 -1.66,-2.23 -3.5,-5.18c-0.61,-0.97 -1.22,-1.93 -1.85,-2.92c-1.48,-2.59 -2.63,-5.1 -3.65,-7.9h-2c-0.82,-1.58 -1.63,-3.16 -2.44,-4.75c-0.45,-0.88 -0.9,-1.76 -1.37,-2.67c-1.03,-2.22 -1.71,-4.19 -2.19,-6.58h-2c-0.68,-1.26 -1.34,-2.54 -2,-3.81c-0.37,-0.71 -0.74,-1.42 -1.13,-2.14c-0.87,-2.05 -0.87,-2.05 -0.87,-5.05h-2l-1,-6h-2c-1.13,-2.73 -2.25,-5.46 -3.38,-8.18c-0.31,-0.77 -0.63,-1.54 -0.96,-2.33c-0.61,-1.5 -1.23,-3 -1.84,-4.49c-0.67,-1.63 -1.36,-3.25 -2.05,-4.86c-0.77,-2.14 -0.77,-2.14 -0.77,-5.14h-2c-0.25,-0.95 -0.5,-1.89 -0.75,-2.87c-0.85,-2.98 -1.92,-5.78 -3.13,-8.63c-2.27,-5.52 -3.73,-11.2 -5.19,-17c-0.58,-2.19 -1.21,-4.36 -1.93,-6.5c-1.16,-3.49 -2.07,-7.01 -2.94,-10.6c-0.17,-0.7 -0.34,-1.4 -0.52,-2.13l-1.05,-4.29c-0.44,-1.8 -0.89,-3.59 -1.35,-5.39c-1.67,-6.81 -2.75,-13.6 -3.5,-20.5c-0.1,-3.35 -0.1,-3.35 -1.64,-6.12v-8c-62.4,0.5 -62.4,0.5 -126,1l-2,13c-1.06,4.88 -1.06,4.88 -1.56,6.99c-0.44,2 -0.74,3.98 -1,6.01c-0.44,3 -0.44,3 -1.44,4c-0.33,1.62 -0.61,3.25 -0.88,4.88c-0.85,4.93 -2.03,9.69 -3.41,14.5c-0.65,2.39 -1.17,4.76 -1.65,7.19c-0.88,4.07 -2.32,7.74 -3.93,11.6c-1.33,3.35 -2.45,6.74 -3.57,10.2c-3.74,11.4 -8.1,22.2 -13.6,32.8c-1.37,2.69 -2.71,5.4 -4.05,8.11c-3.15,6.35 -6.4,12.6 -9.91,18.8c-0.94,1.69 -1.88,3.38 -2.81,5.07c-0.73,1.31 -1.46,2.62 -2.19,3.93h-2l-1,5h-2v3h-2c-0.29,0.75 -0.58,1.49 -0.88,2.25c-0.95,2.32 -1.97,4.53 -3.12,6.75h-2c-0.39,0.83 -0.39,0.83 -0.78,1.67c-1.4,2.68 -3.01,5.1 -4.72,7.58c-0.61,0.89 -1.22,1.79 -1.85,2.71c-0.54,0.67 -1.09,1.35 -1.65,2.04h-2l-1,4h-2c-0.25,0.56 -0.5,1.12 -0.75,1.69c-1.48,2.74 -3.19,4.99 -5.25,7.31h-2c-0.25,0.56 -0.5,1.12 -0.75,1.69c-1.48,2.74 -3.19,4.99 -5.25,7.31h-2l-1,3h-2l-1,3h-2l-1,3h-2v2c-1.65,1.69 -1.65,1.69 -3.81,3.57c-0.71,0.62 -1.42,1.24 -2.15,1.87c-2.04,1.56 -2.04,1.56 -5.04,2.56l-1,3c-5.47,5 -5.47,5 -8,5l-1,3c-2.06,0.69 -2.06,0.69 -4,1v2c-3.46,3 -3.46,3 -6,3v2c-5.41,4 -5.41,4 -8,4v2c-1.76,0.98 -3.52,1.96 -5.28,2.93c-1.88,1.08 -1.88,1.08 -3.72,3.07h-3v2l-5,1v2c-40.2,23 -40.2,23 -47,23v2c-0.88,0.29 -0.88,0.29 -1.77,0.58c-2.7,0.89 -5.41,1.78 -8.11,2.67c-1.37,0.45 -1.37,0.45 -2.78,0.91c-5.44,1.8 -10.8,3.76 -16,5.99c-3.2,1.18 -6.43,1.8 -9.78,2.36c-3.24,0.63 -6.35,1.58 -9.52,2.49c-9.38,2.46 -18.7,4.43 -28.3,5.61c-2.63,0.25 -2.63,0.25 -4.66,1.39c-2.12,0.21 -4.24,0.37 -6.37,0.5c-1.91,0.13 -1.91,0.13 -3.87,0.25c-1.36,0.09 -2.72,0.17 -4.07,0.25c-2.65,0.17 -5.29,0.33 -7.93,0.5c-1.18,0.07 -2.35,0.15 -3.56,0.22c-3.1,0.21 -3.1,0.21 -5.7,0.81c-3.16,0.6 -6.16,0.6 -9.38,0.61h-3.98c-0.68,0 -1.36,0 -2.06,-0.01c-2.08,0 -4.15,0 -6.22,0.01h-3.99c-1.8,-0.01 -1.8,-0.01 -3.63,-0.01c-2.9,-0.11 -5.42,-0.53 -8.24,-1.13c-1.97,-0.16 -3.94,-0.29 -5.91,-0.39c-13.5,-0.78 -26.5,-2.04 -39.7,-5.07c-3.44,-0.77 -6.9,-1.43 -10.4,-2.09c-10.5,-2.03 -20.5,-4.29 -30.4,-8.42c-2.97,-1.15 -5.97,-2.06 -9.03,-2.96c-10.4,-3.14 -20.2,-7.72 -30,-12.4c-4.86,-2.29 -9.76,-4.51 -14.6,-6.72v-2c-0.72,-0.1 -1.44,-0.21 -2.19,-0.31c-3.09,-0.76 -5.19,-1.93 -7.87,-3.62c-2.93,-1.84 -5.82,-3.58 -8.94,-5.07v-2l-5,-1v-2c-0.89,-0.18 -0.89,-0.18 -1.79,-0.36c-2.3,-0.66 -3.68,-1.48 -5.59,-2.89c-0.61,-0.44 -1.22,-0.88 -1.85,-1.34c-0.63,-0.46 -1.25,-0.93 -1.9,-1.41c-4.27,-3.25 -4.27,-3.25 -8.87,-6v-2c-0.93,-0.46 -0.93,-0.46 -1.88,-0.93c-1.37,-0.69 -2.75,-1.38 -4.12,-2.07v-2c-0.85,-0.39 -0.85,-0.39 -1.72,-0.79c-6.2,-3.28 -11.4,-8.22 -16.3,-13.2c-1.77,-1.54 -3.55,-3.06 -5.35,-4.57c-1.64,-1.42 -3.21,-2.81 -4.65,-4.43v-2c-0.99,-0.33 -1.98,-0.66 -3,-1c-5,-5.46 -5,-5.46 -5,-8c-0.99,-0.33 -1.98,-0.66 -3,-1v-2h-2c-1.61,-1.73 -3.14,-3.54 -4.63,-5.37c-0.81,-1 -1.63,-2 -2.47,-3.03c-1.9,-2.6 -1.9,-2.6 -1.9,-4.6h-2c-1.39,-1.57 -1.39,-1.57 -2.97,-3.76c-0.57,-0.79 -1.14,-1.58 -1.73,-2.39c-0.89,-1.26 -0.89,-1.26 -1.8,-2.53c-0.6,-0.82 -1.19,-1.64 -1.8,-2.48c-2.78,-3.87 -5.06,-7.34 -6.7,-11.8h-2v-3h-2c-1.73,-2.55 -1.73,-2.55 -3.63,-5.87c-0.63,-1.09 -1.26,-2.18 -1.91,-3.31c-1.46,-2.82 -1.46,-2.82 -1.46,-4.82h-2c-0.26,-0.52 -0.52,-1.05 -0.78,-1.59c-2.42,-4.89 -4.92,-9.73 -7.49,-14.5c-11.7,-21.9 -11.7,-21.9 -11.7,-27.9h-2c-1.44,-3.95 -2.88,-7.91 -4.31,-11.9c-0.41,-1.11 -0.81,-2.22 -1.23,-3.36c-2.12,-5.86 -4.09,-11.7 -5.83,-17.7c-0.74,-2.42 -1.67,-4.74 -2.63,-7.08c-3.23,-10.4 -4.71,-21.4 -6.51,-32.2c-0.5,-2.89 -1.04,-5.77 -1.58,-8.66c-0.71,-3.89 -1.22,-7.73 -1.47,-11.7c-0.21,-3.13 -0.44,-5.5 -1.44,-8.5c-0.1,-1.78 -0.13,-3.56 -0.13,-5.34c0,-1.09 -0.01,-2.18 -0.01,-3.31v-3.57v-3.66c0,-2.56 0,-5.12 0.01,-7.68c0,-3.92 0,-7.85 -0.01,-11.8v-7.45v-3.57c0,-1.09 0.01,-2.18 0.01,-3.31v-2.91c0.13,-2.43 0.13,-2.43 1.13,-5.43c0.19,-1.58 0.34,-3.16 0.46,-4.75c0.08,-0.94 0.16,-1.88 0.24,-2.84c0.15,-1.95 0.31,-3.9 0.46,-5.85c0.53,-6.31 1.49,-12.4 2.84,-18.6c0.37,-1.9 0.37,-1.9 0.74,-3.83c3.87,-19.8 3.87,-19.8 7.26,-28.2c0.62,-1.95 1.22,-3.91 1.81,-5.87c3.09,-10.2 6.35,-20.2 10.2,-30.1h2c0.1,-0.86 0.2,-1.71 0.31,-2.6c0.75,-3.7 2.01,-6.43 3.75,-9.77c0.63,-1.23 1.27,-2.46 1.9,-3.69c0.33,-0.64 0.66,-1.28 1.01,-1.94c1.77,-3.44 3.49,-6.91 5.22,-10.4c0.63,-1.28 1.27,-2.56 1.91,-3.84c0.31,-0.61 0.62,-1.22 0.93,-1.85c1.66,-3.31 3.31,-6.63 4.97,-9.94h2c0.29,-0.74 0.58,-1.48 0.87,-2.25c0.95,-2.31 1.98,-4.53 3.13,-6.75h2c0.11,-0.58 0.23,-1.17 0.35,-1.77c1.13,-3.86 3.71,-6.78 6.09,-9.98c0.75,-1.04 0.75,-1.04 1.52,-2.11c0.73,-0.99 0.73,-0.99 1.47,-2c0.45,-0.6 0.89,-1.2 1.35,-1.82c0.4,-0.44 0.8,-0.87 1.22,-1.32h2c0.46,-0.93 0.46,-0.93 0.94,-1.87c0.68,-1.38 1.37,-2.75 2.06,-4.13h2c0.26,-0.56 0.52,-1.13 0.79,-1.72c3.23,-6.09 7.73,-11.1 13.2,-15.3c0.72,-0.9 1.44,-1.81 2.19,-2.75c0.59,-0.74 1.19,-1.48 1.81,-2.25h2l1,-3h2l1,-3h2v-2h2l1,-3h2l1,-3h2v-2c1.64,-1.36 3.31,-2.69 5,-4c0.78,-0.78 1.57,-1.56 2.37,-2.37c2.06,-2.06 4.13,-4.02 6.32,-5.94c0.58,-0.51 1.16,-1.02 1.76,-1.55c1.55,-1.14 1.55,-1.14 3.55,-1.14v-2c1.31,-1.62 1.31,-1.62 3,-3h3v-2c1.6,-1.23 3.25,-2.38 4.94,-3.5c3.63,-2.21 3.63,-2.21 6.06,-5.5c1.64,-0.97 3.28,-1.93 4.95,-2.84c2.86,-1.62 5.6,-3.41 8.35,-5.2c1.7,-0.96 1.7,-0.96 3.7,-0.96v-2c0.52,-0.25 1.05,-0.51 1.59,-0.77c4.15,-2.06 8.28,-4.15 12.4,-6.35c7.84,-4.23 15.6,-8.16 23.9,-11.6c2.78,-1.17 5.46,-2.44 8.17,-3.76c8.21,-3.8 17,-6.18 25.6,-8.83c1.84,-0.58 3.67,-1.19 5.5,-1.82c4.39,-1.42 8.88,-2.44 13.4,-3.51c3.53,-0.61 3.53,-0.61 6.48,-2.41c4.09,-0.96 8.24,-1.67 12.4,-2.43c1.22,-0.23 2.44,-0.46 3.69,-0.69c8.76,-1.58 17.5,-2.75 26.3,-3.52c3.32,-0.22 3.32,-0.22 5.35,-0.86c3.26,-0.72 6.53,-0.76 9.85,-0.85c0.75,-0.02 1.5,-0.05 2.27,-0.07c2.44,-0.07 4.88,-0.14 7.32,-0.2c0.83,-0.02 1.66,-0.05 2.51,-0.07c19.2,-0.49 38.3,-0.4 57.3,2.69c1.54,0.23 3.09,0.47 4.63,0.69c11.6,1.75 23.2,3.57 34.4,7.31c2.41,0.64 4.83,1.27 7.25,1.88c5.26,1.36 10.3,3 15.3,5.12c3.79,1.54 7.67,2.79 11.6,4.05c1.84,0.61 3.68,1.23 5.52,1.87c0.78,0.28 1.57,0.55 2.38,0.83c0.68,0.25 1.36,0.49 2.06,0.74c2.25,0.68 2.25,0.68 5.94,0.51c0.1,-0.7 0.2,-1.4 0.31,-2.12c0.78,-3.27 2.11,-5.92 3.69,-8.88h2c0.08,-0.68 0.16,-1.36 0.25,-2.06c0.77,-3.01 2.03,-5.25 3.63,-7.89c2.1,-3.84 3.57,-7.96 5.12,-12h2c0.09,-0.68 0.18,-1.35 0.28,-2.05c0.89,-3.65 2.49,-6.77 4.22,-10.1c2.51,-4.82 2.51,-4.82 4.5,-9.88h2c0.14,-1.04 0.14,-1.04 0.29,-2.11c0.84,-3.43 2.28,-6.01 4.02,-9.07c3.03,-5.48 5.55,-10.9 7.69,-16.8h2v-6c-0.7,-0.24 -1.4,-0.49 -2.13,-0.75c-3.27,-1.42 -6.01,-3.12 -8.87,-5.25v-2c-0.58,-0.08 -1.16,-0.16 -1.75,-0.25c-2.87,-0.95 -4.17,-2.6 -6.25,-4.75c-0.99,-0.33 -1.98,-0.66 -3,-1c-1.69,-1.43 -1.69,-1.43 -3,-3v-2c-0.99,-0.33 -1.98,-0.66 -3,-1v-2c-0.62,-0.31 -1.24,-0.62 -1.88,-0.93c-1.37,-0.69 -2.75,-1.38 -4.12,-2.07v-2c-0.84,-0.35 -0.84,-0.35 -1.7,-0.71c-2.85,-1.59 -4.81,-3.55 -7.11,-5.87l-2.76,-2.76c-0.48,-0.48 -0.95,-0.96 -1.43,-1.45c-1.43,-1.44 -2.86,-2.88 -4.29,-4.31c-12.7,-12.8 -12.7,-12.8 -12.7,-15.9c-0.99,-0.33 -1.98,-0.66 -3,-1v-2h-2c-1.66,-1.79 -1.66,-1.79 -3.5,-4.18c-0.61,-0.78 -1.22,-1.56 -1.85,-2.36c-1.63,-2.42 -2.68,-4.71 -3.65,-7.46h-2c-1.51,-1.64 -1.51,-1.64 -3.13,-3.81c-0.54,-0.71 -1.07,-1.42 -1.63,-2.14c-1.24,-2.05 -1.24,-2.05 -1.24,-5.05h-2c-1.19,-1.49 -1.19,-1.49 -2.51,-3.59c-0.73,-1.16 -0.73,-1.16 -1.48,-2.35c-0.52,-0.84 -1.04,-1.69 -1.57,-2.56c-0.54,-0.86 -1.08,-1.72 -1.63,-2.61c-13.5,-21.9 -26.2,-45.2 -33.8,-69.9l-1.5,-4.5c-0.36,-1.08 -0.36,-1.08 -0.72,-2.19c-0.56,-1.64 -1.13,-3.27 -1.72,-4.9c-2.67,-7.59 -4.47,-15.2 -6.13,-23.1c-0.59,-2.76 -1.22,-5.49 -1.92,-8.22c-5.27,-20.8 -6.51,-41.9 -6.4,-63.2c0.01,-3.7 0,-7.4 -0.02,-11.1c-0.02,-19.1 1,-38.1 5.41,-56.7c0.33,-1.64 0.65,-3.29 0.96,-4.93c0.16,-0.84 0.32,-1.67 0.49,-2.53c0.32,-1.69 0.64,-3.38 0.96,-5.08c0.95,-4.91 2.19,-9.56 3.84,-14.3c1.2,-3.5 2.17,-7.06 3.19,-10.6c1.55,-5.38 3.21,-10.6 5.39,-15.8c1.97,-4.72 3.78,-9.51 5.62,-14.3c1.76,-4.55 3.6,-9.04 5.55,-13.5h2l1,-6h2c0.11,-0.72 0.23,-1.45 0.35,-2.2c1.18,-5.07 4.07,-9.32 6.65,-13.8c0.4,-0.71 0.81,-1.43 1.23,-2.16c1.33,-2.35 2.67,-4.69 4.02,-7.02c0.43,-0.77 0.87,-1.54 1.32,-2.33c1.09,-1.86 2.25,-3.68 3.43,-5.49h2l1,-5h2l1,-4h2c0.25,-0.7 0.49,-1.4 0.75,-2.12c1.42,-3.27 3.12,-6.02 5.25,-8.88h2c0.29,-0.76 0.58,-1.52 0.87,-2.31c1.13,-2.69 1.13,-2.69 3.13,-5.69h2c0.31,-0.62 0.62,-1.23 0.94,-1.87c0.68,-1.38 1.37,-2.75 2.06,-4.13h2c0.24,-0.56 0.48,-1.11 0.72,-1.69c1.55,-2.81 3.47,-4.89 5.65,-7.24c3.02,-3.27 5.88,-6.58 8.63,-10.1c1.62,-1.81 1.62,-1.81 3,-3h2v-2c1.66,-1.34 3.33,-2.67 5,-4c0.58,-0.76 1.15,-1.52 1.75,-2.31c4.12,-4.93 9.4,-8.99 15.2,-11.7v-2c1.92,-1.63 3.84,-3.13 5.87,-4.62c0.56,-0.42 1.11,-0.84 1.69,-1.28c4.18,-3.1 4.18,-3.1 6.44,-3.1v-2c0.95,-0.51 1.9,-1.03 2.87,-1.56c3.18,-1.81 6.15,-3.82 9.13,-5.94c10.6,-7.5 10.6,-7.5 14,-7.5v-2l5,-1v-2c5.62,-3 5.62,-3 9,-3v-2c2.1,-1 4.2,-2 6.31,-3c1.17,-0.55 2.34,-1.11 3.55,-1.68c3.14,-1.32 3.14,-1.32 6.14,-1.32v-2c1.2,-0.45 1.2,-0.45 2.42,-0.92c5.44,-2.07 10.8,-4.17 16.2,-6.45c5.31,-2.23 10.7,-4.26 16.1,-6.25c0.78,-0.29 1.56,-0.58 2.37,-0.88c7.33,-2.68 14.6,-5.3 22.2,-6.9c4.22,-0.93 8.41,-2.02 12.6,-3.1c2.03,-0.52 4.07,-1.01 6.11,-1.5c0.73,-0.17 1.47,-0.35 2.23,-0.53c7.31,-1.61 14.6,-2.08 22.1,-2.53c2.48,-0.15 4.95,-0.31 7.43,-0.47c1.08,-0.07 2.16,-0.13 3.28,-0.2c2.9,-0.2 2.9,-0.2 5.42,-0.79c3.29,-0.62 6.44,-0.61 9.8,-0.61zM-12.5,121c-1.29,0.17 -1.29,0.17 -2.61,0.35c-5.62,0.87 -10.8,2.38 -16.1,4.33c-1.09,0.39 -2.18,0.78 -3.3,1.18c-7.49,2.83 -14.6,6.11 -21.7,9.82v2c-0.7,0.09 -1.4,0.17 -2.13,0.26c-3.54,0.92 -5.87,2.53 -8.87,4.62c-5.82,4.02 -5.82,4.02 -8.88,5.76c-1.05,0.67 -1.05,0.67 -2.12,1.36v2c-0.84,0.37 -0.84,0.37 -1.69,0.75c-2.74,1.48 -4.99,3.19 -7.31,5.25v2c-0.55,0.23 -1.11,0.46 -1.67,0.69c-3.02,1.7 -5.14,3.86 -7.58,6.31c-0.89,0.89 -1.79,1.78 -2.71,2.69c-2.26,2.05 -2.26,2.05 -2.04,4.31h-2v3c-1.49,0.5 -1.49,0.5 -3,1v2h-2c-2.96,3.64 -2.96,3.64 -4,8h-2v3h-2l-1,5h-2c-5.2,10.5 -10,20.6 -13,32c-0.37,1.32 -0.75,2.63 -1.13,3.94c-0.29,1.01 -0.57,2.02 -0.87,3.06c-0.33,0.93 -0.65,1.86 -0.99,2.82c-7.97,25.1 -4.58,55.5 2.99,80.2c0.33,1.14 0.67,2.28 1.02,3.45c5.9,18.9 16.1,37.4 29,52.6h2c0.49,1.49 0.49,1.49 1,3h2c0.24,0.56 0.49,1.13 0.74,1.71c1.49,2.71 3.3,4.76 5.38,7.04c0.73,0.8 1.45,1.6 2.2,2.42c0.83,0.91 0.83,0.91 1.68,1.83c-3.47,1.98 -3.47,1.98 -7,4v2c-0.56,0.11 -1.12,0.21 -1.69,0.32c-2.79,0.82 -4.93,2.03 -7.31,3.68v2c-0.58,0.13 -1.16,0.25 -1.75,0.38c-2.28,0.63 -4.18,1.51 -6.25,2.62v2c-2.67,1.34 -5.34,2.67 -8,4v2l-6,3v2c-0.99,0.33 -1.98,0.66 -3,1v2c-0.59,0.27 -1.18,0.55 -1.79,0.83c-6.57,3.49 -11.8,9.65 -17,14.9c-0.57,0.56 -1.13,1.12 -1.71,1.69c-5.2,4.59 -5.2,4.59 -7.48,10.6c-0.99,0.33 -1.98,0.66 -3,1v2h-2c-2.4,2.64 -2.4,2.64 -3,6h-2c-2.96,3.64 -2.96,3.64 -4,8h-2c-1.6,1.95 -1.6,1.95 -3.13,4.38c-0.54,0.81 -1.07,1.62 -1.63,2.46c-1.41,2.04 -1.41,2.04 -1.24,4.16h-2l-1,5h-2c-1.01,1.77 -2.01,3.54 -3,5.32c-0.84,1.47 -0.84,1.47 -1.69,2.98c-1.53,2.65 -1.53,2.65 -1.31,5.7h-2c-1.4,2.58 -2.77,5.16 -4.13,7.75c-0.59,1.1 -0.59,1.1 -1.2,2.21c-0.37,0.71 -0.74,1.42 -1.12,2.15c-0.34,0.65 -0.69,1.3 -1.04,1.97c-0.72,1.97 -0.72,1.97 0.27,4.03c1.51,2.34 3.24,4.18 5.22,6.14c0.7,0.71 1.4,1.42 2.12,2.14c1.72,1.83 1.72,1.83 3.88,1.61c0.49,1.49 0.49,1.49 1,3h2c0.49,1.49 0.49,1.49 1,3h2v2c2.63,2.4 2.63,2.4 6,3l1,3h2v2c1.48,1.58 1.48,1.58 3.37,3.13c0.94,0.81 0.94,0.81 1.9,1.63c1.64,1.44 1.64,1.44 3.73,1.24v2c0.64,0.11 1.28,0.21 1.94,0.32c1.02,0.34 1.02,0.34 2.06,0.68c0.49,1.49 0.49,1.49 1,3c0.82,0.33 1.65,0.66 2.5,1c0.82,0.33 1.65,0.66 2.5,1c0.49,1.49 0.49,1.49 1,3c2.48,1.84 2.48,1.84 5.44,3.57c5.39,3.27 5.39,3.27 7.56,5.43h3v2c2.9,2.04 4.4,3 8,3v2l5,1v2c0.85,0.43 1.69,0.85 2.57,1.29c1.17,0.58 2.34,1.17 3.55,1.78c0.63,0.31 1.27,0.63 1.92,0.95c3.18,1.59 6.35,3.18 9.51,4.8c18.4,10.5 18.4,10.5 38.4,14.2v2c0.58,0.12 1.16,0.25 1.76,0.37c0.78,0.17 1.56,0.34 2.36,0.51c0.77,0.16 1.53,0.32 2.32,0.49c2.56,0.63 2.56,0.63 5.19,1.54c4.63,1.5 9.32,2.57 14.1,3.66c1.39,0.33 1.39,0.33 2.81,0.67c5.77,1.32 11.4,2.14 17.3,2.53c2.21,0.23 2.21,0.23 4.21,1.23c10.1,1.53 20.4,1.16 30.6,1.13c2.87,0 5.75,0 8.62,0.01c15.3,0.96 15.3,0.96 29.8,-2.14c2.24,-0.27 4.5,-0.52 6.75,-0.75c7.07,-0.8 13.9,-2.16 20.9,-3.75c0.94,-0.21 1.87,-0.42 2.84,-0.64c4.6,-1.08 9.08,-2.27 13.5,-3.86c1.5,-0.51 3,-1.03 4.5,-1.55c4.37,-1.51 8.73,-3.05 13.1,-4.6c2,-0.7 4,-1.4 6.01,-2.1c8.62,-3.13 16.6,-7.36 24.6,-11.8c1.92,-1.04 3.86,-2.01 5.81,-2.98v-2l5,-1v-2c1.04,-0.12 1.04,-0.12 2.1,-0.25c3.63,-0.94 6.11,-2.59 9.21,-4.68c1.07,-0.71 2.14,-1.43 3.24,-2.16c0.81,-0.63 1.62,-1.26 2.45,-1.91v-2l5,-1v-2c0.58,-0.11 1.16,-0.23 1.76,-0.34c2.4,-0.71 3.97,-1.64 5.99,-3.09c0.61,-0.44 1.23,-0.87 1.86,-1.31c0.46,-0.42 0.92,-0.83 1.39,-1.26v-2l4,-1v-2c0.53,-0.24 1.07,-0.49 1.62,-0.75c2.96,-1.55 5.68,-3.28 8.38,-5.25v-2c0.58,-0.26 1.16,-0.52 1.76,-0.79c2.35,-1.27 4.08,-2.67 6.05,-4.46c2.6,-2.32 5.21,-4.62 7.88,-6.87c2.03,-1.74 3.91,-3.48 5.81,-5.38c2.5,-2.5 2.5,-2.5 4.4,-3.9c0.65,-0.48 1.3,-0.97 1.97,-1.47c0.62,-0.43 1.24,-0.86 1.87,-1.31c1.57,-1.9 1.57,-1.9 1.22,-5.08c-1.06,-4.13 -2.8,-7.17 -5.21,-10.6c-0.83,-1.23 -1.65,-2.46 -2.47,-3.69c-0.59,-0.88 -0.59,-0.88 -1.2,-1.78c-1.39,-2.12 -2.63,-4.31 -3.83,-6.53c-1.59,-2.93 -3.22,-5.83 -4.94,-8.69c-0.4,-0.66 -0.79,-1.32 -1.2,-2c-0.37,-0.48 -0.73,-0.95 -1.11,-1.44h-2c-1.34,-2.66 -2.67,-5.33 -4,-8h-2l-3,-6h-2c-0.23,-0.51 -0.46,-1.03 -0.69,-1.56c-1.79,-3.33 -3.81,-6.58 -6.31,-9.44h-2l-1,-3h-2c-0.4,-0.87 -0.4,-0.87 -0.81,-1.76c-1.21,-2.27 -2.53,-4.04 -4.19,-5.99c-0.78,-0.92 -0.78,-0.92 -1.56,-1.86c-1.35,-1.62 -1.35,-1.62 -3.44,-1.39l-1,-3h-2l-1,-3h-2l-1,-3h-2v-2c-1.68,-1.77 -1.68,-1.77 -3.81,-3.56c-0.71,-0.62 -1.42,-1.24 -2.15,-1.88c-2.05,-1.74 -2.05,-1.74 -5.04,-2.56l-1,-3h-2v-2c-3.45,-3.3 -3.45,-3.3 -8,-4l-1,-3h-2v-2c-0.99,-0.55 -1.98,-1.11 -3,-1.68c-2.7,-1.54 -5.33,-3.15 -7.94,-4.82c-3.34,-2.13 -6.76,-3.83 -10.4,-5.41c-2.1,-1.37 -2.72,-2.79 -3.66,-5.09c0.99,-0.33 1.98,-0.66 3,-1v-2h2c1.58,-1.48 1.58,-1.48 3.12,-3.37c0.54,-0.63 1.08,-1.26 1.64,-1.9c1.43,-1.64 1.43,-1.64 1.24,-3.73h2c1.81,-1.94 1.81,-1.94 3.62,-4.37c0.63,-0.81 1.27,-1.63 1.92,-2.46c1.64,-2.01 1.64,-2.01 1.46,-4.17h2c1.65,-2.2 1.65,-2.2 3.31,-5c0.62,-1.01 1.25,-2.02 1.89,-3.06c0.59,-0.97 1.19,-1.94 1.8,-2.94c0.87,-1.35 1.75,-2.71 2.62,-4.06c5.44,-8.42 5.44,-8.42 7.38,-17.9h2l1,-8h2c0.97,-3.37 1.92,-6.74 2.87,-10.1c0.27,-0.93 0.54,-1.87 0.82,-2.83c3.55,-12.7 4.67,-25.2 4.62,-38.4v-2.04c-0.03,-10.5 -0.84,-20.4 -3.31,-30.6c-0.17,-0.88 -0.33,-1.75 -0.51,-2.66c-0.92,-4.85 -2.53,-9.22 -4.44,-13.8c-1.03,-2.52 -1.88,-5.06 -2.74,-7.64c-2.88,-8.05 -7.16,-15.5 -11.3,-22.9c-0.82,-1.49 -0.82,-1.49 -1.65,-3.01c-0.45,-0.65 -0.89,-1.31 -1.35,-1.99h-2c-0.12,-0.58 -0.23,-1.16 -0.35,-1.76c-0.7,-2.4 -1.63,-3.97 -3.09,-5.99c-0.43,-0.61 -0.86,-1.22 -1.31,-1.86c-0.41,-0.46 -0.83,-0.91 -1.25,-1.39h-2l-1,-3h-2l-0.81,-2.43c-0.4,-0.85 -0.79,-1.7 -1.19,-2.57c-0.99,-0.33 -1.98,-0.66 -3,-1l-1,-3h-2v-2c-1.55,-1.6 -1.55,-1.6 -3.56,-3.25c-1.1,-0.92 -1.1,-0.92 -2.21,-1.86c-0.74,-0.63 -1.47,-1.25 -2.23,-1.89c-0.97,-0.87 -0.97,-0.87 -1.95,-1.75c-0.6,-0.54 -1.19,-1.07 -1.8,-1.62c-0.53,-0.48 -1.06,-0.97 -1.61,-1.46c-1.86,-1.32 -3.42,-1.75 -5.64,-2.17v-2l-4,-1v-2c-2.91,-2.04 -4.4,-3 -8,-3v-2c-1.27,-0.67 -2.54,-1.34 -3.81,-2c-1.07,-0.55 -1.07,-0.55 -2.15,-1.12c-2.13,-1.07 -2.13,-1.07 -5.04,-0.88v-2c-15.6,-6.62 -30.2,-11.9 -47.3,-12.8c-2.74,-0.21 -2.74,-0.21 -4.54,-0.71c-13.4,-3.03 -30,-1.04 -43.4,0.82zM150.5,645c-1.36,0.41 -1.36,0.41 -2.75,0.83c-1.48,0.44 -1.48,0.44 -3,0.89c-3.06,0.98 -6.11,1.99 -9.15,3.04c-4.53,1.47 -9.11,2.77 -13.7,4.08c-2.91,0.84 -5.74,1.69 -8.55,2.83c-3.36,1.32 -6.83,2.13 -10.4,2.97c-3.89,0.94 -7.76,1.9 -11.6,3.01c-24.2,6.85 -48.9,8.48 -74,8.27c-3.93,-0.03 -7.87,-0.04 -11.8,-0.04c-2.52,-0.01 -5.04,-0.02 -7.55,-0.03c-1.17,-0.01 -2.34,-0.01 -3.55,-0.02c-1.08,-0.01 -2.16,-0.02 -3.27,-0.03c-0.95,0 -1.89,-0.01 -2.87,-0.02c-2.32,-0.13 -4.28,-0.51 -6.51,-1.14c-1.37,-0.15 -2.74,-0.27 -4.11,-0.36c-10.2,-0.77 -20,-2.06 -30,-4.07c-1.01,-0.21 -2.03,-0.42 -3.08,-0.63c-12.6,-2.62 -24.4,-6.41 -36.4,-10.9c-3.03,-0.93 -5.21,-1.25 -8.34,-1.03v-2c-2.23,-0.67 -4.46,-1.34 -6.69,-2c-1.24,-0.37 -2.48,-0.74 -3.76,-1.12c-3.05,-0.75 -5.44,-1.07 -8.55,-0.88l-1,3h-2c-5.2,5.96 -8.41,13.6 -11.8,20.7c-2.18,4.44 -4.5,8.79 -6.84,13.2c-6.44,10.6 -6.44,10.6 -9.31,22.2h-2c-0.32,0.84 -0.63,1.67 -0.96,2.53c-1.96,5.17 -3.91,10.3 -6.29,15.3c-1.88,4.07 -2.43,7.72 -2.75,12.2c2.67,2.35 2.67,2.35 6,3l1,3h2v2h3l1,3c2.58,2.33 3.45,3 7,3l1,3h2v2c2.63,2.4 2.63,2.4 6,3v2c1.53,1.35 3.13,2.64 4.75,3.88c2.64,2.03 5.12,3.99 7.45,6.38c1.62,1.97 1.62,1.97 3.8,1.74l1,3h2l1,3h2c0.22,0.54 0.44,1.08 0.66,1.64c1.79,3.17 4.21,5.63 6.71,8.24c2.9,3.03 5.6,5.95 7.85,9.51c0.59,0.86 1.17,1.72 1.78,2.61h2c0.26,0.55 0.51,1.11 0.78,1.67c1.4,2.68 3.01,5.1 4.72,7.58c0.61,0.89 1.21,1.79 1.84,2.71c0.55,0.67 1.09,1.35 1.66,2.04h2c0.21,0.64 0.43,1.28 0.65,1.94c1.89,4.29 4.43,8.07 6.97,12c13.3,20.7 13.3,20.7 15.4,27.1h2c0.1,0.69 0.19,1.38 0.29,2.09c0.85,3.51 2.29,6.33 3.96,9.54c0.63,1.24 1.27,2.48 1.9,3.73c0.31,0.61 0.63,1.23 0.95,1.86c3.24,6.43 6.19,12.8 7.9,19.8h2c0.08,1.12 0.16,2.23 0.25,3.38c0.53,4.29 1.95,7.82 3.63,11.8c2.15,5.47 3.57,11.2 5.12,16.8c0.85,2.98 1.69,5.96 2.56,8.93c3.47,12 5.71,24 7.54,36.4c0.76,4.97 1.61,9.83 2.9,14.7c2.48,1.25 4.15,1.13 6.93,1.14c1.05,0.01 2.09,0.01 3.16,0.02h3.49c1.2,0.01 2.41,0.01 3.65,0.02c3.32,0.01 6.63,0.02 9.94,0.02c2.07,0.01 4.14,0.01 6.21,0.01c6.47,0.02 12.9,0.03 19.4,0.03c7.48,0.01 15,0.02 22.4,0.05c5.77,0.02 11.6,0.03 17.3,0.04c3.45,0 6.9,0 10.4,0.02c3.85,0.02 7.69,0.02 11.5,0.01c1.15,0.01 2.3,0.02 3.48,0.03c1.05,-0.01 2.09,-0.01 3.16,-0.02h2.76c1.08,-0.18 1.08,-0.18 2.18,-0.37c2.03,-3.04 2.29,-4.13 2.56,-7.62c0.34,-4.28 0.34,-4.28 1.44,-5.38c0.33,-1.61 0.61,-3.23 0.86,-4.85c0.25,-1.52 0.25,-1.52 0.5,-3.06c0.17,-1.08 0.34,-2.16 0.51,-3.27c3.65,-22.5 3.65,-22.5 6.21,-30c1,-3.1 1.07,-5.61 0.92,-8.85h2c0.24,-0.96 0.24,-0.96 0.49,-1.95c2.27,-8.69 5.32,-17 8.46,-25.4c0.58,-1.61 0.58,-1.61 1.18,-3.24c0.36,-0.96 0.72,-1.93 1.09,-2.92c0.93,-2.5 0.93,-2.5 0.78,-5.46h2c0.29,-0.91 0.29,-0.91 0.59,-1.84c5.84,-17.1 15.1,-34.2 25.7,-48.8c1.92,-2.68 3.72,-5.42 5.51,-8.19c0.56,-0.87 1.13,-1.75 1.71,-2.64c1.43,-2.46 2.5,-4.88 3.48,-7.55h2c1.63,-1.92 3.14,-3.84 4.62,-5.87c0.42,-0.56 0.84,-1.11 1.28,-1.69c2.36,-2.9 2.36,-2.9 3.1,-6.44h2c2.4,-2.63 2.4,-2.63 3,-6h2c1.54,-1.72 3.01,-3.5 4.44,-5.31c4.34,-5.48 4.34,-5.48 6.34,-7.42c1.45,-1.22 1.45,-1.22 1.22,-3.27c0.99,-0.33 1.98,-0.66 3,-1v-2c0.99,-0.33 1.98,-0.66 3,-1v-2h2c1.58,-1.48 1.58,-1.48 3.12,-3.37c0.81,-0.94 0.81,-0.94 1.64,-1.9c1.43,-1.64 1.43,-1.64 1.24,-3.73h2c1.12,-3.7 1.48,-5.82 -0.01,-9.45c-1.52,-2.73 -3.13,-5.36 -4.8,-7.98c-0.56,-0.93 -1.12,-1.85 -1.7,-2.8c-2.13,-3.47 -2.13,-3.47 -4.49,-6.77h-2c-0.1,-0.71 -0.19,-1.42 -0.28,-2.15c-0.85,-3.36 -2.29,-5.6 -4.22,-8.47c-1.91,-2.85 -3.42,-5.12 -4.5,-8.38h-2c-0.13,-0.79 -0.13,-0.79 -0.26,-1.6c-1.02,-3.29 -2.77,-5.87 -4.62,-8.77c-2.61,-4.13 -5.01,-8.22 -7.12,-12.6h-2l-1,-5h-2c-0.13,-0.59 -0.26,-1.18 -0.39,-1.79c-0.98,-3.53 -2.98,-6.52 -4.86,-9.64c-0.44,-0.73 -0.87,-1.46 -1.32,-2.21c-1.47,-2.46 -2.95,-4.91 -4.43,-7.36c-0.84,-1.39 -0.84,-1.39 -1.7,-2.81c-1.74,-2.88 -3.49,-5.75 -5.24,-8.62c-0.55,-0.92 -1.11,-1.84 -1.68,-2.79c-0.53,-0.85 -1.05,-1.71 -1.6,-2.59c-0.46,-0.76 -0.93,-1.52 -1.41,-2.3c-1.96,-2.7 -3.34,-4.04 -6.75,-3.53zM-370.5,801c-2.85,2.54 -5.48,5.31 -7.64,8.46v2h-2c-0.64,1.19 -1.26,2.37 -1.88,3.57c-0.35,0.66 -0.69,1.32 -1.05,2c-3.05,6.92 -3.63,13.7 -4.2,21.2c-0.13,1.53 -0.13,1.53 -0.26,3.1c-0.54,6.73 -0.72,13.4 -0.61,20.2c-4.22,0.73 -8.44,1.33 -12.7,1.88c-9.45,1.34 -18.3,3.98 -27.3,7.12c-1.09,0.37 -2.17,0.75 -3.29,1.13c-7.43,2.59 -14.6,5.47 -21.7,8.87v2c-0.7,0.11 -1.4,0.21 -2.13,0.32c-3.26,0.78 -5.92,2.1 -8.87,3.68v2c-0.58,0.12 -1.17,0.23 -1.77,0.35c-2.4,0.7 -3.96,1.63 -5.98,3.09c-0.92,0.65 -0.92,0.65 -1.86,1.31c-0.46,0.41 -0.92,0.83 -1.39,1.25v2c-0.58,0.11 -1.16,0.21 -1.75,0.32c-2.61,0.79 -4.23,1.87 -6.25,3.68v2c-1.49,0.5 -1.49,0.5 -3,1v2c-1.49,0.5 -1.49,0.5 -3,1v2h-2c-1.64,2.08 -3.14,4.14 -4.63,6.32c-0.42,0.59 -0.84,1.19 -1.27,1.8c-2.53,3.6 -2.53,3.6 -3.1,7.88h-2l-1,8h-2c-0.54,3.12 -1.06,6.25 -1.56,9.38c-0.16,0.87 -0.31,1.74 -0.46,2.63c-1,6.23 -0.88,11.8 0.02,18c0.12,1.05 0.24,2.1 0.36,3.18c1.19,8.22 3.93,15.4 7.64,22.8h2c0.11,0.59 0.23,1.17 0.35,1.77c0.7,2.4 1.63,3.96 3.09,5.98c0.64,0.92 0.64,0.92 1.3,1.86c0.42,0.46 0.83,0.92 1.26,1.39h2l1,3h2v2c2.63,2.4 2.63,2.4 6,3v2c3.63,2.97 3.63,2.97 8,4v2l5,1v2c2.08,1.01 4.16,2.01 6.25,3c1.16,0.56 2.32,1.12 3.51,1.69c3.27,1.56 3.27,1.56 7.24,1.31v2l8,1v2c32.6,9.96 66.3,16.6 100,20c5.19,0.55 10.2,1.16 15.3,2.44c2.76,0.64 5.55,1.1 8.35,1.57c14.1,2.35 28.7,5.29 41.4,12.2c1.87,0.98 1.87,0.98 4.73,0.77v2c2.63,2.4 2.63,2.4 6,3l2,9h-2v2l-4,1v2c-1.03,0.15 -1.03,0.15 -2.08,0.29c-3.57,0.87 -6.42,2.38 -9.67,4.09c-9.17,4.71 -18.3,7.21 -28.2,9.62c-1.25,0.34 -2.5,0.68 -3.79,1.02c-35.9,8.94 -84.4,4.97 -116,-14.1c-1.71,-1.07 -1.71,-1.07 -3.74,-0.92v-2c-1.99,-1.35 -3.99,-2.68 -6,-4c-3.3,-2.47 -4.2,-4.31 -4.94,-8.25c-1.85,-9.25 -6.69,-13.6 -14.3,-18.8c-1.56,-1.01 -3.14,-1.99 -4.72,-2.97c-0.64,-0.4 -1.27,-0.81 -1.93,-1.23c-6.19,-2.3 -14.9,-1.72 -21.1,0.14c-5.25,2.49 -9.21,5.67 -12.9,10.1v2h-2l-1,5h-2c-2.09,7.07 -3.54,12.8 -2,20c0.08,0.79 0.16,1.57 0.24,2.37c1.19,9.74 6.13,21.2 12.8,28.6h2c0.22,0.55 0.45,1.11 0.69,1.67c1.7,3.02 3.86,5.15 6.31,7.58c1.33,1.34 1.33,1.34 2.69,2.71c2.04,2.26 2.04,2.26 4.31,2.04v2c1.94,1.6 1.94,1.6 4.37,3.13c1.22,0.81 1.22,0.81 2.46,1.63c2.04,1.41 2.04,1.41 4.17,1.24v2c1.76,1.01 3.54,2.01 5.31,3c0.99,0.56 1.97,1.12 2.99,1.69c2.65,1.53 2.65,1.53 5.7,1.31v2c0.83,0.32 1.67,0.63 2.53,0.96c5.81,2.21 11.6,4.43 17.2,7.15c3.35,1.3 6.81,2.06 10.3,2.89c1.34,0.35 2.69,0.69 4.03,1.04c0.67,0.17 1.33,0.34 2.02,0.51c1.34,0.35 2.69,0.69 4.04,1.04c4.28,1.09 8.52,1.82 12.9,2.41c4.4,1.16 8.69,2.56 13,4c0.01,0.95 0.03,1.9 0.04,2.87c0.06,3.56 0.14,7.12 0.22,10.7c0.03,1.53 0.06,3.07 0.08,4.6c0.17,11 0.76,20.9 6.72,30.5c0.51,0.84 1.01,1.67 1.54,2.54c0.46,0.6 0.92,1.21 1.4,1.83h2v2c1.03,0.62 2.06,1.24 3.12,1.88c0.58,0.35 1.16,0.69 1.76,1.05c8.06,4.08 17.4,4.46 26.1,2.35c5.12,-1.92 9.14,-4.41 13,-8.28v-2h2l1,-5h2c3.27,-9.44 3.67,-18.7 4.06,-28.6c0.1,-2.33 0.2,-4.66 0.31,-6.99c0.06,-1.44 0.12,-2.88 0.17,-4.32c0.23,-4.9 0.23,-4.9 2.46,-7.13c2.56,-0.38 2.56,-0.38 5.56,-0.56c3.53,0.06 3.53,0.06 6.44,-1.44c1.83,-0.32 3.66,-0.61 5.5,-0.87c4.49,-0.73 8.61,-1.67 12.9,-3.21c2.8,-0.99 5.64,-1.85 8.48,-2.71c5.85,-1.77 11.5,-3.61 17,-6.24c2.38,-1.11 4.81,-2.07 7.27,-3.03c3.72,-1.47 7.27,-3.07 10.8,-4.94v-2c0.55,-0.1 1.11,-0.2 1.69,-0.31c2.78,-0.83 4.92,-2.03 7.31,-3.69v-2c0.56,-0.24 1.12,-0.49 1.7,-0.74c7.82,-4.27 15,-12.2 20.3,-19.3v-2h2c4.37,-5.47 9,-11.9 9,-19h2c5.17,-14.5 4.06,-29.4 -1.75,-43.6c-2.6,-5.45 -5.84,-10.5 -9.25,-15.4c-0.58,-0.83 -1.15,-1.67 -1.74,-2.53c-5.22,-7.06 -11.7,-12.1 -18.7,-17.3c-1.48,-1.12 -2.9,-2.32 -4.32,-3.52c-2.19,-1.98 -2.19,-1.98 -5.26,-1.68v-2c-11.9,-6.85 -11.9,-6.85 -25,-9v-2c-0.58,-0.12 -1.16,-0.24 -1.76,-0.36c-1.17,-0.26 -1.17,-0.26 -2.37,-0.51c-0.76,-0.16 -1.53,-0.33 -2.32,-0.49c-2.55,-0.64 -2.55,-0.64 -5.24,-1.56c-4.34,-1.41 -8.74,-2.47 -13.2,-3.51c-0.92,-0.22 -1.85,-0.44 -2.8,-0.67c-9.83,-2.29 -19.7,-4.48 -29.8,-5.52c-3.56,-0.38 -3.56,-0.38 -4.56,-1.38c-2.34,-0.33 -4.66,-0.62 -7,-0.87c-6.64,-0.78 -13.2,-1.81 -19.8,-3.02c-4.59,-0.83 -9.18,-1.54 -13.8,-2.17c-4.14,-0.57 -8.12,-1.27 -12.2,-2.38c-3.24,-0.79 -6.51,-1.34 -9.79,-1.93c-11.4,-2.08 -22.5,-4.56 -33.3,-8.89c-2.47,-0.95 -2.47,-0.95 -6.23,-0.74v-2c-0.57,-0.26 -1.13,-0.53 -1.72,-0.8c-0.73,-0.36 -1.46,-0.71 -2.22,-1.07c-0.73,-0.35 -1.46,-0.7 -2.21,-1.06c-1.85,-1.07 -1.85,-1.07 -2.85,-3.07h-2c0.95,-8.23 0.95,-8.23 3,-11c1.64,-0.73 3.31,-1.38 5,-2c1.27,-0.89 1.27,-0.89 2.58,-1.8c4.02,-2.74 8.42,-4.48 12.9,-6.32c0.83,-0.35 1.66,-0.7 2.51,-1.05c6.73,-2.8 13,-4.97 20.2,-5.89c4.53,-0.46 4.53,-0.46 8.75,-1.94c10.4,-1.26 20.9,-1.15 31.3,-1.13c2.61,0.01 5.22,0 7.82,0c20,-0.01 20,-0.01 29.9,1.13l1,1c2.16,0.33 4.33,0.61 6.5,0.88c9.85,1.37 17.6,4.52 26.6,8.82c2.35,1.05 4.41,1.81 6.92,2.3v2c2.66,1.94 5.23,3.66 8.25,5c2.29,1.31 2.61,2.63 3.75,5c0.94,1.59 1.9,3.18 2.87,4.75c2.62,4.33 4.94,8.7 7.13,13.2h2l1,3h2v2c8.65,4.81 17.1,7.27 27,5c2.47,-0.84 4.64,-1.84 7,-3c0.63,-0.25 1.26,-0.5 1.91,-0.75c2.92,-1.74 4.61,-4.03 6.71,-6.68c1.17,-1.46 1.17,-1.46 2.35,-2.94c6.19,-8.04 5.67,-16.8 5.03,-26.6c-2.48,-17.7 -13.5,-32.6 -27.1,-43.7c-1.79,-1.46 -1.79,-1.46 -3.89,-1.28v-2h-3v-2c-2.6,-1.51 -5.21,-3 -7.81,-4.5c-0.74,-0.43 -1.48,-0.86 -2.24,-1.3c-1.07,-0.61 -1.07,-0.61 -2.16,-1.23c-0.65,-0.38 -1.31,-0.75 -1.98,-1.14c-1.94,-1.03 -1.94,-1.03 -4.81,-0.83v-2c-6.67,-3.46 -6.67,-3.46 -14,-4v-2c-1.05,-0.32 -2.1,-0.65 -3.19,-0.99c-1.41,-0.44 -2.83,-0.88 -4.25,-1.32c-0.74,-0.23 -1.48,-0.46 -2.24,-0.7c-3.63,-1.13 -7.24,-2.29 -10.8,-3.55c-7.87,-2.66 -16.1,-4.41 -24.2,-6.29c-1.08,-0.25 -2.16,-0.51 -3.27,-0.77c-0.96,-0.22 -1.92,-0.44 -2.9,-0.67c-0.71,-0.23 -1.43,-0.47 -2.16,-0.71c-1.54,-3.08 -1.3,-6.36 -1.43,-9.75c-0.08,-1.59 -0.15,-3.19 -0.22,-4.78c-0.12,-2.51 -0.23,-5.01 -0.33,-7.52c-0.44,-12.8 -0.44,-12.8 -4.02,-25h-2c-0.07,-0.58 -0.14,-1.17 -0.22,-1.77c-1.77,-5.04 -8.32,-8.01 -12.9,-10.3c-1.94,-0.77 -3.87,-1.39 -5.87,-1.96c-1.08,-0.35 -1.08,-0.35 -2.18,-0.72c-8.11,-2.34 -14.6,0.23 -21.2,5.26zM424.5,804.97c-1.53,1.78 -1.89,3.2 -2.28,5.49h-2c-2.26,7.52 -3.28,14.7 -3.59,22.5c-0.04,0.94 -0.08,1.89 -0.12,2.86c-0.48,12.9 -0.44,25.8 -0.43,38.7c0.01,3.72 0,7.44 0,11.2c0,6.26 0,12.5 0.01,18.8v19c-0.11,40.2 -0.11,40.2 0.4,80.4c0.03,1.45 0.06,2.91 0.08,4.36c0.13,7.84 0.88,14.7 3.65,22.1h2c0.26,0.57 0.52,1.13 0.78,1.72c1.34,2.51 2.9,4.61 4.66,6.85c0.59,0.76 1.19,1.52 1.8,2.31c1.52,1.83 2.97,3.56 4.76,5.12h2l1,3h2l1,3h2v2h2l1,3h2l1,3h2c0.27,0.59 0.54,1.18 0.82,1.78c2.89,5.46 7.34,9.49 12.2,13.2l1,2h2c0.49,1.49 0.49,1.49 1,3h2c0.49,1.49 0.49,1.49 1,3h2v2c1.33,1.67 1.33,1.67 3,3h2c0.49,1.49 0.49,1.49 1,3h2c0.49,1.49 0.49,1.49 1,3h2v2c1.64,1.36 3.31,2.69 5,4c2.62,2.56 5.16,5.17 7.69,7.82c2.02,2.41 2.02,2.41 4.31,2.18c0.49,1.49 0.49,1.49 1,3h2c0.27,0.64 0.53,1.28 0.81,1.94c1.07,2.39 1.07,2.39 4.19,3.06c0.49,1.49 0.49,1.49 1,3h2c0.49,1.49 0.49,1.49 1,3h2v2c8.5,7.75 17.9,11.8 29.4,11.4c9.05,-1.24 16.3,-5.01 22,-12.2c4.74,-6.96 7.34,-15.2 7.13,-23.7c-1.11,-4.97 -4.41,-8.65 -7.56,-12.5c-0.99,-1.48 -0.99,-1.48 -2,-3h-2c-0.25,-0.55 -0.5,-1.11 -0.75,-1.68c-1.48,-2.74 -3.19,-4.99 -5.25,-7.32h-2l-1,-3h-2l-1,-3h-2c-0.27,-0.58 -0.54,-1.17 -0.81,-1.77c-3.7,-6.92 -10.3,-12.4 -15.9,-17.8c-2.29,-2.36 -4.32,-4.81 -6.33,-7.4c-1.52,-1.77 -1.52,-1.77 -3,-3h-2l-1,-3h-2v-2c-1.65,-1.35 -3.32,-2.68 -5,-4l-1,-2h-2l-1,-3h-2l-1,-3h-2v-2c-1.34,-1.66 -1.34,-1.66 -3,-3h-2l-1,-3h-2l-1,-3h-2l-1,-3h-2v-2h-2l-1,-3h-2c-1.73,-3.76 -2.26,-6.7 -2.27,-10.8c-0.01,-1.17 -0.01,-2.34 -0.02,-3.54v-3.86c-0.01,-1.36 -0.01,-2.72 -0.02,-4.09c-0.01,-2.93 -0.02,-5.87 -0.03,-8.8c0,-4.69 -0.03,-9.37 -0.05,-14c-0.05,-9.98 -0.08,-20 -0.11,-30c-0.04,-10.7 -0.07,-21.4 -0.13,-32c-0.02,-3.87 -0.03,-7.74 -0.04,-11.6c-0.02,-16.5 -0.33,-32.9 -1.23,-49.4c-0.04,-0.74 -0.08,-1.49 -0.12,-2.26c-0.16,-14 -0.16,-14 -6.42,-25.9c-0.6,-0.64 -1.19,-1.27 -1.81,-1.93c-0.58,-0.58 -1.16,-1.16 -1.75,-1.76c-0.51,-0.57 -1.02,-1.14 -1.54,-1.73c-1.52,-1.59 -1.52,-1.59 -4.46,-1.27v-2c-2.48,-0.49 -2.48,-0.49 -5,-1v-2c-11.9,-5.61 -23.9,-0.15 -33.7,7.51z"></path></g></g></svg>