<svg version="1.1" xmlns="http://www.w3.org/2000/svg" xmlns:xlink="http://www.w3.org/1999/xlink" width="1280" height="1280" viewBox="0,0,256,256"><g fill="#613c80" fill-rule="nonzero" stroke="none" stroke-width="1" stroke-linecap="butt" stroke-linejoin="miter" stroke-miterlimit="10" stroke-dasharray="" stroke-dashoffset="0" font-family="none" font-weight="none" font-size="none" text-anchor="none" style="mix-blend-mode: normal"><g transform="translate(0,0)"><g><g transform="translate(-0.05927,-0.1304) scale(0.16,0.16)"><path transform="translate(176,800)" d="M0,0c1.07,0 2.14,-0.01 3.25,-0.01h3.59c1.25,-0.01 2.51,-0.01 3.8,-0.01c3.49,-0.01 6.98,-0.02 10.5,-0.02c3.76,0 7.52,-0.01 11.3,-0.02c9.08,-0.02 18.2,-0.03 27.3,-0.04c4.27,-0.01 8.55,-0.01 12.8,-0.02c14.2,-0.01 28.4,-0.03 42.7,-0.04h11.1h2.78c14.9,-0.01 29.7,-0.04 44.6,-0.07c15.2,-0.03 30.5,-0.05 45.8,-0.05c8.57,0 17.1,-0.01 25.7,-0.04c7.29,-0.02 14.6,-0.03 21.9,-0.02c3.72,0.01 7.44,0 11.2,-0.02c4.04,-0.02 8.08,-0.01 12.1,0.01c1.17,-0.01 2.34,-0.03 3.55,-0.04c9.56,0.08 16.7,2.44 23.8,8.95c2.09,2.3 3.27,4.7 4.43,7.57c0.35,0.78 0.7,1.55 1.06,2.34c1.03,2.91 1.18,5.11 1.17,8.19v3.27c-0.01,1.16 -0.03,2.31 -0.04,3.51v3.61c-0.02,3.8 -0.04,7.6 -0.07,11.4c-0.01,2.58 -0.02,5.15 -0.02,7.73c-0.03,6.32 -0.06,12.6 -0.1,19h1.66c13.4,-0.05 26.9,-0.08 40.3,-0.1c6.5,-0.01 13,-0.02 19.5,-0.05c6.27,-0.02 12.6,-0.03 18.8,-0.04c2.38,0 4.77,-0.01 7.16,-0.02c23.8,-0.1 23.8,-0.1 34.6,2.21c0.84,0.17 1.67,0.33 2.53,0.51c2.09,0.41 4.15,0.88 6.22,1.37c0.72,0.17 1.45,0.34 2.19,0.52c4.58,1.13 8.81,2.51 13,4.62c2.19,1.07 4.41,1.85 6.71,2.67c7,2.75 13.1,7.13 19.3,11.3l3,2v2c0.58,0.11 1.16,0.21 1.76,0.32c2.58,0.79 3.97,1.86 5.99,3.62c0.61,0.53 1.23,1.05 1.86,1.59c1.39,1.47 1.39,1.47 1.39,3.47c0.99,0.33 1.98,0.66 3,1v2h2c11.4,11.7 20.4,26.8 26,42c0.3,0.8 0.6,1.59 0.92,2.41c4.17,11.7 7.16,24.9 7.1,37.3c0,1.21 0,1.21 -0.01,2.44c0,0.61 -0.01,1.22 -0.01,1.85h1.97c38.6,-0.02 77.1,-0.04 116,-0.05h13.9h2.79c14.9,-0.01 29.8,-0.01 44.8,-0.02c15.3,-0.01 30.6,-0.02 45.9,-0.02c9.45,0 18.9,-0.01 28.4,-0.01c6.47,-0.01 12.9,-0.01 19.4,-0.01h11.2c4.04,-0.01 8.09,-0.01 12.1,-0.01h3.61h3.26h2.84c2.22,0.12 2.22,0.12 4.22,1.12c2.35,0.32 4.7,0.61 7.06,0.88c12.5,1.6 22.7,6.69 33.9,12.1v2l5,1v2c0.72,0.25 1.44,0.5 2.19,0.75c5.25,2.34 8.28,5.84 11.8,10.2c0.77,0.59 1.55,1.18 2.35,1.78c2.98,2.5 4.89,5.07 7.09,8.29c0.38,0.56 0.77,1.13 1.16,1.71c3.5,5.21 6.54,10.6 9.4,16.2c3.98,-1.48 6.7,-3.32 10,-6h2v-2c0.99,-0.33 1.98,-0.66 3,-1c1.35,-1.31 2.68,-2.65 4,-4c1.93,-1.53 3.89,-3.02 5.87,-4.5c1.01,-0.75 2.02,-1.5 3.06,-2.28c2.03,-1.47 4.1,-2.88 6.2,-4.25c2.66,-1.82 4.6,-3.69 6.87,-5.97c2.65,-2.15 5.39,-4.2 8.12,-6.25c0.73,-0.55 1.46,-1.1 2.21,-1.68c0.7,-0.52 1.4,-1.04 2.11,-1.58c0.64,-0.48 1.27,-0.96 1.93,-1.45c1.63,-1.04 1.63,-1.04 3.63,-1.04v-2l4,-1v-2c2.07,-1.56 4.15,-3.01 6.31,-4.43c3.48,-2.31 6.8,-4.52 9.69,-7.57c1.3,-0.77 1.3,-0.77 2.62,-1.56c2.49,-1.21 2.49,-1.21 3.38,-3.44h3v-2c5.41,-4 5.41,-4 8,-4v-2c1.92,-1.63 3.84,-3.13 5.87,-4.62c0.56,-0.42 1.12,-0.84 1.69,-1.27c4.18,-3.11 4.18,-3.11 6.44,-3.11v-2c5.41,-4 5.41,-4 8,-4v-2c1.65,-1.01 3.32,-2.01 5,-3l1,-2c1.75,-1.1 3.57,-2.03 5.41,-3c1.76,-0.91 1.76,-0.91 2.59,-3h3v-2c5.41,-4 5.41,-4 8,-4v-2c1.92,-1.63 3.84,-3.13 5.87,-4.62c0.56,-0.42 1.12,-0.84 1.69,-1.27c4.18,-3.11 4.18,-3.11 6.44,-3.11v-2c5.41,-4 5.41,-4 8,-4v-2c3.46,-3 3.46,-3 6,-3v-2c2.64,-1.78 4.97,-2.99 8,-4v-2h3v-2c5.41,-4 5.41,-4 8,-4v-2c2.66,-1.27 5.33,-2.54 8,-3.81c0.74,-0.35 1.49,-0.71 2.25,-1.08c7.33,-3.47 14,-6.26 22.1,-7.23c4.47,-0.43 4.47,-0.43 8.63,-1.88c3.18,-0.24 6.37,-0.18 9.56,-0.18c0.87,-0.02 1.74,-0.03 2.64,-0.04c8.37,-0.02 15.8,1.83 23.8,4.22c0.97,0.27 1.94,0.54 2.94,0.81c7.64,2.18 14.2,5.1 21.1,9.19v2l5,1v2c0.62,0.31 1.24,0.62 1.87,0.94c1.38,0.69 2.75,1.38 4.13,2.06v2c0.99,0.33 1.98,0.66 3,1v2c0.99,0.33 1.98,0.66 3,1v2c0.99,0.33 1.98,0.66 3,1v2h2c3,3.47 3,3.47 3,6h2c5.44,7.12 8.66,15.8 12,24c0.35,0.82 0.71,1.63 1.07,2.47c7.09,19.4 5.32,42 -3.07,60.5c-0.76,1.88 -1.51,3.75 -2.25,5.63c-0.58,1.46 -1.17,2.92 -1.75,4.37h-2c-0.1,0.56 -0.21,1.12 -0.31,1.69c-0.83,2.79 -2.03,4.93 -3.69,7.31h-2c-0.24,0.73 -0.48,1.46 -0.72,2.2c-1.48,3.24 -3.25,5.13 -5.78,7.62c-0.8,0.79 -1.59,1.58 -2.41,2.39c-2.09,1.79 -2.09,1.79 -4.09,1.79v2c-1.99,1.35 -4,2.68 -6,4c-1.69,1.65 -3.35,3.32 -5,5c-1.72,1.62 -3.45,3.22 -5.19,4.82c-1.29,1.18 -1.29,1.18 -2.6,2.39c-2.21,1.79 -2.21,1.79 -4.21,1.79v2c-3.46,3 -3.46,3 -6,3v2c-1.72,1.54 -3.5,3.01 -5.31,4.44c-3.86,3.02 -3.86,3.02 -7.42,6.35c-1.27,1.21 -1.27,1.21 -3.27,1.21v2c-3.46,3 -3.46,3 -6,3v2c-1.71,1.59 -3.5,3.1 -5.31,4.57c-1.48,1.21 -1.48,1.21 -2.99,2.44c-2.7,1.99 -2.7,1.99 -5.7,2.99v2c-1.58,1.34 -1.58,1.34 -3.69,2.82c-2.63,1.9 -4.81,3.68 -7.12,6c-2.19,2.18 -2.19,2.18 -5.19,3.18v2c-3.46,3 -3.46,3 -6,3v2c-1.46,1.51 -1.46,1.51 -3.38,3.13c-0.94,0.81 -0.94,0.81 -1.89,1.63c-1.73,1.24 -1.73,1.24 -3.73,1.24v2c-4.47,4 -4.47,4 -7,4v2c-3.46,3 -3.46,3 -6,3l-1,3c-1.61,1.46 -3.29,2.85 -5,4.19c-4.57,3.64 -8.94,7.41 -13.2,11.4c-1.78,1.43 -1.78,1.43 -3.78,1.43v2c-1.74,1.61 -3.54,3.14 -5.38,4.63c-0.99,0.82 -1.99,1.63 -3.02,2.48c-2.6,1.89 -2.6,1.89 -4.6,1.89l-1,3h-2v2c-3.46,3 -3.46,3 -6,3v2c-1.55,1.42 -3.17,2.76 -4.81,4.07c-1,0.8 -2,1.6 -3.03,2.42c-0.52,0.42 -1.04,0.83 -1.58,1.26c-2.5,1.98 -4.98,3.99 -7.46,6c-0.86,0.7 -1.72,1.4 -2.61,2.11c-2.65,2.26 -5.07,4.67 -7.51,7.14c-1.21,1.13 -2.44,2.23 -3.69,3.32c-0.58,0.51 -1.16,1.02 -1.76,1.55c-1.55,1.13 -1.55,1.13 -3.55,1.13v2c-1.46,1.51 -1.46,1.51 -3.38,3.13c-0.94,0.81 -0.94,0.81 -1.89,1.63c-1.73,1.24 -1.73,1.24 -3.73,1.24v2c-4.47,4 -4.47,4 -7,4v2c-3.46,3 -3.46,3 -6,3l-1,3h-2v2c-2.25,2.73 -4.99,4.21 -8,6c-2.42,1.83 -4.67,3.67 -6.81,5.82c-3.24,3.24 -6.72,6.19 -10.2,9.18c-0.59,0.52 -1.18,1.04 -1.78,1.57c-3.99,3.43 -3.99,3.43 -6.22,3.43v2c-1.46,1.51 -1.46,1.51 -3.38,3.13c-0.94,0.81 -0.94,0.81 -1.89,1.63c-1.73,1.24 -1.73,1.24 -3.73,1.24v2c-1.74,1.61 -3.54,3.14 -5.38,4.63c-0.99,0.82 -1.99,1.63 -3.02,2.48c-2.6,1.89 -2.6,1.89 -4.6,1.89l-1,3h-2v2c-3.46,3 -3.46,3 -6,3v2c-1.71,1.59 -3.5,3.1 -5.31,4.57c-0.99,0.8 -1.98,1.61 -2.99,2.44c-2.7,1.99 -2.7,1.99 -5.7,2.99v2c-1.58,1.34 -1.58,1.34 -3.69,2.82c-2.63,1.9 -4.81,3.68 -7.12,6c-2.19,2.18 -2.19,2.18 -5.19,3.18v2c-3.46,3 -3.46,3 -6,3v2c-1.72,1.54 -3.5,3.01 -5.31,4.44c-3.86,3.02 -3.86,3.02 -7.42,6.35c-1.27,1.21 -1.27,1.21 -3.27,1.21v2c-1.99,1.35 -4,2.68 -6,4c-1.69,1.65 -3.35,3.32 -5,5c-1.22,1.12 -2.45,2.23 -3.69,3.32c-0.58,0.51 -1.16,1.02 -1.76,1.55c-1.55,1.13 -1.55,1.13 -3.55,1.13v2c-1.76,0.98 -3.52,1.96 -5.27,2.93c-1.89,1.08 -1.89,1.08 -3.73,3.07h-3v2l-5,1v2c-4.94,2.52 -9.9,5 -14.9,7.32c-0.71,0.32 -1.42,0.65 -2.15,0.99c-1.91,0.69 -1.91,0.69 -4.91,0.69v2c-1.05,0.33 -2.1,0.66 -3.18,0.99c-1.42,0.44 -2.84,0.89 -4.26,1.33c-0.74,0.23 -1.47,0.45 -2.23,0.69c-3.72,1.16 -7.41,2.36 -11.1,3.68c-4.48,1.54 -9.07,2.2 -13.8,2.88c-2.49,0.31 -2.49,0.31 -4.5,1.43c-8.51,1.53 -17.4,1.16 -26,1.13c-2.47,0 -4.94,0 -7.41,0.01c-10.7,0.01 -21.1,-0.28 -31.6,-2.53c-4.17,-0.82 -8.36,-1.46 -12.6,-2.11c-5.83,-0.89 -11.6,-1.88 -17.4,-3.1c-2.95,-0.55 -5.92,-0.82 -8.91,-1.11c-3.04,-0.39 -5.98,-1.11 -8.97,-1.82c-2.92,-0.61 -5.84,-0.88 -8.81,-1.17c-2.38,-0.29 -4.67,-0.71 -7.02,-1.2c-5.52,-1.13 -11,-2.13 -16.6,-3.1c-1,-0.17 -2,-0.35 -3.04,-0.53c-6.88,-1.18 -13.8,-2.17 -20.7,-3.03c-3.41,-0.48 -6.71,-1.2 -10.1,-2c-2.85,-0.61 -5.71,-0.86 -8.61,-1.14c-2.36,-0.29 -4.63,-0.71 -6.95,-1.21c-5.84,-1.19 -11.7,-2.11 -17.6,-3.02c-7.18,-1.13 -14.4,-2.3 -21.5,-3.69c-6.33,-1.23 -12.6,-2.1 -19,-2.91c-3.5,-0.49 -6.88,-1.2 -10.3,-2.03c-2.85,-0.61 -5.71,-0.86 -8.6,-1.14c-2.38,-0.29 -4.67,-0.71 -7.02,-1.2c-5.52,-1.13 -11,-2.13 -16.6,-3.1c-1,-0.17 -2,-0.35 -3.04,-0.53c-6.88,-1.18 -13.8,-2.17 -20.7,-3.03c-3.38,-0.48 -6.64,-1.19 -9.95,-2c-3.37,-0.69 -6.76,-0.93 -10.2,-1.19c-1.97,-0.25 -1.97,-0.25 -2.97,-1.25c-2.25,-0.31 -4.5,-0.57 -6.75,-0.81c-6.73,-0.77 -13.4,-1.89 -20,-3.19c-0.9,-0.17 -1.81,-0.35 -2.74,-0.53c-1.73,-0.34 -3.47,-0.68 -5.21,-1.02c-7.27,-1.41 -14.6,-2.49 -21.9,-3.45c-5.08,-0.65 -10.1,-1.48 -15.1,-2.56c-2.45,-0.47 -4.87,-0.75 -7.35,-1c-3.94,-0.44 -3.94,-0.44 -4.94,-1.44c-2.25,-0.31 -4.5,-0.57 -6.75,-0.81c-9.41,-1.08 -18.6,-2.92 -27.9,-4.74c-7.19,-1.39 -14.4,-2.47 -21.7,-3.5c-1.87,-0.27 -1.87,-0.27 -3.78,-0.54c-0.95,-0.13 -1.9,-0.27 -2.87,-0.41c0.01,0.66 0.02,1.32 0.03,1.99c0.08,6.87 0.14,13.7 0.19,20.6c0.02,2.56 0.05,5.12 0.08,7.67c0.05,3.69 0.07,7.38 0.09,11.1c0.02,1.14 0.04,2.27 0.06,3.44c0,9.6 -2.34,16.7 -8.88,23.8c-2.3,2.1 -4.7,3.27 -7.57,4.43c-0.78,0.35 -1.55,0.7 -2.35,1.06c-2.86,1.02 -5.02,1.2 -8.05,1.2c-1.08,0.01 -2.16,0.01 -3.27,0.02c-1.17,0 -2.35,-0.01 -3.56,-0.01c-1.26,0.01 -2.52,0.01 -3.81,0.02c-3.48,0.01 -6.97,0.01 -10.4,0c-3.76,0 -7.51,0.02 -11.3,0.03c-7.36,0.01 -14.7,0.02 -22.1,0.02c-5.99,0 -12,0 -18,0.01c-17,0.02 -33.9,0.03 -50.9,0.03c-0.92,-0.01 -1.83,-0.01 -2.78,-0.01h-2.77c-14.8,0 -29.7,0.02 -44.5,0.05c-15.2,0.03 -30.5,0.04 -45.7,0.04c-8.55,0 -17.1,0.01 -25.7,0.03c-7.29,0.02 -14.6,0.02 -21.9,0.01c-3.71,-0.01 -7.43,-0.01 -11.1,0.01c-4.04,0.02 -8.07,0 -12.1,-0.01c-1.75,0.01 -1.75,0.01 -3.54,0.03c-9.56,-0.08 -16.7,-2.44 -23.8,-8.95c-2.09,-2.3 -3.27,-4.7 -4.43,-7.58c-0.35,-0.69 -0.7,-1.38 -1.06,-2.1c-1.33,-4.09 -1.22,-7.92 -1.2,-12.2c0,-0.95 -0.01,-1.89 -0.01,-2.86c-0.01,-3.19 0,-6.38 0,-9.56c0,-2.3 -0.01,-4.6 -0.01,-6.9c-0.01,-6.33 -0.01,-12.7 -0.01,-19c0,-6.12 -0.01,-12.2 -0.02,-18.4c-0.02,-14.1 -0.02,-28.2 -0.03,-42.2c0,-10.9 0,-21.8 -0.01,-32.6v-9.38v-2.36c-0.02,-21.9 -0.02,-43.8 -0.02,-65.6v-2.5v-12.6v-2.51v-5.04c0,-26.1 -0.02,-52.3 -0.04,-78.4c-0.03,-29.4 -0.05,-58.7 -0.05,-88v-9.39v-2.33c0,-12.4 -0.01,-24.8 -0.03,-37.2c-0.02,-12.5 -0.02,-24.9 0,-37.4c0,-6.76 0,-13.5 -0.01,-20.3c-0.02,-6.19 -0.02,-12.4 0,-18.6c0,-2.23 0,-4.47 -0.01,-6.71c-0.02,-3.04 -0.01,-6.08 0.01,-9.12c-0.01,-1.3 -0.01,-1.3 -0.03,-2.63c0.1,-8.38 3.11,-15.5 8.74,-21.7c3.2,-2.7 6.91,-4.06 10.8,-5.51c2.51,-1.25 4.22,-1.12 7.03,-1.13zM24,50.1v500h250v-500zM324,125.1v350c4.01,2.01 7.26,2.56 11.6,3c5.25,0.56 10.4,1.36 15.5,2.43c5.78,1.16 11.6,2.13 17.4,3.14c1.9,0.33 1.9,0.33 3.83,0.67c5.23,0.9 10.4,1.8 15.7,2.35c2.91,0.31 5.56,0.7 8.38,1.41c3.69,0.87 7.31,1.35 11.1,1.71c2.32,0.28 4.54,0.69 6.83,1.17c6.52,1.34 13.1,2.44 19.6,3.56c7.52,1.29 15,2.57 22.5,3.93c5.9,1.08 11.7,2 17.7,2.42c1.69,0.21 1.69,0.21 2.69,1.21c2.65,0.36 5.28,0.67 7.94,0.94c5.47,0.61 10.8,1.32 16.2,2.5c4.91,0.97 9.87,1.68 14.8,2.42c3.78,0.58 7.5,1.23 11.2,2.11c7.64,1.75 15.5,2.58 23.2,3.62c1.83,0.25 1.83,0.25 3.69,0.51c1.67,0.23 1.67,0.23 3.37,0.46c2.54,0.44 2.54,0.44 3.54,1.44c2.24,0.31 4.5,0.57 6.75,0.82c6.73,0.77 13.4,1.89 20,3.18c0.9,0.18 1.81,0.36 2.74,0.54c1.73,0.34 3.47,0.68 5.21,1.02c8.34,1.61 16.7,2.8 25.1,3.75c5.06,0.59 5.06,0.59 6.17,1.69c2.65,0.38 5.28,0.71 7.94,1c7.79,0.87 7.79,0.87 10.1,2c2.2,0.33 4.41,0.61 6.62,0.88c5.51,0.69 10.9,1.56 16.4,2.62c6.53,1.28 13,2.2 19.7,3.04c3.47,0.48 6.81,1.2 10.2,2.03c3.36,0.68 6.75,0.93 10.2,1.19c1.97,0.24 1.97,0.24 2.97,1.24c2.65,0.38 5.28,0.71 7.94,1c7.79,0.87 7.79,0.87 10.1,2c1.89,0.35 3.79,0.66 5.69,0.94c1.74,0.26 1.74,0.26 3.52,0.53c5.02,0.71 10,1.35 15.1,1.97c2.67,0.41 5.01,0.91 7.59,1.6c7.21,1.65 14.7,1.36 22,1.34h2.37c11.7,-0.03 22.5,-0.78 33.7,-4.38c1.25,-0.35 2.51,-0.7 3.8,-1.06c13.2,-3.93 25.4,-10.5 36.4,-18.6c1.79,-1.32 1.79,-1.32 3.79,-2.32v-2c0.56,-0.25 1.13,-0.51 1.71,-0.78c2.52,-1.34 4.62,-2.89 6.85,-4.65c0.77,-0.6 1.53,-1.2 2.32,-1.81c1.83,-1.52 3.56,-2.96 5.12,-4.76v-2l6,-3v-2c0.99,-0.33 1.98,-0.66 3,-1v-2c0.84,-0.38 0.84,-0.38 1.7,-0.78c2.57,-1.36 4.75,-2.94 7.05,-4.72c0.8,-0.6 1.6,-1.21 2.42,-1.84c0.91,-0.82 0.91,-0.82 1.83,-1.66v-2c0.58,-0.26 1.16,-0.52 1.76,-0.79c2.34,-1.26 4.03,-2.66 5.99,-4.46c3.43,-3.09 7,-5.83 10.8,-8.48c0.48,-0.42 0.97,-0.84 1.47,-1.27v-2c0.99,-0.33 1.98,-0.66 3,-1v-2c0.8,-0.26 1.61,-0.53 2.44,-0.81c0.84,-0.39 1.69,-0.78 2.56,-1.19l1,-3c1.87,-1.06 1.87,-1.06 4,-2l3,-2v-2l6,-3v-2c0.99,-0.33 1.98,-0.66 3,-1v-2l6,-3v-2c0.59,-0.27 1.18,-0.54 1.8,-0.83c2.11,-1.12 3.67,-2.27 5.45,-3.85c0.6,-0.54 1.21,-1.07 1.83,-1.62c0.64,-0.56 1.27,-1.12 1.92,-1.7c1.29,-1.12 2.58,-2.25 3.87,-3.37c2.2,-1.93 4.39,-3.86 6.57,-5.81c0.8,-0.73 1.61,-1.45 2.43,-2.19c0.74,-0.67 1.48,-1.34 2.25,-2.02c1.88,-1.61 1.88,-1.61 3.88,-2.61v-2l6,-3v-2c0.99,-0.33 1.98,-0.66 3,-1v-2c0.54,-0.24 1.07,-0.49 1.62,-0.75c4.14,-2.17 8.39,-4.59 11.4,-8.25v-2l6,-3v-2c0.99,-0.33 1.98,-0.66 3,-1v-2c0.55,-0.24 1.1,-0.49 1.67,-0.75c2.78,-1.49 5.11,-3.28 7.58,-5.25c0.89,-0.7 1.78,-1.4 2.7,-2.12c0.68,-0.62 1.35,-1.24 2.05,-1.88v-2c0.84,-0.38 0.84,-0.38 1.7,-0.78c2.57,-1.36 4.75,-2.94 7.05,-4.72c1.2,-0.91 1.2,-0.91 2.42,-1.84c0.91,-0.82 0.91,-0.82 1.83,-1.66v-2l6,-3v-2c0.99,-0.33 1.98,-0.66 3,-1v-2l6,-3v-2c0.59,-0.27 1.18,-0.54 1.78,-0.82c2.19,-1.16 3.81,-2.41 5.66,-4.05c2.12,-1.88 4.24,-3.65 6.5,-5.38c0.68,-0.57 1.36,-1.15 2.06,-1.75v-2c0.99,-0.33 1.98,-0.66 3,-1v-2c0.54,-0.24 1.07,-0.49 1.62,-0.75c5.24,-2.75 9.26,-6.03 13.4,-10.2c5.3,-4.95 10.6,-9.67 16.6,-13.8c0.46,-0.4 0.92,-0.79 1.4,-1.2v-2c0.99,-0.33 1.98,-0.66 3,-1v-2h3v-2c0.99,-0.33 1.98,-0.66 3,-1v-2c0.84,-0.38 0.84,-0.38 1.7,-0.78c2.57,-1.36 4.75,-2.94 7.05,-4.72c1.2,-0.91 1.2,-0.91 2.42,-1.84c0.91,-0.82 0.91,-0.82 1.83,-1.66v-2c0.99,-0.33 1.98,-0.66 3,-1v-2c0.55,-0.24 1.09,-0.48 1.66,-0.72c2.9,-1.58 5.24,-3.54 7.78,-5.65c5.54,-4.61 5.54,-4.61 8.41,-6.79c0.71,-0.61 1.42,-1.21 2.15,-1.84v-2c0.84,-0.38 0.84,-0.38 1.7,-0.78c2.57,-1.36 4.75,-2.94 7.05,-4.72c1.2,-0.91 1.2,-0.91 2.42,-1.84c0.91,-0.82 0.91,-0.82 1.83,-1.66v-2c0.99,-0.33 1.98,-0.66 3,-1v-2l6,-3v-2c1.48,-0.49 1.48,-0.49 3,-1v-2c0.54,-0.24 1.07,-0.49 1.62,-0.75c4.14,-2.17 8.39,-4.59 11.4,-8.25v-2l6,-3v-2c0.55,-0.24 1.1,-0.49 1.67,-0.75c2.78,-1.49 5.11,-3.28 7.58,-5.25c0.89,-0.7 1.78,-1.4 2.7,-2.12c0.68,-0.62 1.35,-1.24 2.05,-1.88v-2c1.48,-0.49 1.48,-0.49 3,-1v-2h2c7.73,-10.3 10,-20.2 9,-33c-1.88,-11.1 -8.26,-21 -17,-28c-9.19,-5.88 -16.9,-8.36 -27.8,-8.37c-1.41,-0.04 -1.41,-0.04 -2.84,-0.07c-9.36,-0.04 -16.6,2.98 -24.5,8.01c-0.92,0.58 -1.84,1.15 -2.79,1.75c-2.42,1.58 -2.42,1.58 -3.15,4.68c-1.65,0.71 -3.32,1.37 -5,2c-1.65,1.11 -3.25,2.28 -4.81,3.5c-0.79,0.61 -1.58,1.22 -2.4,1.85c-0.89,0.82 -0.89,0.82 -1.79,1.65v2c-0.76,0.29 -1.53,0.58 -2.31,0.88c-2.84,1.09 -2.84,1.09 -5.69,3.12v2h-3v2c-0.57,0.27 -1.14,0.54 -1.73,0.82c-4.11,2.14 -7.77,4.98 -11.5,7.68c-1.26,0.9 -1.26,0.9 -2.55,1.81c-0.79,0.57 -1.59,1.14 -2.4,1.73c-1.1,0.78 -1.1,0.78 -2.21,1.58c-0.53,0.45 -1.05,0.91 -1.59,1.38v2c-0.55,0.26 -1.1,0.52 -1.67,0.79c-2.67,1.39 -5.1,3 -7.58,4.71c-0.89,0.61 -1.79,1.22 -2.7,1.85c-0.68,0.54 -1.36,1.09 -2.05,1.65v2c-0.76,0.29 -1.53,0.58 -2.31,0.88c-2.84,1.09 -2.84,1.09 -5.69,3.12v2c-0.73,0.26 -1.45,0.52 -2.2,0.79c-2.92,1.27 -5.11,2.75 -7.61,4.71c-0.79,0.61 -1.58,1.22 -2.4,1.85c-0.59,0.54 -1.18,1.09 -1.79,1.65v2h-3v2c-2.67,1.34 -5.33,2.67 -8,4v2c-1.49,0.5 -1.49,0.5 -3,1v2c-0.58,0.12 -1.17,0.23 -1.77,0.35c-2.4,0.7 -3.96,1.64 -5.98,3.09c-0.61,0.43 -1.23,0.87 -1.86,1.31c-0.46,0.41 -0.92,0.83 -1.39,1.25v2c-2.67,1.34 -5.33,2.67 -8,4v2l-6,3v2c-0.76,0.29 -1.53,0.58 -2.31,0.88c-2.84,1.09 -2.84,1.09 -5.69,3.12v2h-3c-1.69,1.65 -3.35,3.32 -5,5c-1.09,0.73 -2.19,1.45 -3.31,2.19c-0.89,0.6 -1.78,1.2 -2.69,1.81v2h-3v2c-0.76,0.29 -1.53,0.58 -2.31,0.88c-2.84,1.09 -2.84,1.09 -5.69,3.12v2c-0.55,0.26 -1.1,0.52 -1.67,0.79c-2.67,1.39 -5.1,3 -7.58,4.71c-0.89,0.61 -1.79,1.22 -2.7,1.85c-0.68,0.54 -1.36,1.09 -2.05,1.65v2c-2.67,1.34 -5.33,2.67 -8,4v2c-0.55,0.26 -1.1,0.52 -1.67,0.79c-2.67,1.39 -5.1,3 -7.58,4.71c-0.89,0.61 -1.79,1.22 -2.7,1.85c-0.68,0.54 -1.36,1.09 -2.05,1.65v2c-0.56,0.25 -1.11,0.5 -1.69,0.75c-2.84,1.54 -5.01,2.95 -7.31,5.25c-0.7,3.28 -0.7,3.28 -1,7c-2.17,8.17 -5.32,17 -10,24v3h-2c-1.76,2.34 -1.76,2.34 -3.5,5.25c-0.61,0.98 -1.22,1.95 -1.84,2.96c-1.65,2.66 -1.65,2.66 -2.69,5.09c-0.97,1.7 -0.97,1.7 -3.97,2.7c-3.83,3.45 -3.83,3.45 -6,8c-1.31,0.72 -2.65,1.37 -4,2c-1.58,1.2 -3.14,2.41 -4.69,3.63c-7.2,5.31 -15.1,8.88 -23.3,12.4c-0.85,0.37 -1.69,0.73 -2.56,1.1c-5.85,2.21 -12,2.76 -18.2,3.47c-3.26,0.33 -3.26,0.33 -6.26,1.43c-1.98,0.1 -3.96,0.14 -5.95,0.14c-1.25,0.01 -2.49,0.01 -3.78,0.02h-4.18c-1.48,0.01 -2.96,0.01 -4.43,0.02c-4.06,0.01 -8.13,0.02 -12.2,0.02c-4.38,0.01 -8.76,0.03 -13.1,0.04c-7.59,0.02 -15.2,0.04 -22.8,0.06c-11,0.02 -22,0.05 -32.9,0.08c-17.8,0.04 -35.6,0.09 -53.4,0.13c-17.3,0.04 -34.6,0.08 -51.9,0.12c-1.06,0 -2.13,0.01 -3.23,0.01c-5.34,0.01 -10.7,0.03 -16,0.04c-44.4,0.12 -88.7,0.22 -133,0.32v-50c4.49,0.02 8.99,0.03 13.6,0.04c41.2,0.1 82.4,0.17 124,0.22c5.41,0.01 10.8,0.01 16.2,0.02h3.26c17.4,0.02 34.8,0.06 52.2,0.11c17.9,0.05 35.8,0.07 53.6,0.08c11,0.01 22.1,0.03 33.1,0.07c7.57,0.03 15.1,0.04 22.7,0.03c4.36,0 8.72,0 13.1,0.03c4,0.02 8,0.03 12,0.01c1.44,0 2.88,0 4.32,0.02c15.4,0.16 27.7,-4.66 39,-15.3c9.2,-10.1 13.8,-21.5 13.7,-35c0,-0.96 -0.01,-1.92 -0.01,-2.92c-0.19,-8.01 -1.69,-14.2 -5.49,-21.3c-0.4,-0.77 -0.81,-1.54 -1.22,-2.33c-0.88,-1.59 -1.82,-3.13 -2.78,-4.67h-2c-0.27,-0.6 -0.54,-1.2 -0.81,-1.82c-4.51,-8.27 -15.8,-13.7 -24.4,-16.5c-5.5,-1.28 -11.1,-1.05 -16.7,-1.02c-1.4,0 -2.81,0 -4.21,-0.01c-3.84,-0.01 -7.68,0 -11.5,0.01c-4.15,0.01 -8.29,0 -12.4,-0.01c-7.18,-0.01 -14.4,0 -21.5,0c-10.4,0.02 -20.8,0.01 -31.2,-0.01c-16.9,-0.02 -33.8,-0.04 -50.6,-0.04h-3.06h-33.8h-12.2h-3.06c-16.8,0 -33.6,-0.02 -50.4,-0.04c-10.4,-0.02 -20.7,-0.02 -31.1,-0.01c-7.1,0.01 -14.2,0.01 -21.3,-0.01c-4.1,-0.01 -8.2,-0.01 -12.3,0.01c-3.75,0.01 -7.51,0.01 -11.3,-0.01c-1.99,-0.01 -3.99,0.01 -5.98,0.02c-10.2,-0.08 -17.8,-2.27 -25,-9.53c-1.75,-3 -1.75,-3 -3,-6c-0.35,-0.69 -0.7,-1.39 -1.06,-2.11c-1.32,-4.05 -1.22,-7.84 -1.21,-12.1c-0.02,-1.83 -0.05,-3.67 -0.07,-5.5c-0.02,-2.86 -0.04,-5.73 -0.04,-8.59c-0.05,-15.1 -1.47,-27.8 -8.68,-41.4c-0.34,-0.67 -0.68,-1.33 -1.03,-2.02c-1.71,-3.32 -3.41,-6.56 -5.91,-9.36h-2l-3,-6h-2v-2c-2.64,-2.39 -2.64,-2.39 -6,-3v-2c-2.37,-1.82 -2.37,-1.82 -5.31,-3.62c-0.99,-0.63 -1.98,-1.26 -2.99,-1.91c-2.63,-1.7 -2.63,-1.7 -5.7,-1.47v-2c-2.02,-0.62 -4.04,-1.25 -6.06,-1.87c-1.13,-0.35 -2.25,-0.7 -3.41,-1.06c-39.4,-12 -82.3,-3.07 -124,-3.07z"></path><path transform="translate(1200,201)" d="M0,0c5.69,2.63 10.6,5.72 15.7,9.41c2.05,1.42 4.05,2.55 6.3,3.59v2c0.84,0.12 0.84,0.12 1.69,0.25c2.31,0.75 2.31,0.75 4.56,2.56c3.35,2.67 6.89,4.39 10.8,6.19c-0.56,3.34 -1.35,6.03 -3,9h-2l-1,5h-2c-0.25,0.68 -0.49,1.36 -0.75,2.06c-1.49,3.51 -3.32,6.66 -5.25,9.94h-2c-0.4,1.08 -0.4,1.08 -0.81,2.19c-1.19,2.82 -2.58,5.19 -4.25,7.75c-0.62,0.96 -1.25,1.92 -1.89,2.91c-0.67,1.04 -1.35,2.08 -2.05,3.15c-1.48,2.29 -2.96,4.58 -4.44,6.88c-0.37,0.58 -0.75,1.16 -1.14,1.76c-1.95,3.02 -3.85,6.06 -5.7,9.14c-0.36,0.6 -0.73,1.21 -1.1,1.83c-1,1.68 -2,3.36 -2.99,5.04c-0.54,0.77 -1.08,1.55 -1.63,2.35h-2c-0.08,0.52 -0.17,1.04 -0.25,1.58c-1.04,3.37 -2.84,6.2 -4.69,9.17c-0.36,0.6 -0.72,1.2 -1.09,1.82c-0.93,1.52 -1.94,2.98 -2.97,4.43h-2c-0.08,0.56 -0.16,1.11 -0.25,1.69c-0.75,2.31 -0.75,2.31 -2.56,4.56c-2.67,3.35 -4.39,6.89 -6.19,10.8h-2v4c0.8,0.34 0.8,0.34 1.62,0.69c3.2,1.77 5.67,3.85 8.38,6.31v2c0.84,0.37 0.84,0.37 1.69,0.75c3.87,2.09 7.43,4.91 10.3,8.25v2c0.99,0.33 1.98,0.66 3,1v2h2c1.36,1.64 2.69,3.32 4,5c0.91,0.89 1.82,1.77 2.75,2.69c2.25,2.31 2.25,2.31 2.25,4.31h2c1.61,1.73 3.14,3.54 4.62,5.38c0.82,0.99 1.64,1.99 2.48,3.02c1.9,2.6 1.9,2.6 1.9,4.6h2c2.72,2.25 4.23,4.98 6,8c0.56,0.72 1.11,1.44 1.69,2.19c1.31,1.81 1.31,1.81 1.31,3.81h2c1.38,1.88 1.38,1.88 3,4.56c2.15,3.5 4.33,6.95 6.65,10.3c0.68,0.99 0.68,0.99 1.37,2c0.89,1.3 1.79,2.6 2.69,3.89c2.3,3.38 3.87,6.13 4.29,10.2h2c1.01,1.77 2.01,3.54 3,5.31c0.84,1.48 0.84,1.48 1.69,2.99c1.31,2.7 1.31,2.7 1.31,5.7h2l1,6h2c0.23,0.59 0.46,1.19 0.7,1.8c1.8,4.58 3.68,9.1 5.74,13.6c4.21,9.2 7.91,18.2 10.5,28c0.87,2.89 1.86,5.52 3.02,8.29c2.32,5.69 3.76,11.5 5.13,17.4c0.39,1.65 0.39,1.65 0.78,3.32c2.58,11.1 5.14,22.3 5.95,33.7c0.12,1.92 0.12,1.92 1.21,3.82c0.79,6.77 1.26,13.6 1.75,20.4c0.07,1.01 0.15,2.02 0.22,3.07c1.09,15.9 0.98,31.4 -0.22,47.3c-0.07,0.96 -0.15,1.93 -0.22,2.92c-1.23,15.7 -1.23,15.7 -2.53,18.3c-0.28,2.23 -0.52,4.46 -0.75,6.69c-1.24,10.9 -3.78,21.6 -6.25,32.3c-0.42,1.87 -0.42,1.87 -0.85,3.79c-1.27,5.42 -2.95,10.4 -5.12,15.5c-1.2,3.15 -2.08,6.32 -2.97,9.57c-2.78,9.98 -7.04,19.2 -11.5,28.5c-2.72,5.79 -5.2,11.7 -7.6,17.6h-2c-0.11,0.73 -0.22,1.45 -0.34,2.2c-0.69,2.93 -1.72,5.02 -3.22,7.61c-0.46,0.79 -0.91,1.58 -1.38,2.4c-0.35,0.59 -0.7,1.18 -1.06,1.79h-2c-0.07,0.68 -0.14,1.36 -0.21,2.05c-1.04,3.89 -3.14,6.82 -5.41,10.1c-0.92,1.33 -1.82,2.66 -2.73,3.99c-0.45,0.65 -0.9,1.3 -1.36,1.98c-2.43,3.6 -4.67,7.32 -6.91,11c-0.46,0.62 -0.91,1.24 -1.38,1.88h-2c-0.26,0.73 -0.52,1.45 -0.78,2.2c-1.27,2.92 -2.76,5.11 -4.72,7.61c-0.61,0.79 -1.22,1.58 -1.84,2.4c-0.55,0.59 -1.1,1.18 -1.66,1.79h-2c-0.19,0.66 -0.37,1.32 -0.56,2c-2.05,4.27 -5.01,7.74 -8.44,11h-2c-0.25,0.56 -0.49,1.11 -0.75,1.69c-2.09,3.87 -4.91,7.43 -8.25,10.3h-2l-1,3h-2v2c-1.64,1.36 -3.32,2.69 -5,4c-0.89,0.91 -1.77,1.82 -2.69,2.75c-2.31,2.25 -2.31,2.25 -4.31,2.25v2c-1.73,1.61 -3.54,3.14 -5.38,4.62c-0.99,0.82 -1.99,1.64 -3.02,2.48c-2.6,1.9 -2.6,1.9 -4.6,1.9v2c-2.25,2.72 -4.98,4.23 -8,6c-0.72,0.56 -1.44,1.11 -2.19,1.69c-1.81,1.31 -1.81,1.31 -3.81,1.31v2l-4,1v2c-1.82,1.26 -3.71,2.43 -5.62,3.56c-1.2,0.72 -2.4,1.44 -3.6,2.15c-0.62,0.38 -1.25,0.75 -1.89,1.14c-3.05,1.86 -6.03,3.82 -9.01,5.77c-16,10.4 -16,10.4 -20.9,10.4v2c-1.06,0.46 -2.12,0.92 -3.22,1.39c-2.92,1.27 -5.83,2.53 -8.74,3.81c-0.68,0.29 -1.35,0.59 -2.05,0.89c-2.05,0.94 -4.05,1.94 -6.05,2.97c-9.2,4.72 -19,8.1 -29,11c-2.81,0.88 -5.47,1.92 -8.18,3.06c-4.23,1.77 -8.36,2.73 -12.9,3.49c-1.93,0.2 -1.93,0.2 -2.93,1.39c-2.19,0.46 -4.39,0.91 -6.59,1.33c-2.64,0.52 -5.26,1.06 -7.88,1.62c-0.8,0.17 -1.61,0.34 -2.44,0.52c-1.6,0.34 -3.19,0.69 -4.78,1.03c-11.2,2.4 -22.3,3.86 -33.8,4.56c-2.45,0.16 -4.91,0.31 -7.37,0.48c-1.07,0.06 -2.14,0.13 -3.24,0.19c-2.89,0.21 -2.89,0.21 -5.42,0.79c-3.1,0.59 -6.03,0.61 -9.19,0.61c-1.27,0 -2.54,0.01 -3.84,0.01c-1.32,-0.01 -2.64,-0.01 -4,-0.02c-1.32,0.01 -2.64,0.01 -4,0.02c-1.27,0 -2.54,-0.01 -3.84,-0.01h-3.51c-2.86,-0.12 -5.36,-0.54 -8.15,-1.13c-2.18,-0.2 -4.36,-0.36 -6.54,-0.5c-1.24,-0.08 -2.48,-0.16 -3.75,-0.25c-2.61,-0.17 -5.22,-0.33 -7.83,-0.5c-1.23,-0.08 -2.46,-0.16 -3.74,-0.25c-1.13,-0.07 -2.26,-0.14 -3.42,-0.22c-2.72,-0.28 -2.72,-0.28 -4.72,-1.28c-2.81,-0.47 -5.62,-0.9 -8.44,-1.31c-7,-1.07 -13.9,-2.3 -20.9,-3.75c-1.17,-0.25 -1.17,-0.25 -2.37,-0.49c-4.22,-0.91 -8.23,-2.04 -12.3,-3.45c-1.99,-0.37 -3.99,-0.71 -6,-1v-2c-1.28,-0.08 -2.56,-0.16 -3.88,-0.25c-4.56,-0.51 -8.28,-1.85 -12.5,-3.66c-2.75,-1.13 -5.5,-2.02 -8.34,-2.9c-5.51,-1.8 -10.6,-4.11 -15.8,-6.61c-5.07,-2.42 -10.2,-4.59 -15.5,-6.58v-2c-0.71,-0.1 -1.41,-0.19 -2.14,-0.29c-3.35,-0.83 -5.73,-2.22 -8.67,-4.02c-4.65,-2.79 -9.3,-5.34 -14.2,-7.69v-2l-5,-1v-2c-0.56,-0.09 -1.11,-0.19 -1.68,-0.28c-2.93,-0.91 -4.92,-2.41 -7.38,-4.22c-2.73,-2 -4.72,-3.43 -7.94,-4.5v-2c-0.52,-0.25 -1.03,-0.5 -1.56,-0.75c-10,-5.15 -10,-5.15 -12.4,-8.25v-2c-0.7,-0.23 -1.4,-0.45 -2.12,-0.69c-3.62,-1.65 -5.97,-3.6 -8.88,-6.31v-2l-1.88,-0.94c-1.37,-0.68 -2.74,-1.37 -4.12,-2.06v-2c-0.99,-0.33 -1.98,-0.66 -3,-1v-2c-0.88,-0.39 -0.88,-0.39 -1.77,-0.79c-2.39,-1.29 -3.98,-2.7 -5.9,-4.62c-0.67,-0.66 -1.33,-1.32 -2.01,-2c-0.69,-0.69 -1.37,-1.38 -2.07,-2.09c-0.7,-0.69 -1.39,-1.38 -2.11,-2.09l-2,-2c-0.9,-0.91 -0.9,-0.91 -1.83,-1.84c-1.31,-1.57 -1.31,-1.57 -1.31,-3.57c-0.99,-0.33 -1.98,-0.66 -3,-1v-2h-2c-1.62,-1.31 -1.62,-1.31 -3,-3v-3c-0.99,-0.33 -1.98,-0.66 -3,-1v-2h-2c-4,-5.41 -4,-5.41 -4,-8h-2c-1.62,-1.31 -1.62,-1.31 -3,-3v-3h-2c-4,-5.41 -4,-5.41 -4,-8h-2c-0.77,-1.42 -0.77,-1.42 -1.56,-2.88c-1.77,-3.11 -3.74,-6.02 -5.82,-8.93c-3.48,-4.92 -6.62,-9.96 -9.62,-15.2c-0.56,-0.98 -1.13,-1.96 -1.71,-2.97c-4.29,-7.64 -4.29,-7.64 -4.29,-11h-2c-0.67,-1.43 -1.34,-2.87 -2,-4.31c-0.37,-0.8 -0.74,-1.6 -1.12,-2.43c-0.88,-2.26 -0.88,-2.26 -0.88,-5.26h-2c-3,-6.5 -3,-6.5 -3,-11h-2c-0.31,-0.89 -0.63,-1.79 -0.95,-2.71c-2.89,-8.17 -2.89,-8.17 -6.05,-16.2c-3.52,-8.68 -6.8,-17.7 -8.54,-26.9c-0.51,-2.37 -1.2,-4.69 -1.88,-7.02c-1.18,-4.29 -2.15,-8.64 -3.14,-13c-0.22,-0.94 -0.44,-1.88 -0.67,-2.85c-1.02,-4.44 -1.89,-8.8 -2.36,-13.3c-0.15,-3.71 -0.15,-3.71 -1.41,-5.93c-0.21,-1.78 -0.37,-3.56 -0.5,-5.34c-0.08,-1.06 -0.16,-2.13 -0.25,-3.22c-0.12,-1.67 -0.12,-1.67 -0.25,-3.38c-0.16,-2.19 -0.33,-4.39 -0.5,-6.59c-0.07,-0.97 -0.14,-1.95 -0.22,-2.96c-0.21,-2.63 -0.21,-2.63 -1.28,-5.51c-0.09,-1.53 -0.13,-3.06 -0.13,-4.59c0,-0.93 -0.01,-1.86 -0.01,-2.81c0,-1 0.01,-2 0.01,-3.03c0,-1.03 0,-2.06 -0.01,-3.12c0,-2.18 0.01,-4.36 0.01,-6.54c0,-3.33 0,-6.66 -0.01,-10c0,-2.11 0.01,-4.23 0.01,-6.34c0,-1 -0.01,-2 -0.01,-3.03c0,-0.93 0.01,-1.86 0.01,-2.82v-2.47c0.13,-2.22 0.55,-4.12 1.13,-6.25c0.19,-1.76 0.34,-3.52 0.46,-5.29c0.08,-1.02 0.16,-2.05 0.24,-3.1c0.16,-2.13 0.31,-4.26 0.46,-6.4c0.5,-6.54 1.42,-12.8 2.84,-19.2c0.3,-1.48 0.6,-2.95 0.89,-4.43c1.74,-8.44 3.6,-16.8 5.67,-25.2c0.2,-0.81 0.4,-1.61 0.6,-2.44c1.36,-5.41 3.03,-10.7 4.84,-15.9c0.6,-1.85 0.6,-1.85 1.21,-3.74c2.31,-7.1 4.81,-14 7.77,-20.9c1.09,-2.46 1.09,-2.46 2.02,-5.39h2c0.08,-0.81 0.16,-1.61 0.25,-2.45c0.96,-4.52 2.79,-8.29 4.81,-12.4c0.38,-0.78 0.76,-1.56 1.15,-2.37c0.92,-1.92 1.85,-3.84 2.79,-5.75h2c0.07,-0.66 0.14,-1.31 0.21,-1.99c1.09,-4.17 3.19,-7.47 5.41,-11.1c0.46,-0.76 0.91,-1.51 1.37,-2.28c9.4,-15.6 9.4,-15.6 13.1,-20.2c2.03,-2.33 2.03,-2.33 2.87,-5.39h2c0.29,-0.76 0.58,-1.53 0.88,-2.31c1.12,-2.69 1.12,-2.69 3.12,-5.69h2v-3c1.64,-1.69 3.31,-3.35 5,-5c0.72,-1.09 1.44,-2.19 2.19,-3.31c0.6,-0.89 1.19,-1.78 1.81,-2.69h2l1,-3h2v-3c1.38,-1.69 1.38,-1.69 3,-3h2l1,-3h2c0.26,-0.58 0.52,-1.17 0.79,-1.77c1.29,-2.39 2.7,-3.98 4.62,-5.9c0.66,-0.67 1.32,-1.33 2,-2.01c0.69,-0.69 1.38,-1.37 2.09,-2.07c1.03,-1.05 1.03,-1.05 2.09,-2.11l2,-2c0.61,-0.6 1.21,-1.21 1.84,-1.83c1.57,-1.31 1.57,-1.31 3.57,-1.31l1,-3h2v-2c1.31,-1.62 1.31,-1.62 3,-3h3l1,-3c1.78,-1.61 1.78,-1.61 3.94,-3.19c0.71,-0.53 1.42,-1.06 2.15,-1.6c1.91,-1.21 1.91,-1.21 3.91,-1.21v-2c1.93,-1.63 3.84,-3.14 5.88,-4.62c0.55,-0.43 1.11,-0.85 1.68,-1.28c4.18,-3.1 4.18,-3.1 6.44,-3.1v-2c6.75,-4 6.75,-4 9,-4v-2c2.91,-2.04 4.4,-3 8,-3v-2c2.48,-0.5 2.48,-0.5 5,-1v-2c1.77,-1.01 3.54,-2.01 5.31,-3c0.99,-0.56 1.97,-1.11 2.99,-1.69c2.7,-1.31 2.7,-1.31 5.7,-1.31v-2c1.27,-0.67 2.54,-1.34 3.81,-2c0.71,-0.37 1.42,-0.74 2.15,-1.12c2.04,-0.88 2.04,-0.88 5.04,-0.88v-2c1.89,-0.82 3.79,-1.63 5.69,-2.44c1.05,-0.45 2.11,-0.9 3.2,-1.37c2.73,-1.04 5.23,-1.73 8.11,-2.19v-2c8.54,-3.09 17.1,-6.06 25.7,-8.89c2.04,-0.69 4.05,-1.43 6.04,-2.25c2.55,-0.98 4.53,-1.01 7.24,-0.86v-2c0.96,-0.18 0.96,-0.18 1.94,-0.37c1.3,-0.25 1.3,-0.25 2.62,-0.51c0.85,-0.16 1.7,-0.32 2.57,-0.49c2.01,-0.44 4,-0.96 5.97,-1.54c5.19,-1.51 10.5,-2.55 15.8,-3.65c1.03,-0.22 2.07,-0.44 3.14,-0.67c4.7,-0.98 9.34,-1.87 14.1,-2.36c3.66,-0.16 3.66,-0.16 5.87,-1.41c1.96,-0.21 3.92,-0.37 5.89,-0.5c1.19,-0.08 2.37,-0.16 3.59,-0.25c1.24,-0.08 2.49,-0.16 3.77,-0.25c2.44,-0.16 4.89,-0.33 7.33,-0.5c1.09,-0.07 2.17,-0.14 3.29,-0.22c3.12,-0.23 3.12,-0.23 6.11,-0.8c3.29,-0.52 6.41,-0.61 9.74,-0.61c1.26,0 2.52,-0.01 3.82,-0.01c1.96,0.01 1.96,0.01 3.96,0.02c1.31,-0.01 2.61,-0.01 3.96,-0.02c1.26,0 2.52,0.01 3.82,0.01h3.47c3.17,0.13 6.13,0.58 9.25,1.13c1.93,0.16 3.86,0.29 5.79,0.39c13.3,0.81 26,2.13 39,5.11c6.82,1.53 13.7,2.78 20.6,3.94c2.98,0.63 5.76,1.58 8.64,2.56c2.25,0.63 4.5,1.26 6.75,1.88c5.07,1.43 9.91,3.08 14.8,5.12c2.78,1.11 5.58,2.03 8.43,2.94c8.69,2.85 16.8,6.83 24.9,11c2.06,0.96 3.97,1.55 6.19,2.02v2c1.98,0.33 3.96,0.66 6,1v2c1.09,0.17 1.09,0.17 2.2,0.34c2.93,0.69 5.02,1.72 7.61,3.22c0.79,0.46 1.58,0.91 2.4,1.38c0.59,0.35 1.18,0.7 1.79,1.06v2c0.72,0.12 1.44,0.25 2.19,0.38c2.77,0.61 5.21,1.5 7.81,2.62c0.23,-0.65 0.45,-1.31 0.69,-1.98c1.74,-4.02 3.99,-7.62 6.31,-11.3c0.68,-1.11 0.68,-1.11 1.37,-2.25c0.43,-0.7 0.87,-1.4 1.32,-2.12c0.39,-0.63 0.79,-1.27 1.2,-1.93c0.36,-0.46 0.73,-0.92 1.11,-1.39h2c0.29,-0.74 0.58,-1.49 0.88,-2.25c0.94,-2.32 1.97,-4.53 3.12,-6.75h2c0.12,-0.58 0.25,-1.15 0.38,-1.75c0.63,-2.27 1.51,-4.18 2.62,-6.25h2c0.29,-0.74 0.58,-1.49 0.88,-2.25c0.94,-2.32 1.97,-4.53 3.12,-6.75h2l1,-5h2v-3h2c0.29,-0.74 0.58,-1.49 0.88,-2.25c0.94,-2.32 1.97,-4.53 3.12,-6.75h2l1,-5h2c0.27,-0.72 0.54,-1.45 0.81,-2.2c1.18,-2.78 2.55,-5.14 4.19,-7.68c0.61,-0.94 1.22,-1.88 1.85,-2.85c2.5,-3.81 5.01,-7.6 7.53,-11.4c0.44,-0.67 0.88,-1.33 1.33,-2.02c3.17,-4.74 3.17,-4.74 4.29,-5.86zM-335,110c-1.57,0.52 -3.15,1.03 -4.72,1.55c-13.8,4.53 -27.1,9.19 -40,15.8c-4.03,2.04 -8.12,3.86 -12.3,5.65v2c-0.7,0.1 -1.4,0.21 -2.12,0.31c-3.27,0.78 -5.93,2.11 -8.88,3.69v2c-0.58,0.12 -1.15,0.25 -1.75,0.38c-2.27,0.63 -4.18,1.51 -6.25,2.62v2c-2.48,0.5 -2.48,0.5 -5,1v2c-0.54,0.08 -1.08,0.15 -1.64,0.23c-3.26,1.06 -5.47,2.92 -8.17,5.02c-3.43,2.64 -6.86,5.25 -10.4,7.69c-0.91,0.68 -1.82,1.36 -2.75,2.06v2c-0.66,0.19 -1.32,0.37 -2,0.56c-4.27,2.05 -7.74,5.01 -11,8.44v2c-0.56,0.25 -1.11,0.5 -1.69,0.75c-5.25,2.84 -8.84,6.87 -12.7,11.4c-1.65,1.9 -1.65,1.9 -4.09,4.28c-1.79,1.48 -1.79,1.48 -1.56,3.62h-2c-1.61,1.73 -3.14,3.54 -4.62,5.38c-0.82,0.99 -1.64,1.99 -2.48,3.02c-2.1,2.33 -2.1,2.33 -1.9,4.6c-1.49,0.5 -1.49,0.5 -3,1v2h-2c-1.59,1.95 -1.59,1.95 -3.12,4.38l-1.64,2.46c-1.41,2.03 -1.41,2.03 -1.24,4.16h-2c-3.2,4.07 -3.2,4.07 -4,9h-2c-13,18.1 -24.3,41 -31,62.1c-0.92,2.76 -1.97,5.41 -3.09,8.1c-1.59,3.86 -2.63,7.62 -3.45,11.7c-0.83,4.05 -2.04,7.98 -3.4,11.9c-1.91,5.94 -2.93,12.1 -4.03,18.2c-0.13,0.71 -0.26,1.43 -0.4,2.17c-6.43,36.3 -7.04,76 1.91,112c1.36,5.48 2.52,11 3.61,16.5c0.17,0.85 0.34,1.7 0.51,2.57c0.12,0.62 0.25,1.23 0.37,1.87h2c0.03,0.61 0.05,1.21 0.08,1.84c0.38,5.71 1.53,10.3 3.81,15.5c1.22,2.9 2.2,5.83 3.17,8.83c1.44,4.39 3.03,8.6 4.94,12.8h2c0.09,0.84 0.19,1.68 0.28,2.54c0.83,3.97 2.36,7.27 4.22,10.8c0.35,0.68 0.7,1.37 1.07,2.08c3.93,7.63 8.12,15.1 12.4,22.5c0.53,0.92 1.06,1.84 1.61,2.78c1.06,1.78 2.21,3.51 3.39,5.22h2c0.15,0.85 0.15,0.85 0.31,1.72c1.39,4.57 4.8,8.24 7.63,12c0.64,0.89 1.29,1.78 1.96,2.69c0.93,1.26 0.93,1.26 1.88,2.54c0.57,0.77 1.14,1.55 1.72,2.34c0.5,0.55 0.99,1.11 1.5,1.68h2c0.37,1.08 0.37,1.08 0.75,2.19c1.87,4.21 4.76,7.79 8.25,10.8h2c0.25,0.56 0.5,1.11 0.75,1.69c2.84,5.25 6.87,8.84 11.4,12.7c1.9,1.65 1.9,1.65 4.28,4.09c1.48,1.79 1.48,1.79 3.62,1.56v2c1.73,1.61 3.54,3.14 5.38,4.62c0.99,0.82 1.99,1.64 3.02,2.48c2.33,2.1 2.33,2.1 4.6,1.9c0.5,1.49 0.5,1.49 1,3c2.22,1.74 4.42,3.35 6.75,4.94c1.25,0.86 2.49,1.72 3.73,2.59c0.6,0.41 1.2,0.82 1.82,1.25c1.54,1.11 3.01,2.32 4.47,3.54c2.16,1.98 2.16,1.98 5.23,1.68v2l5,1v2c2.91,2.04 4.4,3 8,3v2c1.27,0.67 2.54,1.34 3.81,2c0.71,0.37 1.42,0.74 2.15,1.12c2.13,1.08 2.13,1.08 5.04,0.88v2c16,7.82 32.2,15.3 49.4,20.2c2.63,0.79 2.63,0.79 4.96,1.74c11.7,4.59 24.3,7.06 36.7,9.05c0.79,0.13 1.57,0.26 2.38,0.39c15,2.37 29.7,3.03 44.8,2.89c3.59,-0.03 7.17,-0.04 10.8,-0.05c2.32,0 4.64,-0.02 6.96,-0.03c1.05,0 2.11,-0.01 3.19,-0.01c20.7,-0.2 40.8,-4.42 60.9,-9.19v-2c0.91,-0.04 0.91,-0.04 1.84,-0.08c5.69,-0.38 10.2,-1.53 15.4,-3.8c5.11,-2.09 10.4,-3.56 15.7,-5.12v-2c1.24,-0.15 1.24,-0.15 2.5,-0.31c4.09,-0.81 7.63,-2.15 11.5,-3.69v-2c0.71,-0.11 1.41,-0.22 2.14,-0.34c3.13,-0.72 5.76,-1.85 8.67,-3.22c0.98,-0.46 1.95,-0.91 2.96,-1.38c1.1,-0.53 1.1,-0.53 2.23,-1.06v-2c0.67,-0.08 1.35,-0.16 2.04,-0.25c3.85,-0.98 6.88,-2.79 10.3,-4.81c0.97,-0.57 0.97,-0.57 1.96,-1.15c1.58,-0.92 3.15,-1.85 4.73,-2.79v-2l4,-1v-2l5,-1v-2h3v-2c0.76,-0.29 1.53,-0.58 2.31,-0.88c2.84,-1.08 2.84,-1.08 5.69,-3.12v-2l4,-1v-2c0.54,-0.25 1.07,-0.5 1.62,-0.75c2.96,-1.56 5.68,-3.28 8.38,-5.25v-2c0.99,-0.33 1.98,-0.66 3,-1v-2h3c1.73,-1.31 1.73,-1.31 3,-3v-2c0.59,-0.27 1.19,-0.54 1.8,-0.81c2.21,-1.19 3.67,-2.4 5.43,-4.16c0.86,-0.86 0.86,-0.86 1.74,-1.73c0.59,-0.59 1.18,-1.19 1.78,-1.8c0.6,-0.59 1.2,-1.19 1.82,-1.8l1.73,-1.73c0.78,-0.78 0.78,-0.78 1.57,-1.58c1.34,-1.35 1.34,-1.35 1.13,-3.39h2c2.4,-2.64 2.4,-2.64 3,-6c0.99,-0.33 1.98,-0.66 3,-1v-2h2c1.63,-1.93 3.14,-3.84 4.62,-5.88c0.43,-0.55 0.85,-1.11 1.28,-1.68c2.36,-2.91 2.36,-2.91 3.1,-6.44h2c1.43,-1.86 2.77,-3.79 4.06,-5.75c0.72,-1.07 1.43,-2.13 2.16,-3.23c1.47,-2.49 2.34,-4.22 2.78,-7.02h2c1.5,-2.18 2.86,-4.34 4.19,-6.62c0.4,-0.68 0.8,-1.36 1.21,-2.06c3.21,-5.5 6.11,-11.1 8.89,-16.8c1.21,-2.47 2.43,-4.91 3.7,-7.35c0.32,-0.63 0.65,-1.26 0.99,-1.91l2.73,-5.28c1.56,-3.03 1.56,-3.03 1.29,-6.96h2c5.82,-15.5 11,-30.9 15,-47c0.19,-0.78 0.39,-1.56 0.59,-2.36c5.25,-21.3 7.6,-42.9 7.54,-64.8c0,-2.26 0,-4.53 0.01,-6.79c0.02,-39.4 -9.36,-76.4 -23.1,-113h-2c-0.08,-0.98 -0.15,-1.96 -0.23,-2.97c-0.67,-4.69 -2.78,-8.38 -5.08,-12.5c-0.79,-1.43 -1.58,-2.87 -2.37,-4.31c-0.39,-0.7 -0.78,-1.41 -1.18,-2.14c-1.1,-2.03 -2.13,-4.08 -3.14,-6.15c-2.03,-4.09 -4.28,-8.03 -6.62,-12c-0.4,-0.68 -0.79,-1.36 -1.2,-2.06c-1,-1.68 -2.08,-3.32 -3.18,-4.94h-2l-1,-5h-2c-0.25,-0.7 -0.49,-1.4 -0.75,-2.12c-1.42,-3.28 -3.12,-6.02 -5.25,-8.88h-2c-0.26,-0.55 -0.52,-1.1 -0.78,-1.67c-1.4,-2.67 -3.01,-5.1 -4.72,-7.58c-0.61,-0.89 -1.22,-1.78 -1.84,-2.7c-0.55,-0.68 -1.1,-1.35 -1.66,-2.05h-2l-1,-3h-2l-3,-6h-2l-1,-3h-2c-0.23,-0.55 -0.45,-1.1 -0.69,-1.67c-1.7,-3.02 -3.86,-5.14 -6.31,-7.58c-0.89,-0.89 -1.77,-1.78 -2.69,-2.7c-2.04,-2.27 -2.04,-2.27 -4.31,-2.05v-2c-2.64,-2.4 -2.64,-2.4 -6,-3v-2h-3c-1.69,2.35 -3.17,4.64 -4.62,7.12c-0.89,1.47 -1.77,2.93 -2.66,4.4c-0.67,1.11 -0.67,1.11 -1.36,2.26c-2.46,4.02 -5.06,7.95 -7.67,11.9c-2.06,2.92 -2.06,2.92 -2.69,6.34h-2c-3.91,5.52 -3.91,5.52 -4.5,11.9c1.39,1.97 2.61,3.62 4.5,5.12h2l1,3h2v2c1.65,1.35 3.32,2.69 5,4l1,2h2l1,3h2v3h2c0.23,0.52 0.45,1.03 0.69,1.56c1.79,3.34 3.81,6.59 6.31,9.44h2c0.26,0.71 0.52,1.41 0.78,2.14c1.32,3.1 2.92,5.82 4.72,8.67c0.61,0.98 1.22,1.95 1.84,2.96c0.82,1.1 0.82,1.1 1.66,2.23h2c0.15,0.81 0.15,0.81 0.29,1.64c0.91,3.01 2.39,5.37 4.02,8.05c2.97,4.97 5.51,9.95 7.69,15.3h2c0.12,1.24 0.12,1.24 0.25,2.5c0.63,2.92 1.2,4.58 2.56,7.12c2.28,4.31 3.71,8.76 5.19,13.4c0.88,2.62 1.89,5.08 3,7.6c2.8,6.81 4.04,14.1 5.53,21.2c0.45,2.04 0.94,4.06 1.46,6.08c2.35,9.37 3.52,18.5 4.13,28.1c0.09,1.3 0.17,2.59 0.26,3.92c0.89,14.5 0.67,28.6 -0.26,43c-0.07,1.24 -0.15,2.48 -0.23,3.76c-0.47,6.6 -1.23,12.8 -2.89,19.2c-0.34,1.43 -0.67,2.85 -1,4.28c-0.51,2.16 -1.02,4.31 -1.54,6.47c-0.88,3.72 -1.71,7.44 -2.46,11.2c-0.87,3.94 -2.3,7.53 -3.86,11.2c-1.33,3.28 -2.48,6.6 -3.64,9.93c-1.4,3.99 -2.84,7.77 -4.81,11.5c-1.99,3.35 -1.99,3.35 -1.69,7.38h-2c-0.53,1.09 -1.06,2.17 -1.61,3.29c-0.71,1.44 -1.43,2.89 -2.14,4.33c-0.52,1.07 -0.52,1.07 -1.05,2.17c-1.66,3.33 -3.33,6.5 -5.47,9.55c-2,2.55 -2,2.55 -1.73,5.66h-2c-1.24,1.74 -2.39,3.55 -3.5,5.38c-3.32,5.44 -3.32,5.44 -5.5,7.62v3h-2c-1.82,1.94 -1.82,1.94 -3.62,4.38c-0.64,0.81 -1.27,1.62 -1.92,2.46c-1.65,2 -1.65,2 -1.46,4.16h-2v3c-0.99,0.33 -1.98,0.66 -3,1v2h-2c-1.35,1.65 -2.69,3.32 -4,5l-2,1v2c-0.99,0.33 -1.98,0.66 -3,1v2h-2c-1.35,1.65 -2.69,3.32 -4,5l-2,1v2c-0.99,0.33 -1.98,0.66 -3,1v2h-3v2c-0.52,0.23 -1.03,0.45 -1.56,0.69c-3.34,1.79 -6.59,3.81 -9.44,6.31v2c-0.7,0.25 -1.4,0.5 -2.12,0.75c-3.28,1.42 -6.02,3.12 -8.88,5.25v2l-5,1v2c-0.52,0.08 -1.03,0.15 -1.56,0.23c-3.49,1.1 -6.37,3.08 -9.44,5.02c-6.45,3.99 -12.9,7.11 -20,9.75v2c-0.84,0.11 -1.68,0.22 -2.54,0.34c-3.8,0.72 -7.21,1.89 -10.8,3.22c-0.64,0.24 -1.28,0.47 -1.94,0.71c-1.56,0.57 -3.12,1.15 -4.68,1.73v2c-1.89,0.2 -3.78,0.39 -5.66,0.59c-2.91,0.51 -5.55,1.46 -8.34,2.41c-12.1,3.63 -24.1,6.1 -36.6,7.69c-2.26,0.29 -4.5,0.61 -6.75,0.93c-13.7,1.87 -30.2,3.89 -43.6,0.38c-1.79,-0.2 -3.59,-0.36 -5.39,-0.5c-1.02,-0.08 -2.04,-0.16 -3.09,-0.25c-2.15,-0.17 -4.3,-0.33 -6.45,-0.5c-1.02,-0.08 -2.03,-0.16 -3.08,-0.25c-0.93,-0.07 -1.87,-0.14 -2.83,-0.22c-2.16,-0.28 -2.16,-0.28 -3.16,-1.28c-2.52,-0.52 -5.03,-0.99 -7.56,-1.44c-8.84,-1.59 -8.84,-1.59 -12.9,-2.68c-4.17,-1.03 -8.29,-1.5 -12.6,-1.88v-2c-2.97,-0.33 -5.94,-0.66 -9,-1v-2l-8,-1v-2c-1.02,-0.35 -1.02,-0.35 -2.05,-0.7c-5.88,-2.06 -11.4,-4.39 -16.9,-7.35c-2.16,-1.16 -2.16,-1.16 -5.09,-0.95v-2c-4.26,-2.36 -4.26,-2.36 -9,-3v-2c-0.62,-0.28 -1.23,-0.56 -1.87,-0.85c-5.69,-2.69 -10.4,-5.71 -15.2,-9.79c-1.93,-1.65 -1.93,-1.65 -4.91,-1.36l-1,-3h-3v-2c-1.71,-1.59 -1.71,-1.59 -3.88,-3.12c-1.07,-0.81 -1.07,-0.81 -2.17,-1.64c-1.85,-1.42 -1.85,-1.42 -3.95,-1.24l-1,-3h-2v-2c-1.68,-1.5 -3.42,-2.92 -5.19,-4.31c-4.85,-3.83 -9.36,-7.52 -12.8,-12.7h-2c-0.25,-0.56 -0.5,-1.11 -0.75,-1.69c-1.48,-2.73 -3.18,-4.99 -5.25,-7.31h-2c-0.25,-0.54 -0.5,-1.07 -0.75,-1.62c-1.56,-2.96 -3.28,-5.68 -5.25,-8.38h-2l-1,-4h-2c-0.24,-0.69 -0.49,-1.38 -0.74,-2.1c-1.46,-3.36 -3.36,-6.3 -5.38,-9.34c-11.6,-17.7 -11.6,-17.7 -13.9,-24.6h-2c-0.08,-0.83 -0.16,-1.65 -0.25,-2.5c-0.63,-2.93 -1.2,-4.56 -2.58,-7.11c-2.34,-4.57 -4.02,-9.28 -5.67,-14.1c-0.3,-0.89 -0.61,-1.77 -0.92,-2.69c-0.6,-1.75 -1.19,-3.5 -1.79,-5.25c-0.64,-1.86 -1.31,-3.72 -1.99,-5.58c-3.15,-8.72 -4.72,-17.8 -6.38,-26.9c-0.36,-1.95 -0.36,-1.95 -1.42,-3.87c-0.21,-1.48 -0.37,-2.97 -0.5,-4.46c-0.08,-0.89 -0.16,-1.77 -0.25,-2.68c-0.08,-0.92 -0.16,-1.85 -0.25,-2.8c-0.16,-1.82 -0.33,-3.64 -0.5,-5.46c-0.11,-1.22 -0.11,-1.22 -0.22,-2.46c-0.23,-2.32 -0.23,-2.32 -1.28,-5.14c-0.11,-2.77 -0.16,-5.52 -0.17,-8.3c0,-1.24 0,-1.24 -0.01,-2.5c0,-1.75 -0.01,-3.51 -0.01,-5.26c0,-2.64 -0.02,-5.27 -0.03,-7.9c-0.04,-10.2 0.56,-20 2.22,-30c0.24,-1.62 0.47,-3.25 0.71,-4.88c1.51,-9.56 3.59,-18.8 6.29,-28.1c0.39,-1.39 0.77,-2.79 1.16,-4.18c3.13,-11.2 6.82,-22.2 12.2,-32.5c1.91,-3.29 1.91,-3.29 1.62,-7.31h2c0.24,-0.52 0.49,-1.05 0.74,-1.59c2.83,-5.86 5.97,-11.5 9.26,-17.1c0.41,-0.71 0.83,-1.42 1.26,-2.16c2.05,-3.46 4.17,-6.8 6.55,-10c2.38,-2.75 2.38,-2.75 2.19,-5.11h2l1,-4h2l1,-4h2c2.4,-2.64 2.4,-2.64 3,-6c0.99,-0.33 1.98,-0.66 3,-1c1.95,-2.15 1.95,-2.15 3.88,-4.75c3.77,-4.85 7.65,-9.08 12.4,-12.9c1.33,-1.14 1.33,-1.14 2.69,-2.31v-2l6,-3v-2c0.99,-0.33 1.98,-0.66 3,-1v-2c0.72,-0.25 1.44,-0.5 2.19,-0.75c3.09,-1.37 5.32,-2.97 7.81,-5.25v-2l4,-1v-2c0.86,-0.16 0.86,-0.16 1.74,-0.32c2.64,-0.79 4.24,-1.96 6.45,-3.62c14.3,-10.2 30,-18.8 46.8,-24.1v-2c0.95,-0.08 1.9,-0.17 2.88,-0.25c3.24,-0.45 5.98,-1.42 9,-2.69c3.8,-1.59 7.4,-2.69 11.4,-3.5c4.25,-0.89 8.45,-1.99 12.7,-3.06c2,-0.51 4.01,-1.01 6.02,-1.5c0.68,-0.18 1.37,-0.35 2.07,-0.53c6.37,-1.55 12.7,-2.07 19.2,-2.53c2.12,-0.16 4.24,-0.31 6.37,-0.48c0.92,-0.06 1.85,-0.13 2.81,-0.19c2.44,-0.2 2.44,-0.2 4.47,-0.79c2.69,-0.63 5.21,-0.61 7.98,-0.61c1.14,0 2.28,-0.01 3.46,-0.01c1.19,0.01 2.38,0.01 3.6,0.02c1.78,-0.01 1.78,-0.01 3.6,-0.02c1.71,0.01 1.71,0.01 3.46,0.01h3.16c2.47,0.12 4.42,0.51 6.78,1.13c1.87,0.2 3.73,0.36 5.61,0.5c1.06,0.08 2.13,0.16 3.22,0.25c2.25,0.17 4.5,0.33 6.75,0.5c1.06,0.08 2.12,0.16 3.21,0.25c1.47,0.11 1.47,0.11 2.96,0.22c2.25,0.28 2.25,0.28 3.25,1.28c1.6,0.28 3.2,0.53 4.81,0.75c11.6,1.86 23.7,4.35 34.5,9.08c4.75,2.06 9.62,3.85 14.5,5.71c1.12,0.43 1.12,0.43 2.26,0.87c0.67,0.26 1.34,0.52 2.03,0.78c1.95,0.81 1.95,0.81 4.01,1.91c2.04,1.11 2.04,1.11 4.94,0.9v2c2.56,1.32 5.12,2.63 7.69,3.94c0.72,0.37 1.44,0.74 2.18,1.13c0.71,0.36 1.41,0.71 2.14,1.08c0.65,0.33 1.29,0.66 1.95,1c2.32,0.97 4.57,1.43 7.04,1.85c3.8,-5.84 7.6,-11.7 11.4,-17.5c1.34,-2.07 2.69,-4.13 4.03,-6.19c0.94,-1.44 0.94,-1.44 1.89,-2.91c0.53,-0.82 1.07,-1.64 1.62,-2.48c1.23,-1.83 1.23,-1.83 1.07,-3.9h2c0.68,-1.07 1.36,-2.14 2.06,-3.25c0.39,-0.6 0.77,-1.21 1.16,-1.83c0.91,-1.89 0.91,-1.89 0.74,-3.95c-1.43,-2.94 -3.47,-3.73 -6.34,-5.22c-0.97,-0.52 -1.95,-1.04 -2.96,-1.58c-2.63,-1.37 -2.63,-1.37 -5.66,-1.17v-2c-2.1,-1.01 -4.21,-2.01 -6.31,-3c-1.76,-0.84 -1.76,-0.84 -3.55,-1.69c-3.03,-1.5 -3.03,-1.5 -6.14,-1.31v-2c-1.77,-0.67 -3.54,-1.34 -5.31,-2c-1.48,-0.56 -1.48,-0.56 -2.99,-1.12c-2.7,-1.03 -2.7,-1.03 -5.7,-0.88v-2c-16.1,-6.77 -16.1,-6.77 -33,-9v-2c-4.16,-0.96 -8.33,-1.89 -12.5,-2.81c-1.13,-0.26 -2.27,-0.52 -3.44,-0.79c-19.8,-4.35 -39.5,-5.9 -59.7,-5.79c-3.44,0.02 -6.89,0 -10.3,-0.02c-25.9,-0.02 -52.4,3.06 -77,11.4zM-305,206c-2.99,0.7 -5.99,1.36 -9,2v2c-1.05,0.04 -2.1,0.08 -3.19,0.12c-5.82,0.75 -10.8,3.37 -16,5.96c-1.92,0.96 -3.85,1.89 -5.79,2.81c-8.7,4.22 -16.9,8.92 -25.1,14.1c-0.94,0.53 -1.89,1.06 -2.86,1.61c-0.71,0.46 -1.41,0.92 -2.14,1.39v2h-3v2c-0.77,0.34 -0.77,0.34 -1.56,0.69c-3.34,1.79 -6.59,3.81 -9.44,6.31v2c-1.49,0.5 -1.49,0.5 -3,1v2c-0.58,0.26 -1.17,0.52 -1.77,0.78c-2.41,1.32 -4.05,2.77 -5.98,4.72c-0.61,0.61 -1.23,1.22 -1.86,1.84c-1.6,1.55 -1.6,1.55 -1.39,3.66c-0.99,0.33 -1.98,0.66 -3,1v2c-0.99,0.33 -1.98,0.66 -3,1v2h-2c-1.59,1.71 -1.59,1.71 -3.12,3.88c-0.54,0.71 -1.08,1.43 -1.64,2.17c-1.42,1.85 -1.42,1.85 -1.24,3.95h-2c-0.5,1.98 -0.5,1.98 -1,4h-2c-1.51,2.08 -2.89,4.14 -4.25,6.31c-0.4,0.64 -0.8,1.28 -1.22,1.93c-3.41,5.46 -6.56,11 -9.53,16.8c-0.49,0.91 -0.97,1.82 -1.48,2.76c-0.46,0.88 -0.92,1.77 -1.4,2.68c-0.4,0.78 -0.81,1.56 -1.24,2.37c-1.13,2.41 -1.13,2.41 -0.88,6.19h-2c-0.67,1.91 -1.34,3.83 -2,5.75c-0.37,1.07 -0.74,2.13 -1.12,3.23c-1.07,3.14 -1.07,3.14 -0.88,7.02h-2c-0.27,1.15 -0.53,2.29 -0.8,3.47l-1.08,4.59c-0.17,0.75 -0.34,1.51 -0.52,2.28c-0.82,3.51 -1.69,6.96 -2.7,10.4c-0.76,2.75 -1.23,5.22 -1.46,8.05c-0.34,3.99 -0.34,3.99 -1.44,6.19c-1.22,8.74 -1.16,17.6 -1.13,26.4c0.01,2.16 0,4.33 -0.01,6.49c-0.7,12.9 -0.7,12.9 2.14,25.1c0.53,3.7 0.96,7.4 1.4,11.1c0.58,3.79 1.47,7.23 2.6,10.9c0.21,0.7 0.42,1.41 0.64,2.14c4.31,14.3 9.55,27.6 16.4,40.9l3,6h2c0.08,0.69 0.15,1.39 0.23,2.1c0.97,3.64 2.84,6.28 5.02,9.28c0.41,0.57 0.81,1.14 1.23,1.72c1.17,1.64 2.35,3.27 3.52,4.9c0.98,1.44 1.96,2.87 2.94,4.31c0.68,0.89 1.36,1.78 2.06,2.69h2c0.37,1.08 0.37,1.08 0.75,2.19c1.87,4.21 4.76,7.79 8.25,10.8h2c0.5,1.49 0.5,1.49 1,3h2c0.5,1.49 0.5,1.49 1,3h2v2c1.58,1.64 1.58,1.64 3.62,3.31c0.73,0.62 1.46,1.23 2.21,1.87c0.71,0.6 1.43,1.2 2.17,1.82c0.89,0.78 0.89,0.78 1.8,1.57c2.71,2.62 2.71,2.62 6.2,3.43v2c2.14,1.58 2.14,1.58 4.88,3.19c3.73,2.3 7.34,4.65 10.9,7.25c4.18,2.95 8.51,5.49 13,7.94c0.63,0.34 1.25,0.69 1.9,1.04c3.77,2.01 7.1,3.12 11.4,3.58v2c0.88,0.31 1.77,0.63 2.68,0.95c1.2,0.43 2.4,0.86 3.63,1.3c0.64,0.23 1.28,0.45 1.93,0.69c3.83,1.36 7.64,2.76 11.4,4.18c8.01,2.92 15.8,4.94 24.3,5.88l1,1c1.5,0.21 3.01,0.37 4.52,0.5c0.92,0.08 1.84,0.16 2.79,0.25c0.97,0.08 1.94,0.16 2.94,0.25c1.9,0.16 3.8,0.33 5.7,0.5c0.85,0.07 1.7,0.14 2.57,0.22c2.48,0.28 2.48,0.28 4.96,0.8c2.69,0.51 5.16,0.61 7.9,0.61c1.5,0 1.5,0 3.04,0.01c1.04,-0.01 2.07,-0.01 3.14,-0.02c1.56,0.01 1.56,0.01 3.16,0.02c1,0 2,-0.01 3.03,-0.01h2.76c2.33,-0.12 4.25,-0.54 6.49,-1.13c1.65,-0.2 3.3,-0.36 4.95,-0.5c0.93,-0.08 1.86,-0.16 2.82,-0.25c1.96,-0.17 3.91,-0.33 5.87,-0.5c0.93,-0.08 1.85,-0.16 2.81,-0.25c0.85,-0.07 1.7,-0.14 2.57,-0.22c1.98,-0.08 1.98,-0.08 2.98,-1.28c1.87,-0.35 3.75,-0.66 5.62,-0.94c4.6,-0.73 8.94,-1.66 13.4,-3.06c0.73,-0.2 1.47,-0.41 2.22,-0.62c6.84,-1.93 13.3,-4.51 19.8,-7.38c1.15,-0.5 2.31,-1.01 3.5,-1.53c12.7,-5.66 26.8,-12.5 37.5,-21.5v-2c0.58,-0.1 1.15,-0.21 1.75,-0.31c2.61,-0.8 4.22,-1.88 6.25,-3.69v-2l6,-3v-2c0.99,-0.33 1.98,-0.66 3,-1v-2c0.99,-0.33 1.98,-0.66 3,-1v-2c0.58,-0.25 1.15,-0.5 1.75,-0.75c2.58,-1.43 4.31,-3.03 6.25,-5.25v-2c0.99,-0.33 1.98,-0.66 3,-1v-2h2c1.82,-1.94 1.82,-1.94 3.62,-4.38c0.64,-0.81 1.27,-1.62 1.92,-2.46c1.65,-2 1.65,-2 1.46,-4.16h2v-3h2c1.65,-2.21 1.65,-2.21 3.31,-5c0.62,-1 1.23,-2 1.87,-3.03c0.6,-0.98 1.2,-1.96 1.82,-2.97c2.85,-4.37 2.85,-4.37 4.15,-6.34c1.08,-1.8 1.08,-1.8 0.85,-4.66h2c12.5,-25.5 22.4,-51.5 23.8,-80.1c0.21,-2.86 0.21,-2.86 0.71,-4.74c0.56,-2.38 0.63,-4.52 0.63,-6.96c0,-1.38 0,-1.38 0.01,-2.78c-0.01,-0.95 -0.01,-1.9 -0.02,-2.88c0.01,-0.95 0.01,-1.9 0.02,-2.88c0,-0.92 -0.01,-1.83 -0.01,-2.78v-2.52c-0.13,-2.25 -0.57,-4.15 -1.13,-6.32c-0.16,-1.54 -0.29,-3.09 -0.39,-4.64c-0.86,-11.6 -2.37,-22.2 -5.61,-33.4c-0.5,-1.87 -0.5,-1.87 -1.01,-3.78c-1.6,-5.91 -3.36,-11.5 -6,-17c-1.11,-2.47 -1.98,-4.96 -2.87,-7.51c-2.18,-6.17 -5.09,-11.9 -8.12,-17.7h-2c-0.12,-0.57 -0.24,-1.15 -0.36,-1.74c-2.28,-8.04 -8.6,-15.2 -13.4,-21.9c-0.87,-1.23 -0.87,-1.23 -1.75,-2.49c-0.83,-1.14 -0.83,-1.14 -1.67,-2.3c-0.75,-1.04 -0.75,-1.04 -1.5,-2.1c-0.66,-0.74 -0.66,-0.74 -1.33,-1.49h-2l-1,-3h-2c-0.23,-0.54 -0.45,-1.07 -0.69,-1.62c-1.79,-3.26 -3.73,-5.68 -6.31,-8.38h-4v2h-2c-0.31,0.59 -0.63,1.18 -0.95,1.79c-1.95,3.59 -3.8,6.9 -6.36,10.1c-2,2.06 -2,2.06 -1.69,5.12h-2l-1,5h-2c-1.6,1.91 -1.6,1.91 -3.12,4.31c-0.81,1.2 -0.81,1.2 -1.64,2.43c-1.48,2.27 -1.48,2.27 -1.24,5.26h-2l-1,5h-2c-1.59,2.33 -3.06,4.65 -4.5,7.06c-0.9,1.48 -1.8,2.95 -2.71,4.42c-0.46,0.76 -0.92,1.51 -1.4,2.29c-2.12,3.4 -4.34,6.72 -6.58,10c-3.45,5.14 -6.84,10.3 -10.1,15.6c-1.2,1.9 -2.42,3.8 -3.65,5.69c-0.65,0.99 -1.29,1.99 -1.96,3.01c-0.58,0.9 -1.17,1.8 -1.77,2.73c-1.46,2.07 -1.46,2.07 -1.29,4.21h-2c-0.66,1.11 -1.32,2.23 -2,3.38c-0.37,0.62 -0.74,1.25 -1.12,1.89c-1.03,1.7 -1.03,1.7 -0.88,3.73h-2c-2.04,2.91 -3,4.4 -3,8h-2c-0.66,1.11 -1.32,2.23 -2,3.38c-0.37,0.62 -0.74,1.25 -1.12,1.89c-1.03,1.7 -1.03,1.7 -0.88,3.73h-2l-1,5h-2v3h-2c-3.2,4.07 -3.2,4.07 -4,9h-2l-1,5h-2c-1.49,1.85 -1.49,1.85 -2.94,4.19c-0.79,1.23 -0.79,1.23 -1.6,2.49c-0.72,1.15 -0.72,1.15 -1.46,2.32c-0.62,0.95 -1.24,1.9 -1.88,2.88c-1.35,2.16 -1.35,2.16 -1.12,5.12h-2c-1.19,1.43 -1.19,1.43 -2.31,3.32c-0.44,0.7 -0.87,1.4 -1.32,2.12c-0.68,1.11 -0.68,1.11 -1.37,2.25c-0.45,0.72 -0.9,1.44 -1.37,2.18c-2.23,3.62 -4.23,7.09 -5.63,11.1h-2c-0.72,0.76 -1.44,1.53 -2.19,2.31c-4.19,4.01 -8.35,5.82 -14.1,6.13c-6.09,-0.21 -12,-2.41 -16.9,-6.08c-1.72,-1.56 -1.72,-1.56 -3.83,-1.36v-2c-3.63,-2.96 -3.63,-2.96 -8,-4v-2c-1.95,-1.59 -1.95,-1.59 -4.38,-3.12l-2.46,-1.64c-2.03,-1.41 -2.03,-1.41 -4.16,-1.24l-1,-3h-3v-2l-4,-1v-2c-1.83,-1.57 -1.83,-1.57 -4.31,-3.25c-1.49,-1.06 -1.49,-1.06 -3.01,-2.13c-0.57,-0.41 -1.15,-0.81 -1.74,-1.23c-3.91,-2.79 -7.76,-5.66 -11.6,-8.51c-0.79,-0.59 -1.59,-1.18 -2.41,-1.78c-0.77,-0.57 -1.55,-1.14 -2.35,-1.73c-0.76,-0.56 -1.51,-1.12 -2.29,-1.69c-1.53,-1.14 -3.04,-2.28 -4.55,-3.44c-1.07,-0.83 -1.07,-0.83 -2.17,-1.67c-0.63,-0.49 -1.27,-0.99 -1.92,-1.5c-1.57,-1.25 -1.57,-1.25 -3.62,-1.07v-2c-3.63,-2.96 -3.63,-2.96 -8,-4v-2c-3.63,-2.96 -3.63,-2.96 -8,-4v-2h-3v-2l-4,-1c0,-4.13 0.07,-4.59 2.41,-7.61c0.52,-0.67 1.03,-1.35 1.56,-2.04c0.55,-0.69 1.09,-1.39 1.65,-2.1c0.53,-0.68 1.05,-1.36 1.59,-2.05c2.16,-2.82 4.34,-5.63 6.53,-8.43c0.82,-1.07 0.82,-1.07 1.66,-2.16c0.5,-0.65 1,-1.29 1.51,-1.95c1.27,-1.61 1.27,-1.61 1.09,-3.66c0.99,-0.33 1.98,-0.66 3,-1v-3h2c0.64,-0.83 1.28,-1.65 1.94,-2.5c0.68,-0.83 1.36,-1.65 2.06,-2.5h3v2l4,1v2l4,1v2c1.68,1.59 1.68,1.59 3.81,3.12c0.71,0.54 1.42,1.08 2.15,1.64c2.07,1.5 2.07,1.5 5.04,1.24v2c1.76,1.6 1.76,1.6 4.05,3.22c0.84,0.62 1.69,1.24 2.56,1.88c0.89,0.65 1.78,1.3 2.7,1.96c1.32,0.98 1.32,0.98 2.67,1.97c4.71,3.55 4.71,3.55 10,5.97v2h3v2c3.63,2.96 3.63,2.96 8,4v2c3.63,2.96 3.63,2.96 8,4v2h3l1,3c3.22,2.33 3.22,2.33 7,3v2c2.81,-0.34 3.82,-0.79 5.71,-2.97c0.55,-0.83 1.1,-1.67 1.67,-2.53c0.6,-0.9 1.2,-1.81 1.82,-2.74c0.59,-0.91 1.19,-1.82 1.8,-2.76c0.54,-0.8 1.09,-1.6 1.64,-2.42c2.18,-3.19 4.24,-6.37 6.14,-9.74c2.64,-4.66 5.59,-9.11 8.53,-13.6c1.16,-1.78 2.33,-3.56 3.49,-5.34c0.55,-0.84 1.1,-1.69 1.67,-2.57c2.42,-3.71 4.8,-7.45 7.16,-11.2c1.24,-1.93 2.51,-3.82 3.81,-5.7c1.74,-2.24 1.74,-2.24 1.56,-4.44h2c0.31,-0.59 0.63,-1.18 0.95,-1.79c1.95,-3.59 3.8,-6.9 6.36,-10.1c2,-2.06 2,-2.06 1.69,-5.12h2l1,-5h2c0.62,-1.11 1.24,-2.23 1.88,-3.38c1.25,-2.26 2.27,-3.77 4.12,-5.62v-3h2l1,-5h2c1.49,-1.85 1.49,-1.85 2.94,-4.19c0.79,-1.23 0.79,-1.23 1.6,-2.49c0.48,-0.76 0.96,-1.53 1.46,-2.32c0.62,-0.95 1.24,-1.9 1.88,-2.88c1.35,-2.16 1.35,-2.16 1.12,-5.12h2c1.53,-2.22 2.93,-4.44 4.31,-6.75c0.89,-1.46 1.78,-2.92 2.68,-4.38c0.48,-0.78 0.96,-1.57 1.45,-2.37c3.32,-5.32 6.8,-10.5 10.3,-15.8c0.53,-0.8 1.06,-1.61 1.6,-2.44c0.47,-0.71 0.94,-1.42 1.43,-2.15c1.36,-2.31 2.32,-4.64 3.26,-7.15h-2v-2c-1.27,-0.67 -2.54,-1.34 -3.81,-2c-1.06,-0.56 -1.06,-0.56 -2.15,-1.12c-2.13,-1.08 -2.13,-1.08 -5.04,-0.88v-2c-46.3,-20.7 -94.7,-26.2 -144,-13z"></path></g></g></g></g></svg>