<?xml version="1.0" encoding="UTF-8"?>
<svg width="36px" height="36px" viewBox="0 0 36 36" version="1.1" xmlns="http://www.w3.org/2000/svg" xmlns:xlink="http://www.w3.org/1999/xlink">
    <!-- Generator: Sketch 62 (91390) - https://sketch.com -->
    <title>domain</title>
    <desc>Created with Sketch.</desc>
    <g id="domain" stroke="none" stroke-width="1" fill="none" fill-rule="evenodd">
        <path d="M5.86489362,22 L7.04680851,16.9865067 L8.2287234,22 L10.3585106,22 L12.593617,14 L10.3234043,14 L9.15319149,19.3373313 L7.81914894,14 L6.27446809,14 L4.94042553,19.3373313 L3.75851064,14 L1.5,14 L3.73510638,22 L5.86489362,22 Z M16.8180851,22 L18,16.9865067 L19.1819149,22 L21.3117021,22 L23.5468085,14 L21.2765957,14 L20.106383,19.3373313 L18.7723404,14 L17.2276596,14 L15.893617,19.3373313 L14.7117021,14 L12.4531915,14 L14.6882979,22 L16.8180851,22 Z M27.7712766,22 L28.9531915,16.9865067 L30.1351064,22 L32.2648936,22 L34.5,14 L32.2297872,14 L31.0595745,19.3373313 L29.7255319,14 L28.1808511,14 L26.8468085,19.3373313 L25.6648936,14 L23.406383,14 L25.6414894,22 L27.7712766,22 Z" fill="#673DE6" fill-rule="nonzero"></path>
    </g>
</svg>
