<svg width="151" height="30" viewBox="0 0 151 30" fill="none" xmlns="http://www.w3.org/2000/svg">
<path fill-rule="evenodd" clip-rule="evenodd" d="M0.000249566 14.046V0.000497794L7.08916 3.78046V10.1086L16.4735 10.1132L23.6774 14.046H0.000249566ZM18.3925 8.95058V0L25.6725 3.6859V13.1797L18.3925 8.95058ZM18.3924 26.1177V19.8441L8.93577 19.8375C8.9446 19.8793 1.6123 15.8418 1.6123 15.8418L25.6725 15.9547V30L18.3924 26.1177ZM0 26.1177L0.000252212 16.9393L7.08916 21.0683V29.8033L0 26.1177Z" fill="white"/>
<path d="M116.893 12.0326C117.477 11.3073 118.424 10.9447 119.734 10.9447C120.324 10.9447 120.867 11.0194 121.367 11.1692C121.865 11.3194 122.307 11.4959 122.692 11.6996L123.504 9.4519C123.407 9.39205 123.249 9.3078 123.026 9.19992C122.804 9.09179 122.521 8.98692 122.178 8.88532C121.835 8.78322 121.426 8.69344 120.952 8.61524C120.476 8.53753 119.944 8.49805 119.355 8.49805C118.489 8.49805 117.675 8.64239 116.911 8.93034C116.148 9.21803 115.484 9.64051 114.918 10.198C114.353 10.7553 113.908 11.4363 113.584 12.2393C113.259 13.0427 113.097 13.9659 113.097 15.0093C113.097 16.0404 113.243 16.9577 113.539 17.7605C113.833 18.5637 114.251 19.2414 114.792 19.7927C115.333 20.3444 115.985 20.7636 116.749 21.0518C117.512 21.3392 118.363 21.4833 119.301 21.4833C120.395 21.4833 121.316 21.4079 122.061 21.2583C122.807 21.1086 123.347 20.9681 123.684 20.836V14.6675H120.87V19.0015C120.702 19.0377 120.507 19.0616 120.284 19.0734C120.062 19.0852 119.794 19.0913 119.481 19.0913C118.904 19.0913 118.399 18.9925 117.967 18.7948C117.534 18.5969 117.173 18.318 116.884 17.9581C116.596 17.5983 116.379 17.1697 116.235 16.6726C116.091 16.1751 116.019 15.6201 116.019 15.0093C116.019 13.7499 116.31 12.7581 116.893 12.0326Z" fill="white"/>
<path d="M72.1954 19.0104C71.9369 19.0768 71.6093 19.1094 71.2125 19.1094C70.4191 19.1094 69.7484 19.0285 69.2016 18.8663C68.6541 18.7048 68.1941 18.5222 67.8218 18.318L67.0278 20.5479C67.1963 20.6442 67.4036 20.7458 67.65 20.8539C67.8967 20.9618 68.1915 21.0637 68.534 21.1595C68.8768 21.2553 69.2705 21.336 69.7154 21.4024C70.1603 21.4683 70.6594 21.5015 71.2125 21.5015C72.8597 21.5015 74.0923 21.1806 74.91 20.5388C75.7276 19.8976 76.1367 18.9953 76.1367 17.8322C76.1367 17.2332 76.0583 16.7239 75.9024 16.304C75.7458 15.8843 75.5082 15.5184 75.1899 15.2068C74.8711 14.8952 74.4711 14.6223 73.9904 14.3885C73.5092 14.1546 72.944 13.9179 72.295 13.6778C71.982 13.5699 71.6963 13.4653 71.4383 13.3632C71.1795 13.2616 70.951 13.1474 70.7525 13.0217C70.5543 12.8957 70.4007 12.7549 70.2927 12.5989C70.1845 12.4435 70.13 12.2514 70.13 12.0233C70.13 11.6401 70.2776 11.3551 70.5722 11.1693C70.8667 10.9837 71.3507 10.8902 72.0244 10.8902C72.6254 10.8902 73.1394 10.9596 73.5664 11.0971C73.9929 11.2352 74.3808 11.3941 74.7299 11.5739L75.5412 9.36193C75.1445 9.14617 74.6393 8.948 74.0265 8.76819C73.4131 8.58864 72.6854 8.49811 71.8438 8.49811C71.1341 8.49811 70.497 8.58562 69.9318 8.75914C69.3666 8.93342 68.8859 9.18162 68.4891 9.50553C68.0922 9.82968 67.7857 10.222 67.5691 10.6837C67.3527 11.1452 67.2445 11.6637 67.2445 12.2393C67.2445 12.815 67.3466 13.3033 67.5512 13.7047C67.7555 14.1068 68.0203 14.4486 68.3446 14.7302C68.6692 15.0121 69.0359 15.246 69.4448 15.4316C69.8536 15.6172 70.2624 15.7824 70.6715 15.9257C71.6093 16.2381 72.2706 16.5285 72.6554 16.7986C73.0401 17.068 73.2327 17.4072 73.2327 17.8146C73.2327 18.0065 73.2027 18.1805 73.1425 18.3362C73.0822 18.4921 72.9737 18.6269 72.8176 18.7403C72.6615 18.855 72.4539 18.9447 72.1954 19.0104Z" fill="white"/>
<path fill-rule="evenodd" clip-rule="evenodd" d="M64.137 15.0092C64.137 16.0759 63.9774 17.0145 63.6594 17.8232C63.3403 18.6327 62.9042 19.3102 62.3514 19.8554C61.7983 20.4013 61.1398 20.8118 60.3763 21.0874C59.6129 21.3635 58.7919 21.5013 57.9145 21.5013C57.0605 21.5013 56.2552 21.3635 55.4975 21.0874C54.7399 20.8118 54.0783 20.4013 53.5134 19.8554C52.9479 19.3102 52.5035 18.6327 52.1787 17.8232C51.8541 17.0145 51.6914 16.0759 51.6914 15.0092C51.6914 13.9419 51.8599 13.0036 52.1966 12.1946C52.533 11.3851 52.9873 10.7046 53.5585 10.1531C54.1293 9.60165 54.7908 9.18822 55.5427 8.91235C56.2938 8.63623 57.0847 8.49817 57.9145 8.49817C58.768 8.49817 59.5735 8.63623 60.3314 8.91235C61.0888 9.18822 61.7501 9.60165 62.3153 10.1531C62.8803 10.7046 63.3254 11.3851 63.65 12.1946C63.9749 13.0036 64.137 13.9419 64.137 15.0092ZM54.595 15.0092C54.595 15.6203 54.6699 16.1718 54.8202 16.6634C54.9705 17.1553 55.1871 17.5778 55.4699 17.9313C55.7519 18.2854 56.0979 18.5578 56.507 18.7494C56.9156 18.9418 57.3844 19.0378 57.9138 19.0378C58.4306 19.0378 58.8967 18.9418 59.3118 18.7494C59.7262 18.5578 60.0753 18.2854 60.3575 17.9313C60.64 17.5778 60.8569 17.1553 61.0072 16.6634C61.1575 16.1718 61.2327 15.6203 61.2327 15.0092C61.2327 14.3973 61.1575 13.8428 61.0072 13.3452C60.8569 12.8477 60.64 12.4225 60.3575 12.0684C60.0753 11.7148 59.7262 11.4417 59.3118 11.2503C58.8967 11.0585 58.4306 10.9627 57.9138 10.9627C57.3844 10.9627 56.9156 11.0615 56.507 11.2591C56.0979 11.4571 55.7519 11.7329 55.4699 12.0868C55.1871 12.4403 54.9705 12.8658 54.8202 13.3633C54.6699 13.8612 54.595 14.4097 54.595 15.0092Z" fill="white"/>
<path d="M45.2115 8.78644H48.0254V21.2494H45.2115V15.9621H40.4858V21.2494H37.6719V8.78644H40.4858V13.5519H45.2115V8.78644Z" fill="white"/>
<path d="M88.5327 8.78656V11.1786H84.7629V21.2495H81.9493V11.1786H78.1792V8.78656H88.5327Z" fill="white"/>
<path d="M94.4716 21.2498H91.6577V8.78656H94.4716V21.2498Z" fill="white"/>
<path d="M107.067 21.2495C106.262 19.8229 105.39 18.4144 104.452 17.0232C103.514 15.6323 102.516 14.3196 101.458 13.0846V21.2495H98.6802V8.78656H100.971C101.367 9.18188 101.806 9.66749 102.288 10.2431C102.769 10.8187 103.258 11.4334 103.757 12.0867C104.256 12.74 104.752 13.4175 105.245 14.1186C105.738 14.82 106.201 15.4942 106.634 16.1418V8.78656H109.43V21.2495H107.067Z" fill="white"/>
<path d="M127.622 21.2495V8.78656H136.063V11.1424H130.435V13.588H135.432V15.8903H130.435V18.8937H136.478V21.2495H127.622Z" fill="white"/>
<path fill-rule="evenodd" clip-rule="evenodd" d="M147.845 9.64051C146.847 8.97485 145.411 8.6424 143.535 8.6424C143.018 8.6424 142.431 8.66629 141.776 8.71457C141.121 8.7621 140.487 8.84659 139.874 8.96579V21.2495H142.687V16.699H144.076C144.317 16.9872 144.559 17.3078 144.8 17.6619C145.041 18.0155 145.287 18.3897 145.533 18.7855C145.781 19.1813 146.022 19.5892 146.258 20.0087C146.493 20.4284 146.725 20.8418 146.955 21.2495H150.1C149.884 20.794 149.649 20.3296 149.397 19.8555C149.145 19.3822 148.883 18.9268 148.612 18.4892C148.342 18.0517 148.068 17.632 147.791 17.2301C147.515 16.8285 147.251 16.4719 146.998 16.1598C147.756 15.8485 148.336 15.4195 148.739 14.8743C149.142 14.3288 149.343 13.6179 149.343 12.743C149.343 11.34 148.843 10.3059 147.845 9.64051ZM143.146 11.0523C143.309 11.0405 143.492 11.0344 143.696 11.0344C144.598 11.0344 145.28 11.1635 145.743 11.4207C146.206 11.6792 146.437 12.1133 146.437 12.7249C146.437 13.3606 146.209 13.8105 145.752 14.0738C145.295 14.3379 144.538 14.4691 143.48 14.4691H142.686V11.0883C142.831 11.0767 142.984 11.0646 143.146 11.0523Z" fill="white"/>
</svg>
