<svg xmlns="http://www.w3.org/2000/svg" xmlns:xlink="http://www.w3.org/1999/xlink" preserveAspectRatio="xMidYMid meet" width="1280" height="1280" viewBox="0 0 1280 1280" style="width:100%;height:100%"><defs><animate attributeType="XML" attributeName="opacity" dur="3s" from="0" to="1" xlink:href="#time_group"/></defs><g id="_R_G"><g id="_R_G_L_0_G" transform=" translate(640, 640) scale(3.19, 3.19) translate(-44.2, -51.8)"><path id="_R_G_L_0_G_D_0_P_0" fill="#673de6" fill-opacity="1" fill-rule="nonzero" d=" M63.2 0 C63.2,0 63.2,30.9 63.2,30.9 C63.2,30.9 88.2,45.5 88.2,45.5 C88.2,45.5 88.2,12.7 88.2,12.7 C88.2,12.7 63.2,0 63.2,0z "/><path id="_R_G_L_0_G_D_1_P_0" fill="#673de6" fill-opacity="1" fill-rule="nonzero" d=" M30.7 68.5 C30.7,68.5 63.2,68.5 63.2,68.5 C63.2,68.5 63.2,90.2 63.2,90.2 C63.2,90.2 88.2,103.6 88.2,103.6 C88.2,103.6 88.2,55.1 88.2,55.1 C88.2,55.1 5.4,54.7 5.4,54.7 C5.4,54.7 30.7,68.7 30.7,68.5z "/><path id="_R_G_L_0_G_D_2_P_0" fill="#673de6" fill-opacity="1" fill-rule="nonzero" d=" M56.6 34.9 C56.6,34.9 24.2,34.9 24.2,34.9 C24.2,34.9 24.2,13.1 24.2,13.1 C24.2,13.1 0.2,0 0.2,0 C0.2,0 0.2,48.5 0.2,48.5 C0.2,48.5 81.6,48.5 81.6,48.5 C81.6,48.5 56.6,34.9 56.6,34.9z "/><path id="_R_G_L_0_G_D_3_P_0" fill="#673de6" fill-opacity="1" fill-rule="nonzero" d=" M0.2 90.2 C0.2,90.2 24.2,102.9 24.2,102.9 C24.2,102.9 24.2,72.8 24.2,72.8 C24.2,72.8 0.2,58.5 0.2,58.5 C0.2,58.5 0.2,90.2 0.2,90.2z "/></g></g><g id="time_group"/></svg>